<svg xmlns="http://www.w3.org/2000/svg" xmlns:xlink="http://www.w3.org/1999/xlink" width="500" zoomAndPan="magnify" viewBox="0 0 375 374.999991" height="500" preserveAspectRatio="xMidYMid meet" version="1.0"><defs><g/><clipPath id="4e3dfe520c"><path d="M 117 112 L 169.144531 112 L 169.144531 173 L 117 173 Z M 117 112 " clip-rule="nonzero"/></clipPath><clipPath id="b1e02782af"><path d="M 139 102.640625 L 151 102.640625 L 151 115 L 139 115 Z M 139 102.640625 " clip-rule="nonzero"/></clipPath></defs><g clip-path="url(#4e3dfe520c)"><path fill="#203e78" d="M 168.6875 116.078125 C 169.332031 115.273438 169.207031 114.085938 168.40625 113.433594 L 167.769531 112.921875 C 166.964844 112.273438 165.777344 112.398438 165.128906 113.199219 L 129.28125 157.582031 C 128.96875 157.710938 128.636719 157.8125 128.300781 157.878906 C 127.238281 158.101562 126.125 158.28125 124.96875 158.484375 C 124.632812 158.546875 124.292969 158.609375 123.945312 158.671875 C 123.355469 158.78125 122.75 158.902344 122.132812 159.042969 C 121.808594 159.113281 121.480469 159.191406 121.152344 159.273438 C 120.683594 159.394531 120.207031 159.527344 119.730469 159.671875 C 119.421875 159.765625 119.113281 159.863281 118.804688 159.96875 C 118.296875 160.144531 117.777344 160.335938 117.257812 160.546875 L 132.46875 172.832031 C 132.566406 172.28125 132.644531 171.734375 132.707031 171.199219 C 132.746094 170.875 132.777344 170.554688 132.804688 170.234375 C 132.84375 169.734375 132.875 169.242188 132.890625 168.761719 C 132.90625 168.421875 132.910156 168.082031 132.914062 167.75 C 132.921875 167.117188 132.910156 166.503906 132.898438 165.898438 C 132.890625 165.550781 132.878906 165.203125 132.867188 164.863281 C 132.824219 163.6875 132.765625 162.558594 132.757812 161.476562 C 132.753906 161.128906 132.785156 160.789062 132.847656 160.453125 Z M 168.6875 116.078125 " fill-opacity="1" fill-rule="nonzero"/></g><path fill="#203e78" d="M 85.542969 167.195312 C 85.542969 167.195312 87.523438 170.09375 89.726562 173.046875 C 91.84375 172.480469 100.019531 170.609375 100.019531 170.609375 L 90.941406 174.652344 C 92.257812 176.347656 93.539062 177.878906 94.421875 178.660156 L 109.457031 170.214844 L 96.511719 180.488281 C 97.417969 181.277344 98.390625 182.121094 99.414062 183 L 106.210938 179.8125 L 101.449219 184.738281 C 102.675781 185.777344 103.953125 186.851562 105.253906 187.933594 L 116.738281 179.839844 L 107.300781 189.605469 C 108.5 190.554688 109.699219 191.488281 110.871094 192.394531 L 119.8125 187.230469 L 113.417969 194.347656 C 114.617188 195.261719 118.710938 197.636719 118.710938 197.636719 C 118.710938 197.636719 129.128906 193.269531 131.9375 175.199219 L 115.0625 161.570312 C 113.675781 162.285156 101.679688 168.742188 85.542969 167.195312 Z M 85.542969 167.195312 " fill-opacity="1" fill-rule="nonzero"/><path fill="#3ba3db" d="M 141.0625 128.375 L 146.875 127.113281 L 141.0625 125.851562 L 139.804688 120.039062 L 138.539062 125.851562 L 132.730469 127.113281 L 138.539062 128.375 L 139.804688 134.183594 Z M 141.0625 128.375 " fill-opacity="1" fill-rule="nonzero"/><path fill="#ffffff" d="M 90.230469 132.429688 L 94.320312 131.542969 L 90.230469 130.652344 L 89.34375 126.566406 L 88.457031 130.652344 L 84.367188 131.542969 L 88.457031 132.429688 L 89.34375 136.519531 Z M 90.230469 132.429688 " fill-opacity="1" fill-rule="nonzero"/><path fill="#ffffff" d="M 93.417969 144.46875 L 97.300781 143.621094 L 93.417969 142.78125 L 92.574219 138.894531 L 91.734375 142.78125 L 87.847656 143.621094 L 91.734375 144.46875 L 92.574219 148.351562 Z M 93.417969 144.46875 " fill-opacity="1" fill-rule="nonzero"/><path fill="#3ba3db" d="M 114.136719 145.019531 L 118.710938 144.027344 L 114.136719 143.035156 L 113.144531 138.457031 L 112.148438 143.035156 L 107.574219 144.027344 L 112.148438 145.019531 L 113.144531 149.597656 Z M 114.136719 145.019531 " fill-opacity="1" fill-rule="nonzero"/><path fill="#3ba3db" d="M 102.871094 155.929688 L 106.757812 155.085938 L 102.871094 154.242188 L 102.03125 150.355469 L 101.183594 154.242188 L 97.300781 155.085938 L 101.183594 155.929688 L 102.03125 159.816406 Z M 102.871094 155.929688 " fill-opacity="1" fill-rule="nonzero"/><g clip-path="url(#b1e02782af)"><path fill="#3ba3db" d="M 145.941406 109.402344 L 150.65625 108.378906 L 145.941406 107.355469 L 144.917969 102.640625 L 143.898438 107.355469 L 139.183594 108.378906 L 143.898438 109.402344 L 144.917969 114.117188 Z M 145.941406 109.402344 " fill-opacity="1" fill-rule="nonzero"/></g><path fill="#3ba3db" d="M 128.015625 115.136719 L 132.730469 114.117188 L 128.015625 113.09375 L 126.992188 108.378906 L 125.96875 113.09375 L 121.257812 114.117188 L 125.96875 115.136719 L 126.992188 119.851562 Z M 128.015625 115.136719 " fill-opacity="1" fill-rule="nonzero"/><path fill="#203e78" d="M 62.554688 184.433594 L 62.554688 171.132812 L 56.175781 171.824219 L 56.175781 184.53125 Z M 62.554688 184.433594 " fill-opacity="1" fill-rule="nonzero"/><path fill="#203e78" d="M 73.398438 184.269531 L 73.398438 169.972656 L 64.789062 170.898438 L 64.789062 184.398438 Z M 73.398438 184.269531 " fill-opacity="1" fill-rule="nonzero"/><path fill="#ffffff" d="M 77.949219 147.914062 L 83.113281 146.789062 L 77.949219 145.667969 L 76.828125 140.503906 L 75.703125 145.667969 L 70.539062 146.789062 L 75.703125 147.914062 L 76.828125 153.078125 Z M 77.949219 147.914062 " fill-opacity="1" fill-rule="nonzero"/><path fill="#3ba3db" d="M 138.328125 139.238281 C 136.234375 137.738281 133.972656 136.425781 131.5625 135.355469 C 129.0625 134.253906 126.511719 133.449219 123.945312 132.921875 C 123.945312 132.929688 123.949219 132.929688 123.949219 132.929688 C 123.214844 132.738281 122.472656 132.566406 121.730469 132.414062 C 127.308594 135.503906 132.425781 139.460938 136.746094 144.023438 L 139.800781 140.238281 C 139.316406 139.898438 138.828125 139.5625 138.328125 139.238281 Z M 138.328125 139.238281 " fill-opacity="1" fill-rule="nonzero"/><path fill="#3ba3db" d="M 143.8125 177.933594 C 139.507812 187.648438 130.15625 197.054688 117.105469 199.6875 L 116.3125 199.925781 L 116.21875 199.855469 C 112 200.597656 107.40625 200.640625 102.484375 199.761719 C 99.984375 199.320312 97.527344 198.164062 94.960938 197.304688 C 92.378906 196.402344 89.761719 195.484375 87.144531 194.550781 C 84.484375 193.664062 81.820312 192.777344 79.203125 191.898438 C 76.566406 191.027344 73.914062 190.347656 71.324219 189.734375 C 68.746094 189.074219 66.164062 188.734375 63.714844 188.511719 C 61.25 188.304688 58.886719 188.359375 56.707031 188.738281 C 55.621094 188.898438 54.574219 189.214844 53.605469 189.484375 C 52.652344 189.925781 51.726562 190.191406 50.933594 190.726562 C 49.292969 191.632812 48.054688 192.777344 47.144531 193.863281 C 46.703125 194.414062 46.304688 194.894531 46.007812 195.335938 C 45.75 195.8125 45.53125 196.210938 45.351562 196.539062 C 45.003906 197.199219 44.820312 197.558594 44.820312 197.558594 C 44.820312 197.558594 45.09375 197.289062 45.589844 196.792969 C 45.839844 196.535156 46.148438 196.230469 46.511719 195.863281 C 46.886719 195.578125 47.339844 195.25 47.839844 194.882812 C 48.289062 194.484375 48.925781 194.234375 49.542969 193.914062 C 50.160156 193.546875 50.90625 193.363281 51.652344 193.101562 C 52.390625 192.8125 53.265625 192.800781 54.121094 192.613281 C 55.011719 192.597656 55.914062 192.464844 56.894531 192.527344 C 58.84375 192.574219 60.964844 192.960938 63.195312 193.414062 C 65.4375 193.929688 67.777344 194.636719 70.21875 195.421875 C 72.652344 196.167969 75.15625 197.191406 77.730469 198.066406 C 80.320312 199.003906 82.9375 199.964844 85.5625 200.921875 C 88.214844 201.839844 90.886719 202.761719 93.5625 203.539062 C 96.21875 204.351562 98.902344 204.957031 101.511719 205.492188 C 102.8125 205.761719 104.125 205.972656 105.390625 206.144531 C 106.683594 206.238281 107.929688 206.394531 109.164062 206.429688 C 110.59375 206.496094 134.117188 209.050781 148.046875 188.359375 C 147.808594 188.992188 147.554688 189.628906 147.277344 190.253906 C 139.851562 207.007812 120.75 223.046875 94.152344 218.300781 C 90.9375 217.734375 87.777344 216.253906 84.480469 215.15625 C 81.164062 213.984375 77.792969 212.808594 74.429688 211.609375 C 71.011719 210.472656 67.59375 209.328125 64.234375 208.203125 C 60.835938 207.085938 57.429688 206.210938 54.097656 205.417969 C 50.777344 204.574219 47.46875 204.132812 44.3125 203.847656 C 41.144531 203.578125 38.109375 203.65625 35.308594 204.140625 C 33.914062 204.34375 32.574219 204.742188 31.328125 205.09375 C 30.105469 205.664062 28.917969 206.007812 27.886719 206.695312 C 25.78125 207.855469 24.191406 209.332031 23.023438 210.722656 C 22.453125 211.4375 21.945312 212.054688 21.558594 212.617188 C 21.226562 213.230469 20.949219 213.746094 20.714844 214.167969 C 20.269531 215.035156 20.03125 215.496094 20.03125 215.496094 C 20.03125 215.496094 20.382812 215.148438 21.023438 214.511719 C 21.34375 214.1875 21.746094 213.792969 22.207031 213.316406 C 22.703125 212.953125 23.269531 212.53125 23.914062 212.058594 C 24.492188 211.546875 25.304688 211.230469 26.113281 210.8125 C 26.898438 210.339844 27.851562 210.105469 28.820312 209.769531 C 29.769531 209.394531 30.894531 209.386719 31.988281 209.144531 C 33.132812 209.121094 34.296875 208.949219 35.566406 209.03125 C 38.066406 209.097656 40.789062 209.585938 43.660156 210.167969 C 46.535156 210.835938 49.542969 211.746094 52.683594 212.75 C 55.8125 213.714844 59.027344 215.023438 62.339844 216.152344 C 65.667969 217.359375 69.035156 218.589844 72.410156 219.824219 C 75.820312 221.007812 79.253906 222.183594 82.6875 223.1875 C 86.105469 224.230469 89.546875 225.011719 92.90625 225.699219 C 94.585938 226.039062 96.257812 226.316406 97.890625 226.535156 C 99.550781 226.65625 101.152344 226.867188 102.742188 226.898438 C 104.6875 226.984375 138.574219 230.699219 155.828125 198.535156 C 165.148438 181.171875 160.421875 160.546875 147.378906 146.773438 L 142.898438 152.324219 C 146.777344 160.265625 147.664062 169.246094 143.8125 177.933594 Z M 143.8125 177.933594 " fill-opacity="1" fill-rule="nonzero"/><path fill="#203e78" d="M 85.320312 164.445312 L 110.21875 125.304688 L 129.21875 153.347656 L 131.742188 150.214844 L 111.0625 120.007812 L 82.644531 125.304688 L 82.644531 139.859375 L 80.789062 140.675781 L 80.789062 114.820312 L 71.988281 119.433594 L 71.988281 127.304688 L 69.988281 127.699219 L 41.015625 169.304688 L 80.8125 165.074219 Z M 85.320312 164.445312 " fill-opacity="1" fill-rule="nonzero"/><path fill="#ffffff" d="M 95.9375 140.140625 L 99.820312 139.300781 L 95.9375 138.453125 L 95.089844 134.570312 L 94.25 138.453125 L 90.363281 139.300781 L 94.25 140.140625 L 95.089844 144.027344 Z M 95.9375 140.140625 " fill-opacity="1" fill-rule="nonzero"/><path fill="#ffffff" d="M 104.414062 127.261719 L 107.621094 126.566406 L 104.414062 125.871094 L 103.722656 122.664062 L 103.023438 125.871094 L 99.820312 126.566406 L 103.023438 127.261719 L 103.722656 130.464844 Z M 104.414062 127.261719 " fill-opacity="1" fill-rule="nonzero"/><g fill="#203e78" fill-opacity="1"><g transform="translate(169.469672, 168.145712)"><g><path d="M 5.015625 0.296875 C 4.066406 0.296875 3.335938 0.0351562 2.828125 -0.484375 C 2.316406 -1.015625 2.0625 -1.753906 2.0625 -2.703125 L 2.0625 -19.65625 C 2.0625 -20.625 2.320312 -21.363281 2.84375 -21.875 C 3.363281 -22.382812 4.097656 -22.640625 5.046875 -22.640625 L 12.953125 -22.640625 C 15.515625 -22.640625 17.5 -21.984375 18.90625 -20.671875 C 20.3125 -19.359375 21.015625 -17.546875 21.015625 -15.234375 C 21.015625 -12.910156 20.3125 -11.09375 18.90625 -9.78125 C 17.5 -8.46875 15.515625 -7.8125 12.953125 -7.8125 L 7.96875 -7.8125 L 7.96875 -2.703125 C 7.96875 -1.753906 7.71875 -1.015625 7.21875 -0.484375 C 6.726562 0.0351562 5.992188 0.296875 5.015625 0.296875 Z M 7.96875 -12.34375 L 11.921875 -12.34375 C 13.035156 -12.34375 13.890625 -12.582031 14.484375 -13.0625 C 15.085938 -13.539062 15.390625 -14.265625 15.390625 -15.234375 C 15.390625 -16.210938 15.085938 -16.9375 14.484375 -17.40625 C 13.890625 -17.882812 13.035156 -18.125 11.921875 -18.125 L 7.96875 -18.125 Z M 7.96875 -12.34375 "/></g></g></g><g fill="#203e78" fill-opacity="1"><g transform="translate(189.673076, 168.145712)"><g><path d="M 3.109375 0.296875 C 2.453125 0.296875 1.894531 0.140625 1.4375 -0.171875 C 0.988281 -0.484375 0.710938 -0.910156 0.609375 -1.453125 C 0.503906 -2.003906 0.601562 -2.625 0.90625 -3.3125 L 8.90625 -20.53125 C 9.289062 -21.363281 9.765625 -21.972656 10.328125 -22.359375 C 10.890625 -22.742188 11.535156 -22.9375 12.265625 -22.9375 C 12.992188 -22.9375 13.628906 -22.742188 14.171875 -22.359375 C 14.722656 -21.972656 15.203125 -21.363281 15.609375 -20.53125 L 23.609375 -3.3125 C 23.953125 -2.625 24.078125 -2 23.984375 -1.4375 C 23.890625 -0.882812 23.617188 -0.457031 23.171875 -0.15625 C 22.734375 0.144531 22.195312 0.296875 21.5625 0.296875 C 20.695312 0.296875 20.035156 0.101562 19.578125 -0.28125 C 19.117188 -0.675781 18.707031 -1.300781 18.34375 -2.15625 L 16.609375 -6.234375 L 18.859375 -4.59375 L 5.625 -4.59375 L 7.90625 -6.234375 L 6.171875 -2.15625 C 5.785156 -1.300781 5.390625 -0.675781 4.984375 -0.28125 C 4.578125 0.101562 3.953125 0.296875 3.109375 0.296875 Z M 12.203125 -16.484375 L 8.484375 -7.578125 L 7.578125 -9.125 L 16.9375 -9.125 L 16.03125 -7.578125 L 12.265625 -16.484375 Z M 12.203125 -16.484375 "/></g></g></g><g fill="#203e78" fill-opacity="1"><g transform="translate(212.671013, 168.145712)"><g><path d="M 5.046875 0 C 4.097656 0 3.363281 -0.257812 2.84375 -0.78125 C 2.320312 -1.3125 2.0625 -2.046875 2.0625 -2.984375 L 2.0625 -19.6875 C 2.0625 -20.65625 2.316406 -21.394531 2.828125 -21.90625 C 3.335938 -22.425781 4.066406 -22.6875 5.015625 -22.6875 C 5.972656 -22.6875 6.703125 -22.425781 7.203125 -21.90625 C 7.710938 -21.394531 7.96875 -20.65625 7.96875 -19.6875 L 7.96875 -4.921875 L 15.8125 -4.921875 C 16.625 -4.921875 17.25 -4.707031 17.6875 -4.28125 C 18.125 -3.863281 18.34375 -3.257812 18.34375 -2.46875 C 18.34375 -1.675781 18.125 -1.066406 17.6875 -0.640625 C 17.25 -0.210938 16.625 0 15.8125 0 Z M 5.046875 0 "/></g></g></g><g fill="#203e78" fill-opacity="1"><g transform="translate(229.951402, 168.145712)"><g><path d="M 4.78125 0.296875 C 3.925781 0.296875 3.269531 0.0625 2.8125 -0.40625 C 2.351562 -0.882812 2.125 -1.550781 2.125 -2.40625 L 2.125 -20.234375 C 2.125 -21.117188 2.367188 -21.789062 2.859375 -22.25 C 3.347656 -22.707031 4.046875 -22.9375 4.953125 -22.9375 C 5.703125 -22.9375 6.296875 -22.789062 6.734375 -22.5 C 7.171875 -22.207031 7.570312 -21.734375 7.9375 -21.078125 L 14.84375 -8.671875 L 13.71875 -8.671875 L 20.59375 -21.078125 C 20.976562 -21.734375 21.390625 -22.207031 21.828125 -22.5 C 22.265625 -22.789062 22.859375 -22.9375 23.609375 -22.9375 C 24.460938 -22.9375 25.117188 -22.707031 25.578125 -22.25 C 26.046875 -21.789062 26.28125 -21.117188 26.28125 -20.234375 L 26.28125 -2.40625 C 26.28125 -1.550781 26.050781 -0.882812 25.59375 -0.40625 C 25.144531 0.0625 24.484375 0.296875 23.609375 0.296875 C 22.753906 0.296875 22.097656 0.0625 21.640625 -0.40625 C 21.179688 -0.882812 20.953125 -1.550781 20.953125 -2.40625 L 20.953125 -13.453125 L 21.625 -13.453125 L 16.453125 -4.46875 C 16.148438 -4 15.832031 -3.644531 15.5 -3.40625 C 15.164062 -3.164062 14.722656 -3.046875 14.171875 -3.046875 C 13.628906 -3.046875 13.1875 -3.164062 12.84375 -3.40625 C 12.507812 -3.644531 12.203125 -4 11.921875 -4.46875 L 6.71875 -13.5 L 7.453125 -13.5 L 7.453125 -2.40625 C 7.453125 -1.550781 7.226562 -0.882812 6.78125 -0.40625 C 6.332031 0.0625 5.664062 0.296875 4.78125 0.296875 Z M 4.78125 0.296875 "/></g></g></g><g fill="#203e78" fill-opacity="1"><g transform="translate(256.835992, 168.145712)"><g><path d="M 3.109375 0.296875 C 2.453125 0.296875 1.894531 0.140625 1.4375 -0.171875 C 0.988281 -0.484375 0.710938 -0.910156 0.609375 -1.453125 C 0.503906 -2.003906 0.601562 -2.625 0.90625 -3.3125 L 8.90625 -20.53125 C 9.289062 -21.363281 9.765625 -21.972656 10.328125 -22.359375 C 10.890625 -22.742188 11.535156 -22.9375 12.265625 -22.9375 C 12.992188 -22.9375 13.628906 -22.742188 14.171875 -22.359375 C 14.722656 -21.972656 15.203125 -21.363281 15.609375 -20.53125 L 23.609375 -3.3125 C 23.953125 -2.625 24.078125 -2 23.984375 -1.4375 C 23.890625 -0.882812 23.617188 -0.457031 23.171875 -0.15625 C 22.734375 0.144531 22.195312 0.296875 21.5625 0.296875 C 20.695312 0.296875 20.035156 0.101562 19.578125 -0.28125 C 19.117188 -0.675781 18.707031 -1.300781 18.34375 -2.15625 L 16.609375 -6.234375 L 18.859375 -4.59375 L 5.625 -4.59375 L 7.90625 -6.234375 L 6.171875 -2.15625 C 5.785156 -1.300781 5.390625 -0.675781 4.984375 -0.28125 C 4.578125 0.101562 3.953125 0.296875 3.109375 0.296875 Z M 12.203125 -16.484375 L 8.484375 -7.578125 L 7.578125 -9.125 L 16.9375 -9.125 L 16.03125 -7.578125 L 12.265625 -16.484375 Z M 12.203125 -16.484375 "/></g></g></g><g fill="#203e78" fill-opacity="1"><g transform="translate(169.469672, 196.64571)"><g><path d="M 13.5 0.359375 C 10.988281 0.359375 8.832031 -0.117188 7.03125 -1.078125 C 5.238281 -2.046875 3.863281 -3.410156 2.90625 -5.171875 C 1.957031 -6.929688 1.484375 -8.988281 1.484375 -11.34375 C 1.484375 -13.09375 1.753906 -14.6875 2.296875 -16.125 C 2.835938 -17.5625 3.628906 -18.789062 4.671875 -19.8125 C 5.710938 -20.84375 6.976562 -21.628906 8.46875 -22.171875 C 9.957031 -22.722656 11.632812 -23 13.5 -23 C 14.476562 -23 15.5 -22.882812 16.5625 -22.65625 C 17.625 -22.4375 18.5625 -22.101562 19.375 -21.65625 C 19.96875 -21.332031 20.382812 -20.921875 20.625 -20.421875 C 20.863281 -19.929688 20.941406 -19.429688 20.859375 -18.921875 C 20.785156 -18.410156 20.597656 -17.953125 20.296875 -17.546875 C 20.003906 -17.140625 19.617188 -16.863281 19.140625 -16.71875 C 18.671875 -16.582031 18.160156 -16.65625 17.609375 -16.9375 C 16.960938 -17.226562 16.320312 -17.453125 15.6875 -17.609375 C 15.0625 -17.773438 14.40625 -17.859375 13.71875 -17.859375 C 12.382812 -17.859375 11.273438 -17.609375 10.390625 -17.109375 C 9.503906 -16.609375 8.832031 -15.875 8.375 -14.90625 C 7.925781 -13.9375 7.703125 -12.75 7.703125 -11.34375 C 7.703125 -9.925781 7.925781 -8.726562 8.375 -7.75 C 8.832031 -6.78125 9.503906 -6.039062 10.390625 -5.53125 C 11.273438 -5.03125 12.382812 -4.78125 13.71875 -4.78125 C 14.269531 -4.78125 14.867188 -4.847656 15.515625 -4.984375 C 16.160156 -5.128906 16.789062 -5.351562 17.40625 -5.65625 C 18.050781 -5.9375 18.625 -6.007812 19.125 -5.875 C 19.632812 -5.75 20.039062 -5.492188 20.34375 -5.109375 C 20.65625 -4.722656 20.851562 -4.273438 20.9375 -3.765625 C 21.03125 -3.265625 20.960938 -2.769531 20.734375 -2.28125 C 20.515625 -1.789062 20.125 -1.394531 19.5625 -1.09375 C 18.8125 -0.644531 17.882812 -0.289062 16.78125 -0.03125 C 15.675781 0.226562 14.582031 0.359375 13.5 0.359375 Z M 13.5 0.359375 "/></g></g></g><g fill="#203e78" fill-opacity="1"><g transform="translate(190.058535, 196.64571)"><g><path d="M 5.046875 0 C 4.097656 0 3.363281 -0.257812 2.84375 -0.78125 C 2.320312 -1.3125 2.0625 -2.046875 2.0625 -2.984375 L 2.0625 -19.6875 C 2.0625 -20.65625 2.316406 -21.394531 2.828125 -21.90625 C 3.335938 -22.425781 4.066406 -22.6875 5.015625 -22.6875 C 5.972656 -22.6875 6.703125 -22.425781 7.203125 -21.90625 C 7.710938 -21.394531 7.96875 -20.65625 7.96875 -19.6875 L 7.96875 -4.921875 L 15.8125 -4.921875 C 16.625 -4.921875 17.25 -4.707031 17.6875 -4.28125 C 18.125 -3.863281 18.34375 -3.257812 18.34375 -2.46875 C 18.34375 -1.675781 18.125 -1.066406 17.6875 -0.640625 C 17.25 -0.210938 16.625 0 15.8125 0 Z M 5.046875 0 "/></g></g></g><g fill="#203e78" fill-opacity="1"><g transform="translate(207.338924, 196.64571)"><g><path d="M 5.140625 0 C 4.128906 0 3.363281 -0.257812 2.84375 -0.78125 C 2.320312 -1.3125 2.0625 -2.066406 2.0625 -3.046875 L 2.0625 -19.59375 C 2.0625 -20.582031 2.320312 -21.335938 2.84375 -21.859375 C 3.363281 -22.378906 4.128906 -22.640625 5.140625 -22.640625 L 16.03125 -22.640625 C 16.800781 -22.640625 17.378906 -22.445312 17.765625 -22.0625 C 18.148438 -21.675781 18.34375 -21.125 18.34375 -20.40625 C 18.34375 -19.65625 18.148438 -19.082031 17.765625 -18.6875 C 17.378906 -18.289062 16.800781 -18.09375 16.03125 -18.09375 L 7.703125 -18.09375 L 7.703125 -13.78125 L 15.328125 -13.78125 C 16.078125 -13.78125 16.648438 -13.585938 17.046875 -13.203125 C 17.441406 -12.816406 17.640625 -12.25 17.640625 -11.5 C 17.640625 -10.75 17.441406 -10.179688 17.046875 -9.796875 C 16.648438 -9.410156 16.078125 -9.21875 15.328125 -9.21875 L 7.703125 -9.21875 L 7.703125 -4.5625 L 16.03125 -4.5625 C 16.800781 -4.5625 17.378906 -4.363281 17.765625 -3.96875 C 18.148438 -3.570312 18.34375 -3.007812 18.34375 -2.28125 C 18.34375 -1.53125 18.148438 -0.960938 17.765625 -0.578125 C 17.378906 -0.191406 16.800781 0 16.03125 0 Z M 5.140625 0 "/></g></g></g><g fill="#203e78" fill-opacity="1"><g transform="translate(225.550827, 196.64571)"><g><path d="M 3.109375 0.296875 C 2.453125 0.296875 1.894531 0.140625 1.4375 -0.171875 C 0.988281 -0.484375 0.710938 -0.910156 0.609375 -1.453125 C 0.503906 -2.003906 0.601562 -2.625 0.90625 -3.3125 L 8.90625 -20.53125 C 9.289062 -21.363281 9.765625 -21.972656 10.328125 -22.359375 C 10.890625 -22.742188 11.535156 -22.9375 12.265625 -22.9375 C 12.992188 -22.9375 13.628906 -22.742188 14.171875 -22.359375 C 14.722656 -21.972656 15.203125 -21.363281 15.609375 -20.53125 L 23.609375 -3.3125 C 23.953125 -2.625 24.078125 -2 23.984375 -1.4375 C 23.890625 -0.882812 23.617188 -0.457031 23.171875 -0.15625 C 22.734375 0.144531 22.195312 0.296875 21.5625 0.296875 C 20.695312 0.296875 20.035156 0.101562 19.578125 -0.28125 C 19.117188 -0.675781 18.707031 -1.300781 18.34375 -2.15625 L 16.609375 -6.234375 L 18.859375 -4.59375 L 5.625 -4.59375 L 7.90625 -6.234375 L 6.171875 -2.15625 C 5.785156 -1.300781 5.390625 -0.675781 4.984375 -0.28125 C 4.578125 0.101562 3.953125 0.296875 3.109375 0.296875 Z M 12.203125 -16.484375 L 8.484375 -7.578125 L 7.578125 -9.125 L 16.9375 -9.125 L 16.03125 -7.578125 L 12.265625 -16.484375 Z M 12.203125 -16.484375 "/></g></g></g><g fill="#203e78" fill-opacity="1"><g transform="translate(248.548764, 196.64571)"><g><path d="M 4.8125 0.296875 C 3.914062 0.296875 3.234375 0.0625 2.765625 -0.40625 C 2.296875 -0.882812 2.0625 -1.582031 2.0625 -2.5 L 2.0625 -20.015625 C 2.0625 -20.953125 2.296875 -21.671875 2.765625 -22.171875 C 3.234375 -22.679688 3.851562 -22.9375 4.625 -22.9375 C 5.3125 -22.9375 5.847656 -22.804688 6.234375 -22.546875 C 6.617188 -22.296875 7.046875 -21.867188 7.515625 -21.265625 L 17.703125 -8.546875 L 16.796875 -8.546875 L 16.796875 -20.171875 C 16.796875 -21.078125 17.023438 -21.765625 17.484375 -22.234375 C 17.953125 -22.703125 18.632812 -22.9375 19.53125 -22.9375 C 20.425781 -22.9375 21.101562 -22.703125 21.5625 -22.234375 C 22.03125 -21.765625 22.265625 -21.078125 22.265625 -20.171875 L 22.265625 -2.375 C 22.265625 -1.5625 22.050781 -0.910156 21.625 -0.421875 C 21.195312 0.0546875 20.617188 0.296875 19.890625 0.296875 C 19.160156 0.296875 18.585938 0.160156 18.171875 -0.109375 C 17.753906 -0.378906 17.304688 -0.800781 16.828125 -1.375 L 6.65625 -14.140625 L 7.546875 -14.140625 L 7.546875 -2.5 C 7.546875 -1.582031 7.316406 -0.882812 6.859375 -0.40625 C 6.398438 0.0625 5.71875 0.296875 4.8125 0.296875 Z M 4.8125 0.296875 "/></g></g></g><g fill="#203e78" fill-opacity="1"><g transform="translate(271.3861, 196.64571)"><g><path d="M 5.015625 0.296875 C 4.066406 0.296875 3.335938 0.0351562 2.828125 -0.484375 C 2.316406 -1.015625 2.0625 -1.765625 2.0625 -2.734375 L 2.0625 -19.921875 C 2.0625 -20.898438 2.316406 -21.644531 2.828125 -22.15625 C 3.335938 -22.675781 4.066406 -22.9375 5.015625 -22.9375 C 5.972656 -22.9375 6.703125 -22.675781 7.203125 -22.15625 C 7.710938 -21.644531 7.96875 -20.898438 7.96875 -19.921875 L 7.96875 -2.734375 C 7.96875 -1.765625 7.71875 -1.015625 7.21875 -0.484375 C 6.726562 0.0351562 5.992188 0.296875 5.015625 0.296875 Z M 5.015625 0.296875 "/></g></g></g><g fill="#203e78" fill-opacity="1"><g transform="translate(279.897448, 196.64571)"><g><path d="M 4.8125 0.296875 C 3.914062 0.296875 3.234375 0.0625 2.765625 -0.40625 C 2.296875 -0.882812 2.0625 -1.582031 2.0625 -2.5 L 2.0625 -20.015625 C 2.0625 -20.953125 2.296875 -21.671875 2.765625 -22.171875 C 3.234375 -22.679688 3.851562 -22.9375 4.625 -22.9375 C 5.3125 -22.9375 5.847656 -22.804688 6.234375 -22.546875 C 6.617188 -22.296875 7.046875 -21.867188 7.515625 -21.265625 L 17.703125 -8.546875 L 16.796875 -8.546875 L 16.796875 -20.171875 C 16.796875 -21.078125 17.023438 -21.765625 17.484375 -22.234375 C 17.953125 -22.703125 18.632812 -22.9375 19.53125 -22.9375 C 20.425781 -22.9375 21.101562 -22.703125 21.5625 -22.234375 C 22.03125 -21.765625 22.265625 -21.078125 22.265625 -20.171875 L 22.265625 -2.375 C 22.265625 -1.5625 22.050781 -0.910156 21.625 -0.421875 C 21.195312 0.0546875 20.617188 0.296875 19.890625 0.296875 C 19.160156 0.296875 18.585938 0.160156 18.171875 -0.109375 C 17.753906 -0.378906 17.304688 -0.800781 16.828125 -1.375 L 6.65625 -14.140625 L 7.546875 -14.140625 L 7.546875 -2.5 C 7.546875 -1.582031 7.316406 -0.882812 6.859375 -0.40625 C 6.398438 0.0625 5.71875 0.296875 4.8125 0.296875 Z M 4.8125 0.296875 "/></g></g></g><g fill="#203e78" fill-opacity="1"><g transform="translate(302.734784, 196.64571)"><g><path d="M 13.625 0.359375 C 11.03125 0.359375 8.828125 -0.117188 7.015625 -1.078125 C 5.210938 -2.046875 3.835938 -3.394531 2.890625 -5.125 C 1.953125 -6.863281 1.484375 -8.894531 1.484375 -11.21875 C 1.484375 -13.007812 1.765625 -14.628906 2.328125 -16.078125 C 2.898438 -17.523438 3.71875 -18.765625 4.78125 -19.796875 C 5.851562 -20.835938 7.164062 -21.628906 8.71875 -22.171875 C 10.269531 -22.722656 12.03125 -23 14 -23 C 15.070312 -23 16.164062 -22.894531 17.28125 -22.6875 C 18.394531 -22.488281 19.488281 -22.113281 20.5625 -21.5625 C 21.113281 -21.300781 21.488281 -20.9375 21.6875 -20.46875 C 21.894531 -20.007812 21.960938 -19.53125 21.890625 -19.03125 C 21.816406 -18.53125 21.632812 -18.070312 21.34375 -17.65625 C 21.050781 -17.238281 20.660156 -16.957031 20.171875 -16.8125 C 19.679688 -16.675781 19.125 -16.75 18.5 -17.03125 C 17.863281 -17.320312 17.171875 -17.546875 16.421875 -17.703125 C 15.671875 -17.867188 14.875 -17.953125 14.03125 -17.953125 C 12.601562 -17.953125 11.410156 -17.695312 10.453125 -17.1875 C 9.503906 -16.675781 8.789062 -15.914062 8.3125 -14.90625 C 7.84375 -13.894531 7.609375 -12.664062 7.609375 -11.21875 C 7.609375 -9.03125 8.144531 -7.378906 9.21875 -6.265625 C 10.289062 -5.148438 11.875 -4.59375 13.96875 -4.59375 C 14.613281 -4.59375 15.316406 -4.65625 16.078125 -4.78125 C 16.835938 -4.914062 17.601562 -5.097656 18.375 -5.328125 L 17.28125 -3.109375 L 17.28125 -8.609375 L 15.03125 -8.609375 C 14.300781 -8.609375 13.738281 -8.789062 13.34375 -9.15625 C 12.945312 -9.519531 12.75 -10.035156 12.75 -10.703125 C 12.75 -11.359375 12.945312 -11.863281 13.34375 -12.21875 C 13.738281 -12.570312 14.300781 -12.75 15.03125 -12.75 L 19.78125 -12.75 C 20.53125 -12.75 21.101562 -12.550781 21.5 -12.15625 C 21.90625 -11.757812 22.109375 -11.1875 22.109375 -10.4375 L 22.109375 -3.34375 C 22.109375 -2.695312 21.972656 -2.148438 21.703125 -1.703125 C 21.429688 -1.253906 21.007812 -0.929688 20.4375 -0.734375 C 19.425781 -0.390625 18.332031 -0.125 17.15625 0.0625 C 15.976562 0.257812 14.800781 0.359375 13.625 0.359375 Z M 13.625 0.359375 "/></g></g></g></svg>