<svg xmlns="http://www.w3.org/2000/svg" xmlns:xlink="http://www.w3.org/1999/xlink" width="500" zoomAndPan="magnify" viewBox="0 0 375 374.999991" height="500" preserveAspectRatio="xMidYMid meet" version="1.0"><defs><g/><clipPath id="952d74e2c0"><path d="M 149 124 L 164.738281 124 L 164.738281 140 L 149 140 Z M 149 124 " clip-rule="nonzero"/></clipPath><clipPath id="bf263d7e46"><path d="M 137 110.738281 L 147 110.738281 L 147 120 L 137 120 Z M 137 110.738281 " clip-rule="nonzero"/></clipPath></defs><path fill="#0071a8" d="M 100.308594 136.109375 C 115 129.988281 130.054688 128.980469 142.082031 132.316406 C 128.40625 126.253906 109.390625 126.414062 90.914062 134.113281 C 61.617188 146.328125 44.796875 172.839844 53.335938 193.339844 C 59.636719 208.449219 77.964844 216.0625 98.902344 214.132812 C 73.332031 208.109375 67.582031 196.847656 65.28125 191.308594 C 57.3125 172.203125 73 147.484375 100.308594 136.109375 Z M 100.308594 136.109375 " fill-opacity="1" fill-rule="nonzero"/><path fill="#62c7e3" d="M 162.035156 150.992188 C 160.425781 147.128906 157.832031 143.871094 154.515625 141.269531 C 143.59375 132.691406 124.75 131.25 106.542969 138.835938 C 93.171875 144.410156 83.003906 153.660156 77.921875 163.652344 C 83.984375 155.925781 92.902344 149.089844 103.816406 144.542969 C 126.675781 135.023438 150.484375 138.726562 160.550781 152.433594 C 161.722656 154.03125 162.726562 155.757812 163.5 157.617188 C 163.589844 157.835938 163.664062 158.0625 163.746094 158.285156 C 163.570312 155.785156 163.015625 153.34375 162.035156 150.992188 Z M 162.035156 150.992188 " fill-opacity="1" fill-rule="nonzero"/><g clip-path="url(#952d74e2c0)"><path fill="#14bbe2" d="M 164.847656 132.28125 C 159.222656 133.316406 158.386719 134.15625 157.351562 139.78125 C 156.3125 134.15625 155.476562 133.316406 149.851562 132.28125 C 155.476562 131.246094 156.3125 130.40625 157.351562 124.78125 C 158.386719 130.414062 159.222656 131.25 164.847656 132.28125 Z M 164.847656 132.28125 " fill-opacity="1" fill-rule="nonzero"/></g><g clip-path="url(#bf263d7e46)"><path fill="#62c7e3" d="M 146.152344 114.992188 C 143.355469 115.792969 142.699219 116.445312 141.898438 119.242188 C 141.097656 116.445312 140.441406 115.792969 137.644531 114.992188 C 140.441406 114.1875 141.097656 113.535156 141.898438 110.738281 C 142.699219 113.535156 143.355469 114.1875 146.152344 114.992188 Z M 146.152344 114.992188 " fill-opacity="1" fill-rule="nonzero"/></g><path fill="#0071a8" d="M 157.351562 117.839844 C 155.949219 118.242188 155.625 118.570312 155.21875 119.96875 C 154.816406 118.570312 154.488281 118.242188 153.089844 117.839844 C 154.488281 117.433594 154.816406 117.105469 155.21875 115.707031 C 155.625 117.105469 155.949219 117.433594 157.351562 117.839844 Z M 157.351562 117.839844 " fill-opacity="1" fill-rule="nonzero"/><g fill="#0071a8" fill-opacity="1"><g transform="translate(87.710097, 193.630286)"><g><path d="M 1.53125 -21 L 9.1875 -21 C 11.320312 -21 13.050781 -20.445312 14.375 -19.34375 C 15.695312 -18.238281 16.359375 -16.632812 16.359375 -14.53125 C 16.359375 -12.425781 15.6875 -10.773438 14.34375 -9.578125 C 13.007812 -8.378906 11.289062 -7.78125 9.1875 -7.78125 L 6.3125 -7.78125 L 6.3125 0 L 1.53125 0 Z M 6.3125 -11.609375 L 7.65625 -11.609375 C 8.726562 -11.609375 9.609375 -11.820312 10.296875 -12.25 C 10.984375 -12.6875 11.328125 -13.394531 11.328125 -14.375 C 11.328125 -15.375 10.984375 -16.09375 10.296875 -16.53125 C 9.609375 -16.96875 8.726562 -17.1875 7.65625 -17.1875 L 6.3125 -17.1875 Z M 6.3125 -11.609375 "/></g></g></g><g fill="#0071a8" fill-opacity="1"><g transform="translate(104.654115, 193.630286)"><g><path d="M 12.1875 -21 L 20.671875 0 L 15.53125 0 L 13.96875 -4.203125 L 5.984375 -4.203125 L 4.421875 0 L -0.71875 0 L 7.765625 -21 Z M 12.34375 -8.40625 L 10 -14.515625 L 9.953125 -14.515625 L 7.609375 -8.40625 Z M 12.34375 -8.40625 "/></g></g></g><g fill="#0071a8" fill-opacity="1"><g transform="translate(124.600228, 193.630286)"><g><path d="M 6.3125 -21 L 6.3125 -4.203125 L 13.546875 -4.203125 L 13.546875 0 L 1.53125 0 L 1.53125 -21 Z M 6.3125 -21 "/></g></g></g><g fill="#0071a8" fill-opacity="1"><g transform="translate(138.974658, 193.630286)"><g><path d="M 18.890625 0 L 17.890625 -12.453125 L 17.765625 -12.453125 L 13.46875 -0.125 L 10.609375 -0.125 L 6.3125 -12.453125 L 6.1875 -12.453125 L 5.1875 0 L 0.40625 0 L 2.296875 -21 L 7.375 -21 L 12.046875 -8.890625 L 16.703125 -21 L 21.78125 -21 L 23.671875 0 Z M 18.890625 0 "/></g></g></g><g fill="#0071a8" fill-opacity="1"><g transform="translate(163.04228, 193.630286)"><g><path d="M 12.1875 -21 L 20.671875 0 L 15.53125 0 L 13.96875 -4.203125 L 5.984375 -4.203125 L 4.421875 0 L -0.71875 0 L 7.765625 -21 Z M 12.34375 -8.40625 L 10 -14.515625 L 9.953125 -14.515625 L 7.609375 -8.40625 Z M 12.34375 -8.40625 "/></g></g></g><g fill="#0071a8" fill-opacity="1"><g transform="translate(182.988392, 193.630286)"><g/></g></g><g fill="#0071a8" fill-opacity="1"><g transform="translate(189.933914, 193.630286)"><g><path d="M 12.703125 -4.328125 C 13.429688 -4.328125 14.140625 -4.4375 14.828125 -4.65625 C 15.515625 -4.875 16.019531 -5.085938 16.34375 -5.296875 L 16.828125 -5.625 L 18.859375 -1.546875 C 18.796875 -1.492188 18.703125 -1.425781 18.578125 -1.34375 C 18.460938 -1.257812 18.1875 -1.101562 17.75 -0.875 C 17.320312 -0.644531 16.859375 -0.445312 16.359375 -0.28125 C 15.867188 -0.113281 15.222656 0.0351562 14.421875 0.171875 C 13.628906 0.304688 12.8125 0.375 11.96875 0.375 C 10.007812 0.375 8.15625 -0.101562 6.40625 -1.0625 C 4.664062 -2.019531 3.257812 -3.335938 2.1875 -5.015625 C 1.113281 -6.691406 0.578125 -8.507812 0.578125 -10.46875 C 0.578125 -11.9375 0.890625 -13.347656 1.515625 -14.703125 C 2.148438 -16.066406 2.988281 -17.234375 4.03125 -18.203125 C 5.070312 -19.171875 6.289062 -19.941406 7.6875 -20.515625 C 9.082031 -21.085938 10.507812 -21.375 11.96875 -21.375 C 13.320312 -21.375 14.570312 -21.210938 15.71875 -20.890625 C 16.863281 -20.566406 17.671875 -20.25 18.140625 -19.9375 L 18.859375 -19.453125 L 16.828125 -15.375 C 16.703125 -15.476562 16.519531 -15.597656 16.28125 -15.734375 C 16.050781 -15.878906 15.578125 -16.070312 14.859375 -16.3125 C 14.148438 -16.550781 13.429688 -16.671875 12.703125 -16.671875 C 11.546875 -16.671875 10.507812 -16.484375 9.59375 -16.109375 C 8.675781 -15.734375 7.953125 -15.238281 7.421875 -14.625 C 6.890625 -14.019531 6.484375 -13.363281 6.203125 -12.65625 C 5.921875 -11.957031 5.78125 -11.242188 5.78125 -10.515625 C 5.78125 -8.921875 6.375 -7.488281 7.5625 -6.21875 C 8.757812 -4.957031 10.472656 -4.328125 12.703125 -4.328125 Z M 12.703125 -4.328125 "/></g></g></g><g fill="#0071a8" fill-opacity="1"><g transform="translate(209.091334, 193.630286)"><g><path d="M 6.3125 -21 L 6.3125 -4.203125 L 13.546875 -4.203125 L 13.546875 0 L 1.53125 0 L 1.53125 -21 Z M 6.3125 -21 "/></g></g></g><g fill="#0071a8" fill-opacity="1"><g transform="translate(223.465764, 193.630286)"><g><path d="M 13.546875 -21 L 13.546875 -16.796875 L 6.3125 -16.796875 L 6.3125 -12.625 L 13.234375 -12.625 L 13.234375 -8.421875 L 6.3125 -8.421875 L 6.3125 -4.203125 L 13.546875 -4.203125 L 13.546875 0 L 1.53125 0 L 1.53125 -21 Z M 13.546875 -21 "/></g></g></g><g fill="#0071a8" fill-opacity="1"><g transform="translate(238.22181, 193.630286)"><g><path d="M 12.1875 -21 L 20.671875 0 L 15.53125 0 L 13.96875 -4.203125 L 5.984375 -4.203125 L 4.421875 0 L -0.71875 0 L 7.765625 -21 Z M 12.34375 -8.40625 L 10 -14.515625 L 9.953125 -14.515625 L 7.609375 -8.40625 Z M 12.34375 -8.40625 "/></g></g></g><g fill="#0071a8" fill-opacity="1"><g transform="translate(258.167922, 193.630286)"><g><path d="M 6.3125 -13.03125 L 6.3125 0 L 1.53125 0 L 1.53125 -21 L 6.3125 -21 L 14.65625 -7.96875 L 14.71875 -7.96875 L 14.71875 -21 L 19.5 -21 L 19.5 0 L 14.71875 0 L 6.359375 -13.03125 Z M 6.3125 -13.03125 "/></g></g></g><g fill="#0071a8" fill-opacity="1"><g transform="translate(279.182569, 193.630286)"><g><path d="M 6.3125 -21 L 6.3125 0 L 1.53125 0 L 1.53125 -21 Z M 6.3125 -21 "/></g></g></g><g fill="#0071a8" fill-opacity="1"><g transform="translate(287.018555, 193.630286)"><g><path d="M 6.3125 -13.03125 L 6.3125 0 L 1.53125 0 L 1.53125 -21 L 6.3125 -21 L 14.65625 -7.96875 L 14.71875 -7.96875 L 14.71875 -21 L 19.5 -21 L 19.5 0 L 14.71875 0 L 6.359375 -13.03125 Z M 6.3125 -13.03125 "/></g></g></g><g fill="#0071a8" fill-opacity="1"><g transform="translate(308.033202, 193.630286)"><g><path d="M 20.515625 -11.765625 L 20.515625 -7.203125 C 19.972656 -4.710938 18.785156 -2.828125 16.953125 -1.546875 C 15.117188 -0.265625 13.070312 0.375 10.8125 0.375 C 7.976562 0.375 5.5625 -0.679688 3.5625 -2.796875 C 1.570312 -4.921875 0.578125 -7.484375 0.578125 -10.484375 C 0.578125 -13.535156 1.550781 -16.113281 3.5 -18.21875 C 5.457031 -20.320312 7.894531 -21.375 10.8125 -21.375 C 14.226562 -21.375 16.925781 -20.179688 18.90625 -17.796875 L 15.78125 -14.359375 C 14.65625 -16.148438 13.09375 -17.046875 11.09375 -17.046875 C 9.625 -17.046875 8.363281 -16.40625 7.3125 -15.125 C 6.269531 -13.84375 5.75 -12.296875 5.75 -10.484375 C 5.75 -8.703125 6.269531 -7.175781 7.3125 -5.90625 C 8.363281 -4.644531 9.625 -4.015625 11.09375 -4.015625 C 12.320312 -4.015625 13.390625 -4.382812 14.296875 -5.125 C 15.203125 -5.863281 15.65625 -6.84375 15.65625 -8.0625 L 10.8125 -8.0625 L 10.8125 -11.765625 Z M 20.515625 -11.765625 "/></g></g></g><g fill="#5b5b5b" fill-opacity="1"><g transform="translate(180.716551, 212.562394)"><g><path d="M 3.90625 -1.8125 C 3.90625 -2.164062 3.804688 -2.4375 3.609375 -2.625 C 3.421875 -2.820312 3.070312 -3.007812 2.5625 -3.1875 C 2.0625 -3.375 1.675781 -3.566406 1.40625 -3.765625 C 1.132812 -3.960938 0.929688 -4.1875 0.796875 -4.4375 C 0.671875 -4.695312 0.609375 -4.988281 0.609375 -5.3125 C 0.609375 -5.882812 0.796875 -6.351562 1.171875 -6.71875 C 1.554688 -7.09375 2.054688 -7.28125 2.671875 -7.28125 C 3.085938 -7.28125 3.457031 -7.179688 3.78125 -6.984375 C 4.113281 -6.796875 4.367188 -6.535156 4.546875 -6.203125 C 4.722656 -5.867188 4.8125 -5.5 4.8125 -5.09375 L 3.90625 -5.09375 C 3.90625 -5.539062 3.796875 -5.882812 3.578125 -6.125 C 3.367188 -6.375 3.066406 -6.5 2.671875 -6.5 C 2.304688 -6.5 2.019531 -6.394531 1.8125 -6.1875 C 1.613281 -5.988281 1.515625 -5.703125 1.515625 -5.328125 C 1.515625 -5.023438 1.625 -4.769531 1.84375 -4.5625 C 2.0625 -4.363281 2.394531 -4.1875 2.84375 -4.03125 C 3.550781 -3.789062 4.054688 -3.5 4.359375 -3.15625 C 4.660156 -2.820312 4.8125 -2.378906 4.8125 -1.828125 C 4.8125 -1.242188 4.625 -0.773438 4.25 -0.421875 C 3.875 -0.078125 3.359375 0.09375 2.703125 0.09375 C 2.285156 0.09375 1.898438 0.00390625 1.546875 -0.171875 C 1.203125 -0.359375 0.925781 -0.613281 0.71875 -0.9375 C 0.519531 -1.269531 0.421875 -1.648438 0.421875 -2.078125 L 1.328125 -2.078125 C 1.328125 -1.640625 1.445312 -1.296875 1.6875 -1.046875 C 1.9375 -0.796875 2.273438 -0.671875 2.703125 -0.671875 C 3.109375 -0.671875 3.410156 -0.769531 3.609375 -0.96875 C 3.804688 -1.175781 3.90625 -1.457031 3.90625 -1.8125 Z M 3.90625 -1.8125 "/></g></g></g><g fill="#5b5b5b" fill-opacity="1"><g transform="translate(188.185088, 212.562394)"><g><path d="M 4.21875 -3.3125 L 1.671875 -3.3125 L 1.671875 -0.78125 L 4.640625 -0.78125 L 4.640625 0 L 0.78125 0 L 0.78125 -7.171875 L 4.578125 -7.171875 L 4.578125 -6.390625 L 1.671875 -6.390625 L 1.671875 -4.09375 L 4.21875 -4.09375 Z M 4.21875 -3.3125 "/></g></g></g><g fill="#5b5b5b" fill-opacity="1"><g transform="translate(195.436852, 212.562394)"><g><path d="M 2.9375 -2.90625 L 1.6875 -2.90625 L 1.6875 0 L 0.78125 0 L 0.78125 -7.171875 L 2.78125 -7.171875 C 3.488281 -7.171875 4.019531 -6.988281 4.375 -6.625 C 4.738281 -6.257812 4.921875 -5.722656 4.921875 -5.015625 C 4.921875 -4.578125 4.820312 -4.191406 4.625 -3.859375 C 4.4375 -3.523438 4.160156 -3.273438 3.796875 -3.109375 L 5.1875 -0.0625 L 5.1875 0 L 4.21875 0 Z M 1.6875 -3.671875 L 2.78125 -3.671875 C 3.15625 -3.671875 3.453125 -3.789062 3.671875 -4.03125 C 3.898438 -4.28125 4.015625 -4.609375 4.015625 -5.015625 C 4.015625 -5.929688 3.597656 -6.390625 2.765625 -6.390625 L 1.6875 -6.390625 Z M 1.6875 -3.671875 "/></g></g></g><g fill="#5b5b5b" fill-opacity="1"><g transform="translate(203.033484, 212.562394)"><g><path d="M 2.828125 -1.390625 L 4.46875 -7.171875 L 5.453125 -7.171875 L 3.21875 0 L 2.4375 0 L 0.203125 -7.171875 L 1.1875 -7.171875 Z M 2.828125 -1.390625 "/></g></g></g><g fill="#5b5b5b" fill-opacity="1"><g transform="translate(210.925715, 212.562394)"><g><path d="M 1.71875 0 L 0.8125 0 L 0.8125 -7.171875 L 1.71875 -7.171875 Z M 1.71875 0 "/></g></g></g><g fill="#5b5b5b" fill-opacity="1"><g transform="translate(215.689498, 212.562394)"><g><path d="M 5.28125 -2.28125 C 5.238281 -1.507812 5.019531 -0.921875 4.625 -0.515625 C 4.226562 -0.109375 3.675781 0.09375 2.96875 0.09375 C 2.238281 0.09375 1.660156 -0.175781 1.234375 -0.71875 C 0.816406 -1.269531 0.609375 -2.015625 0.609375 -2.953125 L 0.609375 -4.25 C 0.609375 -5.175781 0.828125 -5.910156 1.265625 -6.453125 C 1.703125 -7.003906 2.296875 -7.28125 3.046875 -7.28125 C 3.734375 -7.28125 4.265625 -7.070312 4.640625 -6.65625 C 5.023438 -6.238281 5.238281 -5.644531 5.28125 -4.875 L 4.359375 -4.875 C 4.316406 -5.457031 4.191406 -5.875 3.984375 -6.125 C 3.785156 -6.375 3.472656 -6.5 3.046875 -6.5 C 2.554688 -6.5 2.175781 -6.304688 1.90625 -5.921875 C 1.644531 -5.535156 1.515625 -4.972656 1.515625 -4.234375 L 1.515625 -2.921875 C 1.515625 -2.191406 1.632812 -1.632812 1.875 -1.25 C 2.125 -0.863281 2.484375 -0.671875 2.953125 -0.671875 C 3.429688 -0.671875 3.769531 -0.785156 3.96875 -1.015625 C 4.175781 -1.253906 4.304688 -1.675781 4.359375 -2.28125 Z M 5.28125 -2.28125 "/></g></g></g><g fill="#5b5b5b" fill-opacity="1"><g transform="translate(223.650703, 212.562394)"><g><path d="M 4.21875 -3.3125 L 1.671875 -3.3125 L 1.671875 -0.78125 L 4.640625 -0.78125 L 4.640625 0 L 0.78125 0 L 0.78125 -7.171875 L 4.578125 -7.171875 L 4.578125 -6.390625 L 1.671875 -6.390625 L 1.671875 -4.09375 L 4.21875 -4.09375 Z M 4.21875 -3.3125 "/></g></g></g><g fill="#5b5b5b" fill-opacity="1"><g transform="translate(230.902466, 212.562394)"><g><path d="M 3.90625 -1.8125 C 3.90625 -2.164062 3.804688 -2.4375 3.609375 -2.625 C 3.421875 -2.820312 3.070312 -3.007812 2.5625 -3.1875 C 2.0625 -3.375 1.675781 -3.566406 1.40625 -3.765625 C 1.132812 -3.960938 0.929688 -4.1875 0.796875 -4.4375 C 0.671875 -4.695312 0.609375 -4.988281 0.609375 -5.3125 C 0.609375 -5.882812 0.796875 -6.351562 1.171875 -6.71875 C 1.554688 -7.09375 2.054688 -7.28125 2.671875 -7.28125 C 3.085938 -7.28125 3.457031 -7.179688 3.78125 -6.984375 C 4.113281 -6.796875 4.367188 -6.535156 4.546875 -6.203125 C 4.722656 -5.867188 4.8125 -5.5 4.8125 -5.09375 L 3.90625 -5.09375 C 3.90625 -5.539062 3.796875 -5.882812 3.578125 -6.125 C 3.367188 -6.375 3.066406 -6.5 2.671875 -6.5 C 2.304688 -6.5 2.019531 -6.394531 1.8125 -6.1875 C 1.613281 -5.988281 1.515625 -5.703125 1.515625 -5.328125 C 1.515625 -5.023438 1.625 -4.769531 1.84375 -4.5625 C 2.0625 -4.363281 2.394531 -4.1875 2.84375 -4.03125 C 3.550781 -3.789062 4.054688 -3.5 4.359375 -3.15625 C 4.660156 -2.820312 4.8125 -2.378906 4.8125 -1.828125 C 4.8125 -1.242188 4.625 -0.773438 4.25 -0.421875 C 3.875 -0.078125 3.359375 0.09375 2.703125 0.09375 C 2.285156 0.09375 1.898438 0.00390625 1.546875 -0.171875 C 1.203125 -0.359375 0.925781 -0.613281 0.71875 -0.9375 C 0.519531 -1.269531 0.421875 -1.648438 0.421875 -2.078125 L 1.328125 -2.078125 C 1.328125 -1.640625 1.445312 -1.296875 1.6875 -1.046875 C 1.9375 -0.796875 2.273438 -0.671875 2.703125 -0.671875 C 3.109375 -0.671875 3.410156 -0.769531 3.609375 -0.96875 C 3.804688 -1.175781 3.90625 -1.457031 3.90625 -1.8125 Z M 3.90625 -1.8125 "/></g></g></g></svg>