<svg width="168" height="48" viewBox="0 0 168 48" fill="none" xmlns="http://www.w3.org/2000/svg">
<g clip-path="url(#clip0_1_121)">
<path fill-rule="evenodd" clip-rule="evenodd" d="M0 40.3021C1.99777 46.0897 27.4347 55.9949 41.1328 36.4213C42.8597 34.2814 42.6709 32.6575 40.3299 34.5299L33.2505 40.1953C32.9329 40.4485 32.4702 40.3961 32.2173 40.0787C31.9643 39.7608 32.0161 39.2976 32.3337 39.0444L44.0007 29.7072C47.493 26.9151 45.9846 23.6469 42.7386 26.2449L30.5622 35.7465C30.2446 35.9997 29.7819 35.9473 29.5289 35.6299C29.276 35.312 29.3283 34.8488 29.6454 34.5956L44.4876 22.7179C46.3366 21.2862 45.389 18.7632 41.495 20.7095C35.5412 23.6855 26.9843 31.7332 20.342 34.6567C15.3321 36.8619 14.8299 35.6166 15.8955 33.9974C16.4111 32.5291 25.9992 27.3064 23.5249 25.1588C22.095 23.9176 7.05581 33.3852 0 40.3021Z" fill="#00715D"/>
<path fill-rule="evenodd" clip-rule="evenodd" d="M51 7.69795C49.0023 1.91036 23.5656 -7.99479 9.86763 11.5783C8.14076 13.7182 8.32956 15.342 10.6705 13.4696L17.7499 7.80477C18.0679 7.5516 18.5302 7.60346 18.7831 7.92134C19.036 8.23923 18.9837 8.70244 18.6666 8.95561L6.99926 18.2923C3.50705 21.0844 5.01537 24.3526 8.26132 21.7546L20.4381 12.2531C20.7557 11.9999 21.2185 12.0523 21.4714 12.3696C21.7243 12.6875 21.6725 13.1507 21.3549 13.4039L6.5124 25.2821C4.66343 26.7138 5.611 29.2368 9.50491 27.2905C15.4592 24.3146 24.016 16.2664 30.6583 13.3433C35.668 11.1382 36.1703 12.3835 35.1047 14.0027C34.5891 15.4709 25.0011 20.6936 27.4754 22.8417C28.9052 24.0819 43.9443 14.6143 51 7.69795Z" fill="#FDD65B"/>
</g>
<path d="M79.131 22.528C79.131 22.0909 79.0677 21.6989 78.9412 21.3519C78.8146 20.992 78.5805 20.6578 78.2387 20.3493C77.897 20.0408 77.4034 19.7323 76.7579 19.4238C76.1251 19.1025 75.2897 18.7683 74.2519 18.4213C73.0368 18.01 71.8661 17.5472 70.7397 17.0331C69.6132 16.5061 68.607 15.8956 67.7211 15.2015C66.8351 14.4945 66.1326 13.6719 65.6137 12.7336C65.0948 11.7825 64.8353 10.6771 64.8353 9.41742C64.8353 8.20919 65.1011 7.12307 65.6327 6.15906C66.1643 5.1822 66.9047 4.35315 67.8539 3.67192C68.8159 2.97783 69.9423 2.45084 71.2333 2.09094C72.5242 1.71819 73.9355 1.53181 75.4669 1.53181C77.492 1.53181 79.2766 1.89171 80.8207 2.6115C82.3774 3.31844 83.5925 4.32744 84.4658 5.6385C85.3518 6.9367 85.7947 8.47269 85.7947 10.2465H79.169C79.169 9.53952 79.0234 8.91613 78.7323 8.37629C78.4539 7.83644 78.0299 7.41227 77.4603 7.10379C76.8908 6.79531 76.1757 6.64107 75.315 6.64107C74.4797 6.64107 73.7773 6.7696 73.2077 7.02667C72.6382 7.28374 72.2078 7.63078 71.9167 8.0678C71.6256 8.49197 71.4801 8.96112 71.4801 9.47526C71.4801 9.89942 71.594 10.285 71.8218 10.6321C72.0623 10.9663 72.3977 11.2812 72.828 11.5768C73.271 11.8724 73.8026 12.1552 74.4227 12.4251C75.0556 12.6951 75.7643 12.9585 76.5491 13.2156C78.0172 13.6912 79.3209 14.2246 80.46 14.8159C81.6117 15.3943 82.5799 16.0562 83.3647 16.8017C84.162 17.5344 84.7632 18.3699 85.1682 19.3082C85.5859 20.2465 85.7947 21.3069 85.7947 22.4894C85.7947 23.749 85.5543 24.8673 85.0733 25.8442C84.5924 26.821 83.9026 27.6501 83.0039 28.3313C82.1053 28.9997 81.0295 29.5074 79.7765 29.8544C78.5235 30.2015 77.1249 30.375 75.5808 30.375C74.1633 30.375 72.7647 30.1951 71.3852 29.8352C70.0182 29.4624 68.7779 28.8969 67.6641 28.1385C66.5503 27.3673 65.658 26.384 64.9872 25.1886C64.3291 23.9804 64 22.5472 64 20.8891H70.6827C70.6827 21.7118 70.7903 22.4058 71.0055 22.9714C71.2206 23.537 71.537 23.9933 71.9547 24.3403C72.3724 24.6745 72.885 24.9187 73.4925 25.0729C74.1 25.2143 74.7961 25.285 75.5808 25.285C76.4288 25.285 77.1123 25.1629 77.6312 24.9187C78.1501 24.6616 78.5298 24.3274 78.7703 23.9161C79.0108 23.492 79.131 23.0292 79.131 22.528Z" fill="#1A1A1A"/>
<path d="M99.7487 9.12821V13.6398H87.3705V9.12821H99.7487ZM89.9714 3.94184H96.3694V23.1835C96.3694 23.7362 96.4326 24.1668 96.5592 24.4753C96.6858 24.7709 96.9009 24.983 97.2047 25.1115C97.5211 25.2272 97.9388 25.285 98.4577 25.285C98.8247 25.285 99.1285 25.2786 99.369 25.2657C99.6095 25.24 99.8373 25.2079 100.052 25.1693V29.8159C99.5082 29.9958 98.9387 30.1308 98.3438 30.2208C97.7489 30.3236 97.1161 30.375 96.4453 30.375C95.0784 30.375 93.9076 30.1565 92.9331 29.7195C91.9712 29.2825 91.2371 28.5948 90.7308 27.6565C90.2246 26.7182 89.9714 25.4971 89.9714 23.9933V3.94184Z" fill="#1A1A1A"/>
<path d="M109.051 9.12821V29.9894H102.634V9.12821H109.051ZM102.255 3.74904C102.255 2.82359 102.584 2.06523 103.242 1.47397C103.9 0.882712 104.754 0.587082 105.805 0.587082C106.855 0.587082 107.71 0.882712 108.368 1.47397C109.026 2.06523 109.355 2.82359 109.355 3.74904C109.355 4.67449 109.026 5.43284 108.368 6.0241C107.71 6.61536 106.855 6.91099 105.805 6.91099C104.754 6.91099 103.9 6.61536 103.242 6.0241C102.584 5.43284 102.255 4.67449 102.255 3.74904Z" fill="#1A1A1A"/>
<path d="M123.822 9.12821V13.6398H111.443V9.12821H123.822ZM114.044 3.94184H120.442V23.1835C120.442 23.7362 120.506 24.1668 120.632 24.4753C120.759 24.7709 120.974 24.983 121.278 25.1115C121.594 25.2272 122.012 25.285 122.531 25.285C122.898 25.285 123.201 25.2786 123.442 25.2657C123.682 25.24 123.91 25.2079 124.125 25.1693V29.8159C123.581 29.9958 123.012 30.1308 122.417 30.2208C121.822 30.3236 121.189 30.375 120.518 30.375C119.151 30.375 117.981 30.1565 117.006 29.7195C116.044 29.2825 115.31 28.5948 114.804 27.6565C114.297 26.7182 114.044 25.4971 114.044 23.9933V3.94184Z" fill="#1A1A1A"/>
<path d="M135.042 25.3621C135.637 25.3621 136.143 25.2529 136.561 25.0344C136.991 24.803 137.314 24.4817 137.529 24.0704C137.757 23.6462 137.864 23.1385 137.852 22.5472H143.87C143.882 24.1154 143.503 25.4907 142.731 26.6732C141.971 27.8429 140.933 28.7555 139.617 29.411C138.313 30.0537 136.839 30.375 135.194 30.375C133.586 30.375 132.181 30.1115 130.979 29.5845C129.777 29.0447 128.77 28.2992 127.96 27.348C127.163 26.384 126.562 25.2593 126.157 23.974C125.764 22.6886 125.568 21.294 125.568 19.7902V19.3467C125.568 17.8429 125.764 16.4483 126.157 15.1629C126.562 13.8647 127.163 12.74 127.96 11.7889C128.77 10.8249 129.77 10.0794 130.96 9.55238C132.162 9.01253 133.561 8.74261 135.156 8.74261C136.864 8.74261 138.37 9.07037 139.674 9.7259C140.99 10.3814 142.022 11.3326 142.769 12.5794C143.515 13.8262 143.882 15.3364 143.87 17.1102H137.852C137.864 16.4804 137.769 15.9148 137.567 15.4136C137.364 14.9123 137.048 14.5138 136.617 14.2182C136.2 13.9097 135.662 13.7555 135.004 13.7555C134.346 13.7555 133.814 13.9033 133.409 14.1989C133.004 14.4945 132.694 14.9058 132.479 15.4328C132.276 15.947 132.137 16.5382 132.061 17.2066C131.998 17.875 131.966 18.5884 131.966 19.3467V19.7902C131.966 20.5614 131.998 21.2876 132.061 21.9688C132.137 22.6372 132.283 23.2285 132.498 23.7426C132.713 24.2439 133.023 24.6424 133.428 24.938C133.833 25.2208 134.371 25.3621 135.042 25.3621Z" fill="#1A1A1A"/>
<path d="M152.869 0.375V29.9894H146.471V0.375H152.869ZM152.109 18.8454L150.609 18.884C150.609 17.4187 150.787 16.0691 151.141 14.8352C151.495 13.6012 152.002 12.528 152.66 11.6154C153.318 10.7028 154.109 9.99582 155.033 9.49454C155.957 8.99325 156.982 8.74261 158.108 8.74261C159.121 8.74261 160.045 8.89042 160.88 9.18605C161.728 9.48168 162.456 9.95726 163.064 10.6128C163.684 11.2683 164.158 12.1231 164.487 13.1771C164.829 14.231 165 15.5164 165 17.0331V29.9894H158.564V16.9945C158.564 16.1462 158.444 15.4907 158.203 15.028C157.976 14.5524 157.646 14.2246 157.216 14.0447C156.786 13.8519 156.261 13.7555 155.64 13.7555C154.894 13.7555 154.286 13.884 153.818 14.1411C153.35 14.3981 152.989 14.758 152.736 15.2208C152.495 15.6706 152.331 16.204 152.242 16.821C152.154 17.438 152.109 18.1128 152.109 18.8454Z" fill="#1A1A1A"/>
<path d="M71.4367 35.2835V44.776H69.6824L65.748 38.1912V44.776H64V35.2835H65.748L69.6951 41.8747V35.2835H71.4367Z" fill="#767676"/>
<path d="M72.7906 41.3206V41.1837C72.7906 40.6665 72.8626 40.1905 73.0067 39.7559C73.1508 39.3169 73.3606 38.9366 73.636 38.615C73.9114 38.2933 74.2483 38.0434 74.6466 37.8652C75.0449 37.6827 75.4983 37.5914 76.0068 37.5914C76.5238 37.5914 76.9815 37.6827 77.3798 37.8652C77.7823 38.0434 78.1213 38.2933 78.3968 38.615C78.6722 38.9366 78.882 39.3169 79.026 39.7559C79.1701 40.1905 79.2421 40.6665 79.2421 41.1837V41.3206C79.2421 41.8335 79.1701 42.3094 79.026 42.7484C78.882 43.183 78.6722 43.5633 78.3968 43.8893C78.1213 44.2109 77.7845 44.4608 77.3861 44.639C76.9878 44.8172 76.5323 44.9063 76.0196 44.9063C75.5111 44.9063 75.0555 44.8172 74.653 44.639C74.2504 44.4608 73.9114 44.2109 73.636 43.8893C73.3606 43.5633 73.1508 43.183 73.0067 42.7484C72.8626 42.3094 72.7906 41.8335 72.7906 41.3206ZM74.4686 41.1837V41.3206C74.4686 41.6292 74.4983 41.9182 74.5576 42.1877C74.617 42.4572 74.7081 42.694 74.8309 42.8983C74.9538 43.1026 75.1127 43.2634 75.3077 43.3808C75.5068 43.4938 75.7441 43.5503 76.0196 43.5503C76.2908 43.5503 76.5238 43.4938 76.7187 43.3808C76.9137 43.2634 77.0726 43.1026 77.1955 42.8983C77.3226 42.694 77.4158 42.4572 77.4751 42.1877C77.5344 41.9182 77.5641 41.6292 77.5641 41.3206V41.1837C77.5641 40.8794 77.5344 40.5947 77.4751 40.3296C77.4158 40.0601 77.3226 39.8233 77.1955 39.619C77.0726 39.4104 76.9115 39.2474 76.7124 39.13C76.5175 39.0083 76.2823 38.9475 76.0068 38.9475C75.7356 38.9475 75.5026 39.0083 75.3077 39.13C75.1127 39.2474 74.9538 39.4104 74.8309 39.619C74.7081 39.8233 74.617 40.0601 74.5576 40.3296C74.4983 40.5947 74.4686 40.8794 74.4686 41.1837Z" fill="#767676"/>
<path d="M82.1088 39.2278V44.776H80.4308V37.7218H82.0071L82.1088 39.2278ZM81.8418 40.9946H81.346C81.3503 40.4817 81.4181 40.0167 81.5494 39.5994C81.6808 39.1822 81.8651 38.8236 82.1024 38.5237C82.344 38.2238 82.63 37.9934 82.9605 37.8326C83.291 37.6718 83.6597 37.5914 84.0665 37.5914C84.397 37.5914 84.6958 37.6392 84.9627 37.7348C85.2297 37.8304 85.4585 37.9826 85.6492 38.1912C85.8441 38.3998 85.9924 38.6736 86.0941 39.0127C86.2001 39.3473 86.253 39.7602 86.253 40.2514V44.776H84.5623V40.2383C84.5623 39.9167 84.5157 39.6624 84.4224 39.4756C84.3335 39.2887 84.2021 39.1561 84.0284 39.0779C83.8589 38.9996 83.6491 38.9605 83.3991 38.9605C83.1406 38.9605 82.9139 39.0148 82.719 39.1235C82.5283 39.2278 82.3673 39.3734 82.2359 39.5603C82.1088 39.7472 82.0113 39.9623 81.9435 40.2057C81.8757 40.4491 81.8418 40.7121 81.8418 40.9946Z" fill="#767676"/>
<path d="M91.0774 40.0297V41.3923H87.6005V40.0297H91.0774Z" fill="#767676"/>
<path d="M94.1919 39.0779V47.4881H92.5075V37.7218H94.0648L94.1919 39.0779ZM98.6095 41.1772V41.3141C98.6095 41.8269 98.5501 42.3029 98.4315 42.7419C98.3171 43.1765 98.1476 43.5568 97.923 43.8828C97.6984 44.2044 97.4187 44.4565 97.084 44.639C96.7535 44.8172 96.3721 44.9063 95.9399 44.9063C95.5161 44.9063 95.1475 44.8238 94.8339 44.6586C94.5203 44.4891 94.2555 44.25 94.0394 43.9414C93.8232 43.6329 93.6495 43.2743 93.5182 42.8657C93.391 42.4528 93.2957 42.003 93.2321 41.5162V41.0794C93.2957 40.5621 93.391 40.0927 93.5182 39.6711C93.6495 39.2452 93.8232 38.8779 94.0394 38.5693C94.2555 38.2564 94.5182 38.0152 94.8275 37.8457C95.1411 37.6762 95.5076 37.5914 95.9271 37.5914C96.3636 37.5914 96.7471 37.6762 97.0776 37.8457C97.4124 38.0152 97.6942 38.2586 97.923 38.5759C98.1518 38.8931 98.3234 39.2713 98.4378 39.7103C98.5523 40.1492 98.6095 40.6382 98.6095 41.1772ZM96.9251 41.3141V41.1772C96.9251 40.8642 96.8975 40.5752 96.8424 40.3101C96.7874 40.0406 96.7026 39.8059 96.5882 39.6059C96.4738 39.4017 96.3255 39.243 96.1433 39.13C95.961 39.017 95.7407 38.9605 95.4822 38.9605C95.2237 38.9605 95.0013 39.004 94.8148 39.0909C94.6284 39.1778 94.4758 39.3017 94.3572 39.4625C94.2385 39.6233 94.1453 39.8146 94.0775 40.0362C94.0139 40.2536 93.9716 40.4948 93.9504 40.7599V41.8422C93.9885 42.1638 94.0627 42.4528 94.1728 42.7093C94.283 42.9657 94.444 43.17 94.6559 43.3221C94.872 43.4742 95.1517 43.5503 95.4949 43.5503C95.7534 43.5503 95.9738 43.4916 96.156 43.3742C96.3382 43.2569 96.4865 43.0961 96.6009 42.8918C96.7153 42.6832 96.7979 42.4441 96.8488 42.1746C96.8996 41.9052 96.9251 41.6183 96.9251 41.3141Z" fill="#767676"/>
<path d="M101.514 39.1626V44.776H99.8362V37.7218H101.425L101.514 39.1626ZM103.605 37.6762L103.58 39.28C103.487 39.2626 103.381 39.2495 103.262 39.2408C103.148 39.2322 103.04 39.2278 102.938 39.2278C102.68 39.2278 102.453 39.2648 102.258 39.3386C102.063 39.4082 101.9 39.5103 101.768 39.6451C101.641 39.7798 101.544 39.945 101.476 40.1405C101.408 40.3318 101.37 40.5491 101.362 40.7925L100.999 40.7469C100.999 40.2992 101.044 39.8841 101.133 39.5016C101.222 39.1191 101.351 38.7845 101.521 38.4976C101.69 38.2108 101.902 37.9891 102.156 37.8326C102.415 37.6718 102.711 37.5914 103.046 37.5914C103.139 37.5914 103.239 37.6001 103.345 37.6175C103.455 37.6305 103.542 37.6501 103.605 37.6762Z" fill="#767676"/>
<path d="M104.05 41.3206V41.1837C104.05 40.6665 104.122 40.1905 104.266 39.7559C104.411 39.3169 104.62 38.9366 104.896 38.615C105.171 38.2933 105.508 38.0434 105.906 37.8652C106.305 37.6827 106.758 37.5914 107.267 37.5914C107.784 37.5914 108.241 37.6827 108.64 37.8652C109.042 38.0434 109.381 38.2933 109.657 38.615C109.932 38.9366 110.142 39.3169 110.286 39.7559C110.43 40.1905 110.502 40.6665 110.502 41.1837V41.3206C110.502 41.8335 110.43 42.3094 110.286 42.7484C110.142 43.183 109.932 43.5633 109.657 43.8893C109.381 44.2109 109.044 44.4608 108.646 44.639C108.248 44.8172 107.792 44.9063 107.279 44.9063C106.771 44.9063 106.315 44.8172 105.913 44.639C105.51 44.4608 105.171 44.2109 104.896 43.8893C104.62 43.5633 104.411 43.183 104.266 42.7484C104.122 42.3094 104.05 41.8335 104.05 41.3206ZM105.728 41.1837V41.3206C105.728 41.6292 105.758 41.9182 105.817 42.1877C105.877 42.4572 105.968 42.694 106.091 42.8983C106.214 43.1026 106.372 43.2634 106.567 43.3808C106.767 43.4938 107.004 43.5503 107.279 43.5503C107.551 43.5503 107.784 43.4938 107.978 43.3808C108.173 43.2634 108.332 43.1026 108.455 42.8983C108.582 42.694 108.676 42.4572 108.735 42.1877C108.794 41.9182 108.824 41.6292 108.824 41.3206V41.1837C108.824 40.8794 108.794 40.5947 108.735 40.3296C108.676 40.0601 108.582 39.8233 108.455 39.619C108.332 39.4104 108.171 39.2474 107.972 39.13C107.777 39.0083 107.542 38.9475 107.267 38.9475C106.995 38.9475 106.762 39.0083 106.567 39.13C106.372 39.2474 106.214 39.4104 106.091 39.619C105.968 39.8233 105.877 40.0601 105.817 40.3296C105.758 40.5947 105.728 40.8794 105.728 41.1837Z" fill="#767676"/>
<path d="M113.845 44.776H112.155V37.3306C112.155 36.7482 112.269 36.2571 112.498 35.8572C112.731 35.453 113.063 35.1466 113.496 34.9379C113.932 34.7293 114.451 34.625 115.053 34.625C115.405 34.625 115.744 34.6619 116.07 34.7358C116.4 34.8054 116.739 34.8966 117.087 35.0097L116.839 36.4048C116.614 36.331 116.369 36.2614 116.102 36.1962C115.839 36.131 115.528 36.0984 115.167 36.0984C114.722 36.0984 114.39 36.2027 114.169 36.4114C113.953 36.62 113.845 36.9264 113.845 37.3306V44.776ZM115.218 37.7218V38.9605H111.118V37.7218H115.218ZM117.875 37.7218V44.776H116.191V37.7218H117.875Z" fill="#767676"/>
<path d="M122.757 37.7218V38.9605H118.816V37.7218H122.757ZM119.871 35.9876H121.555V42.7419C121.555 42.9505 121.583 43.1113 121.638 43.2243C121.693 43.3373 121.776 43.4134 121.886 43.4525C121.996 43.4916 122.127 43.5112 122.28 43.5112C122.39 43.5112 122.492 43.5046 122.585 43.4916C122.678 43.4786 122.757 43.4655 122.82 43.4525L122.827 44.7434C122.687 44.7912 122.528 44.8303 122.35 44.8607C122.176 44.8911 121.979 44.9063 121.759 44.9063C121.382 44.9063 121.051 44.8411 120.767 44.7108C120.483 44.576 120.263 44.3609 120.106 44.0653C119.949 43.7654 119.871 43.3699 119.871 42.8788V35.9876Z" fill="#767676"/>
<path d="M132.66 41.6531H134.408C134.361 42.2877 134.189 42.8505 133.893 43.3417C133.596 43.8284 133.183 44.2109 132.653 44.4891C132.124 44.7673 131.482 44.9063 130.727 44.9063C130.147 44.9063 129.623 44.802 129.157 44.5934C128.695 44.3804 128.299 44.0784 127.969 43.6872C127.642 43.2917 127.392 42.8179 127.219 42.2659C127.045 41.7096 126.958 41.0859 126.958 40.3948V39.6711C126.958 38.9801 127.047 38.3564 127.225 37.8C127.403 37.2437 127.657 36.7699 127.988 36.3788C128.323 35.9832 128.723 35.679 129.189 35.466C129.659 35.2531 130.185 35.1466 130.765 35.1466C131.52 35.1466 132.157 35.29 132.679 35.5769C133.2 35.8594 133.605 36.2484 133.893 36.7439C134.181 37.2393 134.355 37.8087 134.414 38.452H132.666C132.632 38.0521 132.547 37.7131 132.412 37.4349C132.28 37.1568 132.081 36.946 131.814 36.8025C131.551 36.6548 131.202 36.5809 130.765 36.5809C130.426 36.5809 130.128 36.6461 129.869 36.7765C129.615 36.9068 129.403 37.1024 129.234 37.3632C129.064 37.6197 128.937 37.9413 128.852 38.3281C128.767 38.7106 128.725 39.1539 128.725 39.6581V40.3948C128.725 40.8773 128.763 41.3097 128.84 41.6922C128.916 42.0747 129.034 42.3985 129.195 42.6636C129.356 42.9287 129.564 43.1309 129.818 43.2699C130.073 43.409 130.376 43.4786 130.727 43.4786C131.155 43.4786 131.503 43.409 131.77 43.2699C132.041 43.1309 132.246 42.9266 132.386 42.6571C132.53 42.3876 132.621 42.053 132.66 41.6531Z" fill="#767676"/>
<path d="M137.281 34.7619V44.776H135.596V34.7619H137.281ZM137.014 40.9946H136.518C136.518 40.5035 136.581 40.0514 136.708 39.6385C136.836 39.2256 137.016 38.8671 137.249 38.5628C137.482 38.2542 137.759 38.0152 138.081 37.8457C138.408 37.6762 138.768 37.5914 139.162 37.5914C139.501 37.5914 139.808 37.6414 140.084 37.7413C140.363 37.837 140.603 37.9913 140.802 38.2042C141.001 38.4172 141.154 38.6954 141.26 39.0387C141.37 39.3778 141.425 39.7907 141.425 40.2775V44.776H139.734V40.2644C139.734 39.9384 139.687 39.682 139.594 39.4951C139.501 39.3039 139.367 39.167 139.194 39.0844C139.024 39.0018 138.814 38.9605 138.564 38.9605C138.293 38.9605 138.06 39.0148 137.865 39.1235C137.67 39.2278 137.509 39.3734 137.382 39.5603C137.259 39.7472 137.166 39.9623 137.103 40.2057C137.043 40.4491 137.014 40.7121 137.014 40.9946Z" fill="#767676"/>
<path d="M146.694 43.2765V40.0232C146.694 39.7841 146.654 39.5777 146.573 39.4038C146.493 39.23 146.37 39.0952 146.205 38.9996C146.039 38.904 145.83 38.8562 145.575 38.8562C145.351 38.8562 145.154 38.8953 144.984 38.9735C144.819 39.0518 144.692 39.1626 144.603 39.306C144.514 39.4451 144.469 39.6059 144.469 39.7885H142.785C142.785 39.4973 142.853 39.2213 142.988 38.9605C143.124 38.6954 143.317 38.4607 143.567 38.2564C143.821 38.0478 144.124 37.8848 144.476 37.7674C144.832 37.6501 145.23 37.5914 145.671 37.5914C146.192 37.5914 146.656 37.6827 147.063 37.8652C147.474 38.0434 147.796 38.3129 148.029 38.6736C148.266 39.0344 148.385 39.4886 148.385 40.0362V43.1135C148.385 43.4655 148.406 43.7676 148.448 44.0197C148.495 44.2674 148.563 44.4826 148.652 44.6651V44.776H146.942C146.861 44.5978 146.8 44.3717 146.758 44.0979C146.715 43.8198 146.694 43.5459 146.694 43.2765ZM146.929 40.4796L146.942 41.5031H145.88C145.618 41.5031 145.387 41.5314 145.188 41.5879C144.988 41.64 144.825 41.7183 144.698 41.8226C144.571 41.9226 144.476 42.0443 144.412 42.1877C144.349 42.3268 144.317 42.4854 144.317 42.6636C144.317 42.8375 144.355 42.9939 144.431 43.133C144.512 43.2721 144.626 43.3829 144.774 43.4655C144.927 43.5438 145.105 43.5829 145.308 43.5829C145.605 43.5829 145.864 43.522 146.084 43.4003C146.304 43.2743 146.476 43.1222 146.599 42.944C146.722 42.7658 146.787 42.5962 146.796 42.4354L147.279 43.1787C147.219 43.3569 147.131 43.5459 147.012 43.7459C146.893 43.9458 146.741 44.1327 146.554 44.3065C146.368 44.4804 146.143 44.6238 145.88 44.7368C145.618 44.8498 145.313 44.9063 144.965 44.9063C144.52 44.9063 144.122 44.8151 143.77 44.6325C143.418 44.45 143.141 44.2001 142.938 43.8828C142.734 43.5655 142.632 43.2047 142.632 42.8005C142.632 42.4267 142.7 42.0964 142.836 41.8096C142.971 41.5227 143.173 41.2815 143.44 41.0859C143.707 40.8859 144.037 40.736 144.431 40.636C144.83 40.5317 145.285 40.4796 145.798 40.4796H146.929Z" fill="#767676"/>
<path d="M151.576 39.1626V44.776H149.898V37.7218H151.487L151.576 39.1626ZM153.667 37.6762L153.641 39.28C153.548 39.2626 153.442 39.2495 153.324 39.2408C153.209 39.2322 153.101 39.2278 152.999 39.2278C152.741 39.2278 152.514 39.2648 152.319 39.3386C152.124 39.4082 151.961 39.5103 151.83 39.6451C151.703 39.7798 151.605 39.945 151.537 40.1405C151.47 40.3318 151.432 40.5491 151.423 40.7925L151.061 40.7469C151.061 40.2992 151.105 39.8841 151.194 39.5016C151.283 39.1191 151.412 38.7845 151.582 38.4976C151.751 38.2108 151.963 37.9891 152.218 37.8326C152.476 37.6718 152.773 37.5914 153.107 37.5914C153.201 37.5914 153.3 37.6001 153.406 37.6175C153.516 37.6305 153.603 37.6501 153.667 37.6762Z" fill="#767676"/>
<path d="M156.368 37.7218V44.776H154.684V37.7218H156.368ZM154.569 35.8768C154.569 35.6203 154.654 35.4073 154.824 35.2378C154.997 35.0683 155.23 34.9836 155.523 34.9836C155.815 34.9836 156.046 35.0683 156.216 35.2378C156.389 35.4073 156.476 35.6203 156.476 35.8768C156.476 36.1288 156.389 36.3396 156.216 36.5092C156.046 36.6787 155.815 36.7634 155.523 36.7634C155.23 36.7634 154.997 36.6787 154.824 36.5092C154.654 36.3396 154.569 36.1288 154.569 35.8768Z" fill="#767676"/>
<path d="M161.224 37.7218V38.9605H157.283V37.7218H161.224ZM158.339 35.9876H160.023V42.7419C160.023 42.9505 160.051 43.1113 160.106 43.2243C160.161 43.3373 160.243 43.4134 160.354 43.4525C160.464 43.4916 160.595 43.5112 160.748 43.5112C160.858 43.5112 160.959 43.5046 161.053 43.4916C161.146 43.4786 161.224 43.4655 161.288 43.4525L161.294 44.7434C161.154 44.7912 160.995 44.8303 160.818 44.8607C160.644 44.8911 160.447 44.9063 160.226 44.9063C159.849 44.9063 159.519 44.8411 159.235 44.7108C158.951 44.576 158.731 44.3609 158.574 44.0653C158.417 43.7654 158.339 43.3699 158.339 42.8788V35.9876Z" fill="#767676"/>
<path d="M164.358 43.9936L166.201 37.7218H168L165.241 45.8452C165.178 46.019 165.095 46.2081 164.994 46.4124C164.896 46.6166 164.765 46.8101 164.599 46.9926C164.434 47.1795 164.227 47.3316 163.977 47.449C163.731 47.5663 163.432 47.625 163.08 47.625C162.928 47.625 162.792 47.6141 162.674 47.5924C162.555 47.5707 162.43 47.5424 162.298 47.5076V46.2168C162.341 46.2211 162.39 46.2233 162.445 46.2233C162.504 46.2276 162.555 46.2298 162.597 46.2298C162.843 46.2298 163.046 46.1994 163.207 46.1385C163.368 46.082 163.498 45.9886 163.595 45.8582C163.697 45.7322 163.782 45.567 163.849 45.3627L164.358 43.9936ZM163.449 37.7218L165.006 42.9179L165.28 44.7368L164.123 44.952L161.637 37.7218H163.449Z" fill="#767676"/>
<defs>
<clipPath id="clip0_1_121">
<rect width="51" height="48" fill="white"/>
</clipPath>
</defs>
</svg>
