<svg xmlns="http://www.w3.org/2000/svg" xmlns:xlink="http://www.w3.org/1999/xlink" width="500" zoomAndPan="magnify" viewBox="0 0 375 374.999991" height="500" preserveAspectRatio="xMidYMid meet" version="1.0"><defs><g/><clipPath id="10d0c32fed"><path d="M 149 124 L 164.738281 124 L 164.738281 140 L 149 140 Z M 149 124 " clip-rule="nonzero"/></clipPath><clipPath id="9b5e4bd734"><path d="M 137 110.738281 L 147 110.738281 L 147 120 L 137 120 Z M 137 110.738281 " clip-rule="nonzero"/></clipPath></defs><path fill="#0071af" d="M 100.308594 136.109375 C 115 129.988281 130.054688 128.980469 142.082031 132.316406 C 128.40625 126.253906 109.390625 126.414062 90.914062 134.113281 C 61.617188 146.328125 44.796875 172.839844 53.335938 193.339844 C 59.636719 208.449219 77.964844 216.0625 98.902344 214.132812 C 73.332031 208.109375 67.582031 196.847656 65.28125 191.308594 C 57.3125 172.203125 73 147.484375 100.308594 136.109375 Z M 100.308594 136.109375 " fill-opacity="1" fill-rule="nonzero"/><path fill="#b8f0ff" d="M 162.035156 150.992188 C 160.425781 147.128906 157.832031 143.871094 154.515625 141.269531 C 143.59375 132.691406 124.75 131.25 106.542969 138.835938 C 93.171875 144.410156 83.003906 153.660156 77.921875 163.652344 C 83.984375 155.925781 92.902344 149.089844 103.816406 144.542969 C 126.675781 135.023438 150.484375 138.726562 160.550781 152.433594 C 161.722656 154.03125 162.726562 155.757812 163.5 157.617188 C 163.589844 157.835938 163.664062 158.0625 163.746094 158.285156 C 163.570312 155.785156 163.015625 153.34375 162.035156 150.992188 Z M 162.035156 150.992188 " fill-opacity="1" fill-rule="nonzero"/><g clip-path="url(#10d0c32fed)"><path fill="#2ddced" d="M 164.847656 132.28125 C 159.222656 133.316406 158.386719 134.15625 157.351562 139.78125 C 156.3125 134.15625 155.476562 133.316406 149.851562 132.28125 C 155.476562 131.246094 156.3125 130.40625 157.351562 124.78125 C 158.386719 130.414062 159.222656 131.25 164.847656 132.28125 Z M 164.847656 132.28125 " fill-opacity="1" fill-rule="nonzero"/></g><g clip-path="url(#9b5e4bd734)"><path fill="#b8f0ff" d="M 146.152344 114.992188 C 143.355469 115.792969 142.699219 116.445312 141.898438 119.242188 C 141.097656 116.445312 140.441406 115.792969 137.644531 114.992188 C 140.441406 114.1875 141.097656 113.535156 141.898438 110.738281 C 142.699219 113.535156 143.355469 114.1875 146.152344 114.992188 Z M 146.152344 114.992188 " fill-opacity="1" fill-rule="nonzero"/></g><path fill="#0071af" d="M 157.351562 117.839844 C 155.949219 118.242188 155.625 118.570312 155.21875 119.96875 C 154.816406 118.570312 154.488281 118.242188 153.089844 117.839844 C 154.488281 117.433594 154.816406 117.105469 155.21875 115.707031 C 155.625 117.105469 155.949219 117.433594 157.351562 117.839844 Z M 157.351562 117.839844 " fill-opacity="1" fill-rule="nonzero"/><g fill="#0071af" fill-opacity="1"><g transform="translate(96.100722, 194.380286)"><g><path d="M 3.8125 0.25 C 3.238281 0.25 2.753906 0.0625 2.359375 -0.3125 C 1.972656 -0.695312 1.78125 -1.144531 1.78125 -1.65625 L 1.78125 -15.90625 C 1.78125 -16.414062 1.972656 -16.859375 2.359375 -17.234375 C 2.753906 -17.617188 3.238281 -17.8125 3.8125 -17.8125 L 8.78125 -17.8125 C 9.945312 -17.8125 10.984375 -17.660156 11.890625 -17.359375 C 12.804688 -17.054688 13.566406 -16.632812 14.171875 -16.09375 C 14.785156 -15.5625 15.25 -14.914062 15.5625 -14.15625 C 15.875 -13.40625 16.03125 -12.585938 16.03125 -11.703125 C 16.03125 -10.804688 15.875 -9.984375 15.5625 -9.234375 C 15.25 -8.492188 14.785156 -7.851562 14.171875 -7.3125 C 13.566406 -6.78125 12.804688 -6.359375 11.890625 -6.046875 C 10.984375 -5.742188 9.945312 -5.59375 8.78125 -5.59375 L 5.859375 -5.59375 L 5.859375 -1.65625 C 5.859375 -1.144531 5.660156 -0.695312 5.265625 -0.3125 C 4.878906 0.0625 4.394531 0.25 3.8125 0.25 Z M 8.78125 -9.15625 C 9.800781 -9.15625 10.5625 -9.390625 11.0625 -9.859375 C 11.570312 -10.328125 11.828125 -10.941406 11.828125 -11.703125 C 11.828125 -12.472656 11.570312 -13.085938 11.0625 -13.546875 C 10.5625 -14.015625 9.800781 -14.25 8.78125 -14.25 L 5.859375 -14.25 L 5.859375 -9.15625 Z M 8.78125 -9.15625 "/></g></g></g><g fill="#0071af" fill-opacity="1"><g transform="translate(113.273713, 194.380286)"><g><path d="M 2.421875 0.25 C 1.835938 0.25 1.347656 0.0625 0.953125 -0.3125 C 0.566406 -0.695312 0.375 -1.144531 0.375 -1.65625 C 0.375 -1.8125 0.398438 -2 0.453125 -2.21875 C 0.503906 -2.4375 0.566406 -2.644531 0.640625 -2.84375 C 0.703125 -3.082031 0.785156 -3.320312 0.890625 -3.5625 L 5.734375 -16.03125 C 6.003906 -16.75 6.367188 -17.3125 6.828125 -17.71875 C 7.296875 -18.125 7.945312 -18.328125 8.78125 -18.328125 C 9.613281 -18.328125 10.257812 -18.125 10.71875 -17.71875 C 11.1875 -17.3125 11.554688 -16.75 11.828125 -16.03125 L 16.671875 -3.5625 C 16.773438 -3.320312 16.859375 -3.082031 16.921875 -2.84375 C 16.992188 -2.644531 17.054688 -2.4375 17.109375 -2.21875 C 17.160156 -2 17.1875 -1.8125 17.1875 -1.65625 C 17.1875 -1.144531 16.988281 -0.695312 16.59375 -0.3125 C 16.207031 0.0625 15.722656 0.25 15.140625 0.25 C 14.566406 0.25 14.113281 0.09375 13.78125 -0.21875 C 13.445312 -0.53125 13.179688 -0.96875 12.984375 -1.53125 L 12.09375 -3.9375 L 5.46875 -3.9375 L 4.578125 -1.53125 C 4.378906 -0.96875 4.113281 -0.53125 3.78125 -0.21875 C 3.445312 0.09375 2.992188 0.25 2.421875 0.25 Z M 10.9375 -7.515625 L 8.90625 -13.484375 L 8.65625 -13.484375 L 6.625 -7.515625 Z M 10.9375 -7.515625 "/></g></g></g><g fill="#0071af" fill-opacity="1"><g transform="translate(130.82832, 194.380286)"><g><path d="M 3.8125 0 C 3.238281 0 2.753906 -0.1875 2.359375 -0.5625 C 1.972656 -0.945312 1.78125 -1.394531 1.78125 -1.90625 L 1.78125 -16.15625 C 1.78125 -16.664062 1.972656 -17.113281 2.359375 -17.5 C 2.753906 -17.882812 3.238281 -18.078125 3.8125 -18.078125 C 4.394531 -18.078125 4.878906 -17.882812 5.265625 -17.5 C 5.660156 -17.113281 5.859375 -16.664062 5.859375 -16.15625 L 5.859375 -3.5625 L 12.34375 -3.5625 C 12.988281 -3.5625 13.488281 -3.390625 13.84375 -3.046875 C 14.195312 -2.710938 14.375 -2.289062 14.375 -1.78125 C 14.375 -1.269531 14.195312 -0.84375 13.84375 -0.5 C 13.488281 -0.164062 12.988281 0 12.34375 0 Z M 3.8125 0 "/></g></g></g><g fill="#0071af" fill-opacity="1"><g transform="translate(145.20275, 194.380286)"><g><path d="M 3.8125 0.25 C 3.238281 0.25 2.753906 0.0625 2.359375 -0.3125 C 1.972656 -0.695312 1.78125 -1.144531 1.78125 -1.65625 L 1.78125 -15.90625 C 1.78125 -16.488281 2 -16.992188 2.4375 -17.421875 C 2.882812 -17.859375 3.429688 -18.078125 4.078125 -18.078125 C 4.785156 -18.078125 5.363281 -17.882812 5.8125 -17.5 C 6.257812 -17.113281 6.613281 -16.664062 6.875 -16.15625 L 11.453125 -7 L 11.703125 -7 L 16.296875 -16.15625 C 16.546875 -16.664062 16.894531 -17.113281 17.34375 -17.5 C 17.789062 -17.882812 18.375 -18.078125 19.09375 -18.078125 C 19.738281 -18.078125 20.28125 -17.859375 20.71875 -17.421875 C 21.15625 -16.992188 21.375 -16.488281 21.375 -15.90625 L 21.375 -1.65625 C 21.375 -1.144531 21.175781 -0.695312 20.78125 -0.3125 C 20.394531 0.0625 19.914062 0.25 19.34375 0.25 C 18.769531 0.25 18.285156 0.0625 17.890625 -0.3125 C 17.503906 -0.695312 17.3125 -1.144531 17.3125 -1.65625 L 17.3125 -9.796875 L 17.046875 -9.796875 L 14 -3.6875 C 13.707031 -3.113281 13.375 -2.648438 13 -2.296875 C 12.632812 -1.953125 12.160156 -1.78125 11.578125 -1.78125 C 11.003906 -1.78125 10.53125 -1.953125 10.15625 -2.296875 C 9.78125 -2.648438 9.445312 -3.113281 9.15625 -3.6875 L 6.109375 -9.796875 L 5.859375 -9.796875 L 5.859375 -1.65625 C 5.859375 -1.144531 5.660156 -0.695312 5.265625 -0.3125 C 4.878906 0.0625 4.394531 0.25 3.8125 0.25 Z M 3.8125 0.25 "/></g></g></g><g fill="#0071af" fill-opacity="1"><g transform="translate(168.35449, 194.380286)"><g><path d="M 2.421875 0.25 C 1.835938 0.25 1.347656 0.0625 0.953125 -0.3125 C 0.566406 -0.695312 0.375 -1.144531 0.375 -1.65625 C 0.375 -1.8125 0.398438 -2 0.453125 -2.21875 C 0.503906 -2.4375 0.566406 -2.644531 0.640625 -2.84375 C 0.703125 -3.082031 0.785156 -3.320312 0.890625 -3.5625 L 5.734375 -16.03125 C 6.003906 -16.75 6.367188 -17.3125 6.828125 -17.71875 C 7.296875 -18.125 7.945312 -18.328125 8.78125 -18.328125 C 9.613281 -18.328125 10.257812 -18.125 10.71875 -17.71875 C 11.1875 -17.3125 11.554688 -16.75 11.828125 -16.03125 L 16.671875 -3.5625 C 16.773438 -3.320312 16.859375 -3.082031 16.921875 -2.84375 C 16.992188 -2.644531 17.054688 -2.4375 17.109375 -2.21875 C 17.160156 -2 17.1875 -1.8125 17.1875 -1.65625 C 17.1875 -1.144531 16.988281 -0.695312 16.59375 -0.3125 C 16.207031 0.0625 15.722656 0.25 15.140625 0.25 C 14.566406 0.25 14.113281 0.09375 13.78125 -0.21875 C 13.445312 -0.53125 13.179688 -0.96875 12.984375 -1.53125 L 12.09375 -3.9375 L 5.46875 -3.9375 L 4.578125 -1.53125 C 4.378906 -0.96875 4.113281 -0.53125 3.78125 -0.21875 C 3.445312 0.09375 2.992188 0.25 2.421875 0.25 Z M 10.9375 -7.515625 L 8.90625 -13.484375 L 8.65625 -13.484375 L 6.625 -7.515625 Z M 10.9375 -7.515625 "/></g></g></g><g fill="#0071af" fill-opacity="1"><g transform="translate(185.909096, 194.380286)"><g/></g></g><g fill="#0071af" fill-opacity="1"><g transform="translate(192.651085, 194.380286)"><g><path d="M 9.296875 0.515625 C 8.140625 0.515625 7.082031 0.328125 6.125 -0.046875 C 5.175781 -0.421875 4.363281 -0.9375 3.6875 -1.59375 C 3.007812 -2.257812 2.476562 -3.039062 2.09375 -3.9375 C 1.71875 -4.84375 1.53125 -5.820312 1.53125 -6.875 L 1.53125 -10.9375 C 1.53125 -11.988281 1.71875 -12.960938 2.09375 -13.859375 C 2.476562 -14.765625 3.007812 -15.546875 3.6875 -16.203125 C 4.363281 -16.867188 5.175781 -17.390625 6.125 -17.765625 C 7.082031 -18.140625 8.140625 -18.328125 9.296875 -18.328125 C 10.304688 -18.328125 11.21875 -18.1875 12.03125 -17.90625 C 12.851562 -17.625 13.550781 -17.269531 14.125 -16.84375 C 14.695312 -16.425781 15.132812 -15.96875 15.4375 -15.46875 C 15.75 -14.976562 15.90625 -14.53125 15.90625 -14.125 C 15.90625 -13.613281 15.726562 -13.1875 15.375 -12.84375 C 15.03125 -12.507812 14.570312 -12.34375 14 -12.34375 C 13.519531 -12.34375 13.132812 -12.46875 12.84375 -12.71875 C 12.5625 -12.976562 12.269531 -13.253906 11.96875 -13.546875 C 11.675781 -13.847656 11.328125 -14.125 10.921875 -14.375 C 10.523438 -14.632812 9.984375 -14.765625 9.296875 -14.765625 C 8.203125 -14.765625 7.332031 -14.429688 6.6875 -13.765625 C 6.050781 -13.109375 5.734375 -12.164062 5.734375 -10.9375 L 5.734375 -6.875 C 5.734375 -5.65625 6.050781 -4.710938 6.6875 -4.046875 C 7.332031 -3.378906 8.203125 -3.046875 9.296875 -3.046875 C 10.054688 -3.046875 10.648438 -3.175781 11.078125 -3.4375 C 11.515625 -3.707031 11.890625 -4.003906 12.203125 -4.328125 C 12.515625 -4.648438 12.816406 -4.941406 13.109375 -5.203125 C 13.398438 -5.460938 13.78125 -5.59375 14.25 -5.59375 C 14.832031 -5.59375 15.296875 -5.421875 15.640625 -5.078125 C 15.984375 -4.742188 16.15625 -4.320312 16.15625 -3.8125 C 16.15625 -3.40625 15.992188 -2.945312 15.671875 -2.4375 C 15.359375 -1.9375 14.898438 -1.46875 14.296875 -1.03125 C 13.703125 -0.59375 12.984375 -0.226562 12.140625 0.0625 C 11.296875 0.363281 10.347656 0.515625 9.296875 0.515625 Z M 9.296875 0.515625 "/></g></g></g><g fill="#0071af" fill-opacity="1"><g transform="translate(209.569662, 194.380286)"><g><path d="M 3.8125 0 C 3.238281 0 2.753906 -0.1875 2.359375 -0.5625 C 1.972656 -0.945312 1.78125 -1.394531 1.78125 -1.90625 L 1.78125 -16.15625 C 1.78125 -16.664062 1.972656 -17.113281 2.359375 -17.5 C 2.753906 -17.882812 3.238281 -18.078125 3.8125 -18.078125 C 4.394531 -18.078125 4.878906 -17.882812 5.265625 -17.5 C 5.660156 -17.113281 5.859375 -16.664062 5.859375 -16.15625 L 5.859375 -3.5625 L 12.34375 -3.5625 C 12.988281 -3.5625 13.488281 -3.390625 13.84375 -3.046875 C 14.195312 -2.710938 14.375 -2.289062 14.375 -1.78125 C 14.375 -1.269531 14.195312 -0.84375 13.84375 -0.5 C 13.488281 -0.164062 12.988281 0 12.34375 0 Z M 3.8125 0 "/></g></g></g><g fill="#0071af" fill-opacity="1"><g transform="translate(223.944093, 194.380286)"><g><path d="M 3.8125 0 C 3.238281 0 2.753906 -0.1875 2.359375 -0.5625 C 1.972656 -0.945312 1.78125 -1.394531 1.78125 -1.90625 L 1.78125 -15.90625 C 1.78125 -16.414062 1.972656 -16.859375 2.359375 -17.234375 C 2.753906 -17.617188 3.238281 -17.8125 3.8125 -17.8125 L 13.625 -17.8125 C 14.257812 -17.8125 14.753906 -17.640625 15.109375 -17.296875 C 15.472656 -16.960938 15.65625 -16.539062 15.65625 -16.03125 C 15.65625 -15.519531 15.472656 -15.09375 15.109375 -14.75 C 14.753906 -14.414062 14.257812 -14.25 13.625 -14.25 L 5.859375 -14.25 L 5.859375 -10.6875 L 11.328125 -10.6875 C 11.972656 -10.6875 12.472656 -10.515625 12.828125 -10.171875 C 13.179688 -9.835938 13.359375 -9.414062 13.359375 -8.90625 C 13.359375 -8.394531 13.179688 -7.96875 12.828125 -7.625 C 12.472656 -7.289062 11.972656 -7.125 11.328125 -7.125 L 5.859375 -7.125 L 5.859375 -3.5625 L 13.875 -3.5625 C 14.519531 -3.5625 15.019531 -3.390625 15.375 -3.046875 C 15.726562 -2.710938 15.90625 -2.289062 15.90625 -1.78125 C 15.90625 -1.269531 15.726562 -0.84375 15.375 -0.5 C 15.019531 -0.164062 14.519531 0 13.875 0 Z M 3.8125 0 "/></g></g></g><g fill="#0071af" fill-opacity="1"><g transform="translate(240.353844, 194.380286)"><g><path d="M 2.421875 0.25 C 1.835938 0.25 1.347656 0.0625 0.953125 -0.3125 C 0.566406 -0.695312 0.375 -1.144531 0.375 -1.65625 C 0.375 -1.8125 0.398438 -2 0.453125 -2.21875 C 0.503906 -2.4375 0.566406 -2.644531 0.640625 -2.84375 C 0.703125 -3.082031 0.785156 -3.320312 0.890625 -3.5625 L 5.734375 -16.03125 C 6.003906 -16.75 6.367188 -17.3125 6.828125 -17.71875 C 7.296875 -18.125 7.945312 -18.328125 8.78125 -18.328125 C 9.613281 -18.328125 10.257812 -18.125 10.71875 -17.71875 C 11.1875 -17.3125 11.554688 -16.75 11.828125 -16.03125 L 16.671875 -3.5625 C 16.773438 -3.320312 16.859375 -3.082031 16.921875 -2.84375 C 16.992188 -2.644531 17.054688 -2.4375 17.109375 -2.21875 C 17.160156 -2 17.1875 -1.8125 17.1875 -1.65625 C 17.1875 -1.144531 16.988281 -0.695312 16.59375 -0.3125 C 16.207031 0.0625 15.722656 0.25 15.140625 0.25 C 14.566406 0.25 14.113281 0.09375 13.78125 -0.21875 C 13.445312 -0.53125 13.179688 -0.96875 12.984375 -1.53125 L 12.09375 -3.9375 L 5.46875 -3.9375 L 4.578125 -1.53125 C 4.378906 -0.96875 4.113281 -0.53125 3.78125 -0.21875 C 3.445312 0.09375 2.992188 0.25 2.421875 0.25 Z M 10.9375 -7.515625 L 8.90625 -13.484375 L 8.65625 -13.484375 L 6.625 -7.515625 Z M 10.9375 -7.515625 "/></g></g></g><g fill="#0071af" fill-opacity="1"><g transform="translate(257.90845, 194.380286)"><g><path d="M 3.8125 0.25 C 3.238281 0.25 2.753906 0.0625 2.359375 -0.3125 C 1.972656 -0.695312 1.78125 -1.144531 1.78125 -1.65625 L 1.78125 -16.15625 C 1.78125 -16.664062 1.976562 -17.113281 2.375 -17.5 C 2.78125 -17.882812 3.300781 -18.078125 3.9375 -18.078125 C 4.519531 -18.078125 5.003906 -17.90625 5.390625 -17.5625 C 5.785156 -17.21875 6.148438 -16.796875 6.484375 -16.296875 L 12.46875 -7.25 L 12.71875 -7.25 L 12.71875 -16.15625 C 12.71875 -16.664062 12.910156 -17.113281 13.296875 -17.5 C 13.691406 -17.882812 14.179688 -18.078125 14.765625 -18.078125 C 15.335938 -18.078125 15.816406 -17.882812 16.203125 -17.5 C 16.597656 -17.113281 16.796875 -16.664062 16.796875 -16.15625 L 16.796875 -1.65625 C 16.796875 -1.125 16.597656 -0.671875 16.203125 -0.296875 C 15.804688 0.0664062 15.285156 0.25 14.640625 0.25 C 14.054688 0.25 13.566406 0.0820312 13.171875 -0.25 C 12.785156 -0.59375 12.425781 -1.019531 12.09375 -1.53125 L 6.109375 -10.5625 L 5.859375 -10.5625 L 5.859375 -1.65625 C 5.859375 -1.144531 5.660156 -0.695312 5.265625 -0.3125 C 4.878906 0.0625 4.394531 0.25 3.8125 0.25 Z M 3.8125 0.25 "/></g></g></g><g fill="#0071af" fill-opacity="1"><g transform="translate(276.480722, 194.380286)"><g><path d="M 3.9375 0.25 C 3.363281 0.25 2.878906 0.0625 2.484375 -0.3125 C 2.097656 -0.695312 1.90625 -1.144531 1.90625 -1.65625 L 1.90625 -16.15625 C 1.90625 -16.664062 2.097656 -17.113281 2.484375 -17.5 C 2.878906 -17.882812 3.363281 -18.078125 3.9375 -18.078125 C 4.519531 -18.078125 5.003906 -17.882812 5.390625 -17.5 C 5.785156 -17.113281 5.984375 -16.664062 5.984375 -16.15625 L 5.984375 -1.65625 C 5.984375 -1.144531 5.785156 -0.695312 5.390625 -0.3125 C 5.003906 0.0625 4.519531 0.25 3.9375 0.25 Z M 3.9375 0.25 "/></g></g></g><g fill="#0071af" fill-opacity="1"><g transform="translate(284.367577, 194.380286)"><g><path d="M 3.8125 0.25 C 3.238281 0.25 2.753906 0.0625 2.359375 -0.3125 C 1.972656 -0.695312 1.78125 -1.144531 1.78125 -1.65625 L 1.78125 -16.15625 C 1.78125 -16.664062 1.976562 -17.113281 2.375 -17.5 C 2.78125 -17.882812 3.300781 -18.078125 3.9375 -18.078125 C 4.519531 -18.078125 5.003906 -17.90625 5.390625 -17.5625 C 5.785156 -17.21875 6.148438 -16.796875 6.484375 -16.296875 L 12.46875 -7.25 L 12.71875 -7.25 L 12.71875 -16.15625 C 12.71875 -16.664062 12.910156 -17.113281 13.296875 -17.5 C 13.691406 -17.882812 14.179688 -18.078125 14.765625 -18.078125 C 15.335938 -18.078125 15.816406 -17.882812 16.203125 -17.5 C 16.597656 -17.113281 16.796875 -16.664062 16.796875 -16.15625 L 16.796875 -1.65625 C 16.796875 -1.125 16.597656 -0.671875 16.203125 -0.296875 C 15.804688 0.0664062 15.285156 0.25 14.640625 0.25 C 14.054688 0.25 13.566406 0.0820312 13.171875 -0.25 C 12.785156 -0.59375 12.425781 -1.019531 12.09375 -1.53125 L 6.109375 -10.5625 L 5.859375 -10.5625 L 5.859375 -1.65625 C 5.859375 -1.144531 5.660156 -0.695312 5.265625 -0.3125 C 4.878906 0.0625 4.394531 0.25 3.8125 0.25 Z M 3.8125 0.25 "/></g></g></g><g fill="#0071af" fill-opacity="1"><g transform="translate(302.939849, 194.380286)"><g><path d="M 9.296875 0.515625 C 8.140625 0.515625 7.082031 0.328125 6.125 -0.046875 C 5.175781 -0.421875 4.363281 -0.9375 3.6875 -1.59375 C 3.007812 -2.257812 2.476562 -3.039062 2.09375 -3.9375 C 1.71875 -4.84375 1.53125 -5.820312 1.53125 -6.875 L 1.53125 -10.9375 C 1.53125 -11.988281 1.71875 -12.960938 2.09375 -13.859375 C 2.476562 -14.765625 3.007812 -15.546875 3.6875 -16.203125 C 4.363281 -16.867188 5.175781 -17.390625 6.125 -17.765625 C 7.082031 -18.140625 8.140625 -18.328125 9.296875 -18.328125 C 10.304688 -18.328125 11.21875 -18.1875 12.03125 -17.90625 C 12.851562 -17.625 13.550781 -17.269531 14.125 -16.84375 C 14.695312 -16.425781 15.132812 -15.96875 15.4375 -15.46875 C 15.75 -14.976562 15.90625 -14.53125 15.90625 -14.125 C 15.90625 -13.613281 15.726562 -13.1875 15.375 -12.84375 C 15.03125 -12.507812 14.570312 -12.34375 14 -12.34375 C 13.519531 -12.34375 13.132812 -12.46875 12.84375 -12.71875 C 12.5625 -12.976562 12.269531 -13.253906 11.96875 -13.546875 C 11.675781 -13.847656 11.328125 -14.125 10.921875 -14.375 C 10.523438 -14.632812 9.984375 -14.765625 9.296875 -14.765625 C 8.203125 -14.765625 7.332031 -14.429688 6.6875 -13.765625 C 6.050781 -13.109375 5.734375 -12.164062 5.734375 -10.9375 L 5.734375 -6.875 C 5.734375 -5.65625 6.050781 -4.710938 6.6875 -4.046875 C 7.332031 -3.378906 8.203125 -3.046875 9.296875 -3.046875 C 9.835938 -3.046875 10.289062 -3.097656 10.65625 -3.203125 C 11.019531 -3.304688 11.320312 -3.425781 11.5625 -3.5625 C 11.832031 -3.71875 12.050781 -3.890625 12.21875 -4.078125 L 12.21875 -6.75 L 10.6875 -6.75 C 10.039062 -6.75 9.539062 -6.914062 9.1875 -7.25 C 8.832031 -7.59375 8.65625 -8.019531 8.65625 -8.53125 C 8.65625 -9.039062 8.832031 -9.460938 9.1875 -9.796875 C 9.539062 -10.140625 10.039062 -10.3125 10.6875 -10.3125 L 14.25 -10.3125 C 14.832031 -10.3125 15.316406 -10.117188 15.703125 -9.734375 C 16.097656 -9.347656 16.296875 -8.90625 16.296875 -8.40625 L 16.296875 -3.5625 C 16.296875 -3.207031 16.132812 -2.796875 15.8125 -2.328125 C 15.488281 -1.859375 15.023438 -1.414062 14.421875 -1 C 13.816406 -0.582031 13.082031 -0.226562 12.21875 0.0625 C 11.351562 0.363281 10.378906 0.515625 9.296875 0.515625 Z M 9.296875 0.515625 "/></g></g></g></svg>