<svg xmlns="http://www.w3.org/2000/svg" xmlns:xlink="http://www.w3.org/1999/xlink" width="500" zoomAndPan="magnify" viewBox="0 0 375 374.999991" height="500" preserveAspectRatio="xMidYMid meet" version="1.0"><defs><g/><clipPath id="c4b5c899b4"><path d="M 121 157.597656 L 128.183594 157.597656 L 128.183594 164.988281 L 121 164.988281 Z M 121 157.597656 " clip-rule="nonzero"/></clipPath><clipPath id="d27b0bd5d0"><path d="M 121 177.027344 L 128.183594 177.027344 L 128.183594 184.511719 L 121 184.511719 Z M 121 177.027344 " clip-rule="nonzero"/></clipPath><clipPath id="3b4a9a01f3"><path d="M 84.691406 231.429688 L 95.78125 231.429688 L 95.78125 242.089844 L 84.691406 242.089844 Z M 84.691406 231.429688 " clip-rule="nonzero"/></clipPath><clipPath id="1fb1110cee"><path d="M 23.183594 136 L 37 136 L 37 150 L 23.183594 150 Z M 23.183594 136 " clip-rule="nonzero"/></clipPath><clipPath id="b8a6025ab8"><path d="M 81 125.839844 L 93 125.839844 L 93 137 L 81 137 Z M 81 125.839844 " clip-rule="nonzero"/></clipPath></defs><path fill="#0071af" d="M 87.9375 204.78125 C 79.988281 205.261719 79.597656 205.652344 79.113281 213.605469 C 78.632812 205.652344 78.242188 205.261719 70.289062 204.78125 C 78.242188 204.296875 78.632812 203.90625 79.113281 195.957031 C 79.597656 203.90625 79.988281 204.296875 87.9375 204.78125 " fill-opacity="1" fill-rule="nonzero"/><path fill="#3fa9f5" d="M 124.726562 213.816406 C 119.777344 214.117188 119.53125 214.359375 119.230469 219.3125 C 118.933594 214.359375 118.6875 214.117188 113.738281 213.816406 C 118.6875 213.515625 118.933594 213.273438 119.230469 208.324219 C 119.53125 213.273438 119.777344 213.515625 124.726562 213.816406 " fill-opacity="1" fill-rule="nonzero"/><g clip-path="url(#c4b5c899b4)"><path fill="#3fa9f5" d="M 128.402344 161.289062 C 125.089844 161.488281 124.925781 161.652344 124.726562 164.960938 C 124.527344 161.652344 124.363281 161.488281 121.054688 161.289062 C 124.363281 161.085938 124.527344 160.925781 124.726562 157.613281 C 124.925781 160.925781 125.089844 161.085938 128.402344 161.289062 " fill-opacity="1" fill-rule="nonzero"/></g><path fill="#0071af" d="M 63.085938 133.59375 C 65.179688 133.46875 65.304688 133.363281 65.433594 131.3125 C 55.953125 130.765625 46.238281 133.453125 38.0625 139.617188 C 37.34375 140.15625 36.648438 140.71875 35.976562 141.296875 C 44.921875 135.40625 55.421875 133.40625 65.359375 134.996094 C 65.207031 133.792969 64.828125 133.699219 63.085938 133.59375 " fill-opacity="1" fill-rule="nonzero"/><path fill="#0071af" d="M 75.441406 137.949219 C 75.191406 137.707031 74.835938 137.570312 74.320312 137.480469 C 74.695312 137.628906 75.070312 137.785156 75.441406 137.949219 " fill-opacity="1" fill-rule="nonzero"/><path fill="#0071af" d="M 101.5 167.367188 C 101.421875 166.109375 101.359375 166.046875 100.105469 165.972656 C 101.359375 165.894531 101.421875 165.832031 101.5 164.578125 C 101.574219 165.832031 101.636719 165.894531 102.890625 165.972656 C 101.636719 166.046875 101.574219 166.109375 101.5 167.367188 Z M 87.9375 143.070312 C 87.863281 141.8125 87.800781 141.753906 86.542969 141.675781 C 87.800781 141.601562 87.863281 141.539062 87.9375 140.28125 C 88.015625 141.539062 88.074219 141.601562 89.332031 141.675781 C 88.074219 141.753906 88.015625 141.8125 87.9375 143.070312 Z M 97.554688 149.632812 C 94.882812 149.8125 94.738281 150.082031 94.558594 153 C 94.375 149.941406 94.226562 149.792969 91.167969 149.609375 C 94.226562 149.421875 94.375 149.273438 94.558594 146.214844 C 94.734375 149.121094 94.882812 149.398438 97.519531 149.582031 C 97.109375 148.96875 96.679688 148.367188 96.230469 147.773438 C 88.589844 137.636719 77.195312 131.992188 65.441406 131.3125 C 65.566406 133.363281 65.695312 133.46875 67.789062 133.59375 C 66.035156 133.703125 65.660156 133.792969 65.511719 135.019531 C 68.296875 135.476562 71.035156 136.214844 73.679688 137.226562 C 75.792969 137.019531 75.933594 136.53125 76.101562 133.757812 C 76.296875 136.960938 76.453125 137.117188 79.65625 137.3125 C 77.636719 137.433594 76.828125 137.542969 76.457031 138.410156 C 82.382812 141.1875 87.738281 145.414062 91.953125 151 C 105.21875 168.597656 102.371094 193.324219 85.886719 207.484375 C 86.628906 207 87.355469 206.484375 88.074219 205.945312 C 105.777344 192.59375 109.78125 167.816406 97.554688 149.632812 " fill-opacity="1" fill-rule="nonzero"/><path fill="#3fa9f5" d="M 106.113281 152.671875 C 106.886719 152.277344 107.011719 151.460938 107.128906 149.578125 C 105.875 148 104.515625 146.476562 103.054688 145.015625 C 101.875 143.832031 100.652344 142.722656 99.394531 141.675781 C 99.46875 141.816406 99.542969 141.953125 99.613281 142.09375 C 102.230469 145.40625 104.394531 148.960938 106.113281 152.671875 " fill-opacity="1" fill-rule="nonzero"/><path fill="#3fa9f5" d="M 106.125 213.605469 C 105.980469 211.207031 105.863281 211.089844 103.464844 210.945312 C 105.863281 210.800781 105.980469 210.683594 106.125 208.285156 C 106.269531 210.683594 106.386719 210.800781 108.785156 210.945312 C 106.386719 211.089844 106.269531 211.207031 106.125 213.605469 Z M 96.871094 224.824219 C 96.617188 220.65625 96.414062 220.453125 92.246094 220.199219 C 96.414062 219.945312 96.617188 219.742188 96.871094 215.570312 C 97.125 219.742188 97.328125 219.945312 101.5 220.199219 C 97.328125 220.453125 97.125 220.65625 96.871094 224.824219 Z M 117.519531 193.261719 C 117.25 188.789062 117.027344 188.566406 112.558594 188.296875 C 117.027344 188.027344 117.25 187.804688 117.519531 183.332031 C 117.65625 185.609375 117.785156 186.785156 118.460938 187.425781 C 119.03125 181 118.433594 174.488281 116.675781 168.238281 C 114.214844 168.425781 114.066406 168.789062 113.894531 171.671875 C 113.707031 168.597656 113.550781 168.386719 110.59375 168.199219 C 111.796875 177.511719 110.546875 187.082031 106.835938 195.855469 C 109.96875 195.578125 110.167969 194.945312 110.410156 190.992188 C 110.679688 195.464844 110.898438 195.6875 115.371094 195.957031 C 110.898438 196.226562 110.679688 196.449219 110.410156 200.921875 C 110.167969 196.933594 109.964844 196.324219 106.757812 196.046875 C 104.160156 202.128906 100.382812 207.824219 95.421875 212.78125 C 90.242188 217.960938 84.261719 221.855469 77.878906 224.457031 C 78.6875 225.535156 80.246094 225.710938 83.480469 225.90625 C 77.539062 226.265625 77.246094 226.558594 76.886719 232.5 C 76.59375 227.683594 76.347656 226.582031 73.097656 226.144531 C 69.621094 227.1875 66.058594 227.867188 62.46875 228.1875 L 61.882812 235.917969 C 76.660156 236.878906 91.761719 231.710938 103.054688 220.417969 C 111.757812 211.710938 116.824219 200.746094 118.25 189.410156 C 117.753906 190.09375 117.640625 191.246094 117.519531 193.261719 " fill-opacity="1" fill-rule="nonzero"/><path fill="#3fa9f5" d="M 113.894531 164.707031 C 114.066406 167.582031 114.214844 167.953125 116.648438 168.140625 C 115.164062 162.898438 112.863281 157.839844 109.746094 153.164062 C 107.90625 153.335938 107.453125 153.679688 107.257812 155.328125 C 108.910156 159.480469 110.023438 163.800781 110.589844 168.179688 C 113.550781 167.992188 113.707031 167.78125 113.894531 164.707031 " fill-opacity="1" fill-rule="nonzero"/><path fill="#3fa9f5" d="M 107.152344 149.609375 C 107.320312 152.296875 107.511719 152.789062 109.632812 153 C 108.855469 151.84375 108.03125 150.714844 107.152344 149.609375 " fill-opacity="1" fill-rule="nonzero"/><g clip-path="url(#d27b0bd5d0)"><path fill="#0071af" d="M 128.402344 180.757812 C 125.089844 180.957031 124.925781 181.121094 124.726562 184.433594 C 124.527344 181.121094 124.363281 180.957031 121.054688 180.757812 C 124.363281 180.558594 124.527344 180.394531 124.726562 177.085938 C 124.925781 180.394531 125.089844 180.558594 128.402344 180.757812 " fill-opacity="1" fill-rule="nonzero"/></g><path fill="#3fa9f5" d="M 65.441406 177.085938 C 58.3125 177.515625 57.960938 177.867188 57.527344 184.996094 C 57.097656 177.867188 56.746094 177.515625 49.613281 177.085938 C 56.746094 176.652344 57.097656 176.300781 57.527344 169.171875 C 57.960938 176.300781 58.3125 176.652344 65.441406 177.085938 " fill-opacity="1" fill-rule="nonzero"/><g clip-path="url(#3b4a9a01f3)"><path fill="#3fa9f5" d="M 95.769531 236.929688 C 90.820312 237.226562 90.578125 237.472656 90.277344 242.421875 C 89.976562 237.472656 89.734375 237.226562 84.78125 236.929688 C 89.734375 236.628906 89.976562 236.382812 90.277344 231.433594 C 90.578125 236.382812 90.820312 236.628906 95.769531 236.929688 " fill-opacity="1" fill-rule="nonzero"/></g><path fill="#0071af" d="M 93.433594 164.707031 C 88.480469 165.003906 88.238281 165.25 87.9375 170.199219 C 87.636719 165.25 87.394531 165.003906 82.445312 164.707031 C 87.394531 164.40625 87.636719 164.164062 87.9375 159.210938 C 88.238281 164.164062 88.480469 164.40625 93.433594 164.707031 " fill-opacity="1" fill-rule="nonzero"/><path fill="#3fa9f5" d="M 55.746094 147.175781 C 51.203125 147.449219 50.980469 147.671875 50.703125 152.214844 C 50.429688 147.671875 50.207031 147.449219 45.664062 147.175781 C 50.207031 146.898438 50.429688 146.675781 50.703125 142.132812 C 50.980469 146.675781 51.203125 146.898438 55.746094 147.175781 " fill-opacity="1" fill-rule="nonzero"/><path fill="#0071af" d="M 73.070312 144.390625 C 70.566406 144.542969 70.441406 144.664062 70.289062 147.171875 C 70.140625 144.664062 70.015625 144.542969 67.507812 144.390625 C 70.015625 144.238281 70.140625 144.113281 70.289062 141.609375 C 70.441406 144.113281 70.566406 144.238281 73.070312 144.390625 " fill-opacity="1" fill-rule="nonzero"/><g clip-path="url(#1fb1110cee)"><path fill="#3fa9f5" d="M 36.863281 143.070312 C 30.699219 143.445312 30.394531 143.746094 30.023438 149.910156 C 29.648438 143.746094 29.347656 143.445312 23.183594 143.070312 C 29.347656 142.699219 29.648438 142.394531 30.023438 136.230469 C 30.394531 142.394531 30.699219 142.699219 36.863281 143.070312 " fill-opacity="1" fill-rule="nonzero"/></g><g clip-path="url(#b8a6025ab8)"><path fill="#3fa9f5" d="M 92.621094 131.242188 C 87.757812 131.539062 87.519531 131.777344 87.226562 136.640625 C 86.929688 131.777344 86.691406 131.539062 81.828125 131.242188 C 86.691406 130.949219 86.929688 130.707031 87.226562 125.847656 C 87.519531 130.707031 87.757812 130.949219 92.621094 131.242188 " fill-opacity="1" fill-rule="nonzero"/></g><path fill="#0071af" d="M 111.523438 138.992188 C 106.660156 139.289062 106.421875 139.527344 106.125 144.390625 C 105.832031 139.527344 105.589844 139.289062 100.726562 138.992188 C 105.589844 138.699219 105.832031 138.457031 106.125 133.59375 C 106.421875 138.457031 106.660156 138.699219 111.523438 138.992188 " fill-opacity="1" fill-rule="nonzero"/><path fill="#3fa9f5" d="M 53.015625 228.039062 L 52.464844 233.179688 L 54.867188 234.230469 L 56.839844 227.246094 L 56.039062 234.742188 L 58.871094 235.980469 L 60.347656 216.453125 L 44 209.300781 L 30.660156 223.640625 L 51.664062 232.828125 L 53.015625 228.039062 " fill-opacity="1" fill-rule="nonzero"/><path fill="#3fa9f5" d="M 57.621094 203.34375 L 75.960938 162.53125 C 76.339844 161.691406 75.929688 160.707031 75.070312 160.386719 C 74.273438 160.089844 73.382812 160.46875 73.050781 161.25 L 55.394531 202.378906 C 54.808594 204.5 43.632812 206.152344 43.632812 206.152344 L 42.886719 207.882812 L 62.148438 216.308594 L 62.933594 214.492188 C 62.933594 214.492188 56.480469 205.222656 57.621094 203.34375 " fill-opacity="1" fill-rule="nonzero"/><g fill="#0071af" fill-opacity="1"><g transform="translate(128.407892, 174.777058)"><g><path d="M 6.484375 0.4375 C 5.503906 0.4375 4.679688 0.113281 4.015625 -0.53125 C 3.359375 -1.1875 3.03125 -1.945312 3.03125 -2.8125 L 3.03125 -27.03125 C 3.03125 -27.894531 3.359375 -28.648438 4.015625 -29.296875 C 4.679688 -29.953125 5.503906 -30.28125 6.484375 -30.28125 L 14.921875 -30.28125 C 16.910156 -30.28125 18.675781 -30.019531 20.21875 -29.5 C 21.757812 -28.976562 23.046875 -28.265625 24.078125 -27.359375 C 25.117188 -26.453125 25.90625 -25.351562 26.4375 -24.0625 C 26.976562 -22.78125 27.25 -21.390625 27.25 -19.890625 C 27.25 -18.367188 26.976562 -16.972656 26.4375 -15.703125 C 25.90625 -14.429688 25.117188 -13.34375 24.078125 -12.4375 C 23.046875 -11.53125 21.757812 -10.816406 20.21875 -10.296875 C 18.675781 -9.773438 16.910156 -9.515625 14.921875 -9.515625 L 9.953125 -9.515625 L 9.953125 -2.8125 C 9.953125 -1.945312 9.617188 -1.1875 8.953125 -0.53125 C 8.285156 0.113281 7.460938 0.4375 6.484375 0.4375 Z M 14.921875 -15.5625 C 16.648438 -15.5625 17.945312 -15.957031 18.8125 -16.75 C 19.675781 -17.550781 20.109375 -18.597656 20.109375 -19.890625 C 20.109375 -21.191406 19.675781 -22.238281 18.8125 -23.03125 C 17.945312 -23.820312 16.648438 -24.21875 14.921875 -24.21875 L 9.953125 -24.21875 L 9.953125 -15.5625 Z M 14.921875 -15.5625 "/></g></g></g><g fill="#0071af" fill-opacity="1"><g transform="translate(157.596389, 174.777058)"><g><path d="M 4.109375 0.4375 C 3.128906 0.4375 2.304688 0.113281 1.640625 -0.53125 C 0.984375 -1.1875 0.65625 -1.945312 0.65625 -2.8125 C 0.65625 -3.070312 0.695312 -3.390625 0.78125 -3.765625 C 0.863281 -4.140625 0.960938 -4.5 1.078125 -4.84375 C 1.191406 -5.25 1.335938 -5.65625 1.515625 -6.0625 L 9.734375 -27.25 C 10.191406 -28.457031 10.816406 -29.40625 11.609375 -30.09375 C 12.398438 -30.789062 13.503906 -31.140625 14.921875 -31.140625 C 16.335938 -31.140625 17.441406 -30.789062 18.234375 -30.09375 C 19.023438 -29.40625 19.648438 -28.457031 20.109375 -27.25 L 28.328125 -6.0625 C 28.503906 -5.65625 28.648438 -5.25 28.765625 -4.84375 C 28.878906 -4.5 28.976562 -4.140625 29.0625 -3.765625 C 29.144531 -3.390625 29.1875 -3.070312 29.1875 -2.8125 C 29.1875 -1.945312 28.851562 -1.1875 28.1875 -0.53125 C 27.53125 0.113281 26.710938 0.4375 25.734375 0.4375 C 24.753906 0.4375 23.984375 0.171875 23.421875 -0.359375 C 22.859375 -0.898438 22.40625 -1.644531 22.0625 -2.59375 L 20.546875 -6.703125 L 9.296875 -6.703125 L 7.78125 -2.59375 C 7.4375 -1.644531 6.984375 -0.898438 6.421875 -0.359375 C 5.859375 0.171875 5.085938 0.4375 4.109375 0.4375 Z M 18.59375 -12.765625 L 15.140625 -22.921875 L 14.703125 -22.921875 L 11.25 -12.765625 Z M 18.59375 -12.765625 "/></g></g></g><g fill="#0071af" fill-opacity="1"><g transform="translate(187.433515, 174.777058)"><g><path d="M 6.484375 0 C 5.503906 0 4.679688 -0.320312 4.015625 -0.96875 C 3.359375 -1.625 3.03125 -2.382812 3.03125 -3.25 L 3.03125 -27.46875 C 3.03125 -28.332031 3.359375 -29.085938 4.015625 -29.734375 C 4.679688 -30.378906 5.503906 -30.703125 6.484375 -30.703125 C 7.460938 -30.703125 8.285156 -30.378906 8.953125 -29.734375 C 9.617188 -29.085938 9.953125 -28.332031 9.953125 -27.46875 L 9.953125 -6.0625 L 20.96875 -6.0625 C 22.070312 -6.0625 22.925781 -5.769531 23.53125 -5.1875 C 24.132812 -4.613281 24.4375 -3.894531 24.4375 -3.03125 C 24.4375 -2.164062 24.132812 -1.441406 23.53125 -0.859375 C 22.925781 -0.285156 22.070312 0 20.96875 0 Z M 6.484375 0 "/></g></g></g><g fill="#0071af" fill-opacity="1"><g transform="translate(211.865368, 174.777058)"><g><path d="M 6.484375 0.4375 C 5.503906 0.4375 4.679688 0.113281 4.015625 -0.53125 C 3.359375 -1.1875 3.03125 -1.945312 3.03125 -2.8125 L 3.03125 -27.03125 C 3.03125 -28.007812 3.40625 -28.863281 4.15625 -29.59375 C 4.90625 -30.332031 5.828125 -30.703125 6.921875 -30.703125 C 8.128906 -30.703125 9.113281 -30.378906 9.875 -29.734375 C 10.644531 -29.085938 11.242188 -28.332031 11.671875 -27.46875 L 19.46875 -11.890625 L 19.890625 -11.890625 L 27.6875 -27.46875 C 28.113281 -28.332031 28.707031 -29.085938 29.46875 -29.734375 C 30.238281 -30.378906 31.226562 -30.703125 32.4375 -30.703125 C 33.53125 -30.703125 34.453125 -30.332031 35.203125 -29.59375 C 35.953125 -28.863281 36.328125 -28.007812 36.328125 -27.03125 L 36.328125 -2.8125 C 36.328125 -1.945312 35.992188 -1.1875 35.328125 -0.53125 C 34.671875 0.113281 33.851562 0.4375 32.875 0.4375 C 31.894531 0.4375 31.070312 0.113281 30.40625 -0.53125 C 29.738281 -1.1875 29.40625 -1.945312 29.40625 -2.8125 L 29.40625 -16.65625 L 28.984375 -16.65625 L 23.78125 -6.265625 C 23.289062 -5.285156 22.726562 -4.5 22.09375 -3.90625 C 21.46875 -3.320312 20.660156 -3.03125 19.671875 -3.03125 C 18.691406 -3.03125 17.882812 -3.320312 17.25 -3.90625 C 16.625 -4.5 16.0625 -5.285156 15.5625 -6.265625 L 10.375 -16.65625 L 9.953125 -16.65625 L 9.953125 -2.8125 C 9.953125 -1.945312 9.617188 -1.1875 8.953125 -0.53125 C 8.285156 0.113281 7.460938 0.4375 6.484375 0.4375 Z M 6.484375 0.4375 "/></g></g></g><g fill="#0071af" fill-opacity="1"><g transform="translate(251.215784, 174.777058)"><g><path d="M 4.109375 0.4375 C 3.128906 0.4375 2.304688 0.113281 1.640625 -0.53125 C 0.984375 -1.1875 0.65625 -1.945312 0.65625 -2.8125 C 0.65625 -3.070312 0.695312 -3.390625 0.78125 -3.765625 C 0.863281 -4.140625 0.960938 -4.5 1.078125 -4.84375 C 1.191406 -5.25 1.335938 -5.65625 1.515625 -6.0625 L 9.734375 -27.25 C 10.191406 -28.457031 10.816406 -29.40625 11.609375 -30.09375 C 12.398438 -30.789062 13.503906 -31.140625 14.921875 -31.140625 C 16.335938 -31.140625 17.441406 -30.789062 18.234375 -30.09375 C 19.023438 -29.40625 19.648438 -28.457031 20.109375 -27.25 L 28.328125 -6.0625 C 28.503906 -5.65625 28.648438 -5.25 28.765625 -4.84375 C 28.878906 -4.5 28.976562 -4.140625 29.0625 -3.765625 C 29.144531 -3.390625 29.1875 -3.070312 29.1875 -2.8125 C 29.1875 -1.945312 28.851562 -1.1875 28.1875 -0.53125 C 27.53125 0.113281 26.710938 0.4375 25.734375 0.4375 C 24.753906 0.4375 23.984375 0.171875 23.421875 -0.359375 C 22.859375 -0.898438 22.40625 -1.644531 22.0625 -2.59375 L 20.546875 -6.703125 L 9.296875 -6.703125 L 7.78125 -2.59375 C 7.4375 -1.644531 6.984375 -0.898438 6.421875 -0.359375 C 5.859375 0.171875 5.085938 0.4375 4.109375 0.4375 Z M 18.59375 -12.765625 L 15.140625 -22.921875 L 14.703125 -22.921875 L 11.25 -12.765625 Z M 18.59375 -12.765625 "/></g></g></g><g fill="#0071af" fill-opacity="1"><g transform="translate(128.407892, 222.027055)"><g><path d="M 15.78125 0.859375 C 13.820312 0.859375 12.035156 0.546875 10.421875 -0.078125 C 8.804688 -0.710938 7.421875 -1.59375 6.265625 -2.71875 C 5.117188 -3.84375 4.21875 -5.171875 3.5625 -6.703125 C 2.914062 -8.234375 2.59375 -9.890625 2.59375 -11.671875 L 2.59375 -18.59375 C 2.59375 -20.382812 2.914062 -22.039062 3.5625 -23.5625 C 4.21875 -25.09375 5.117188 -26.421875 6.265625 -27.546875 C 7.421875 -28.671875 8.804688 -29.550781 10.421875 -30.1875 C 12.035156 -30.820312 13.820312 -31.140625 15.78125 -31.140625 C 17.507812 -31.140625 19.066406 -30.898438 20.453125 -30.421875 C 21.835938 -29.953125 23.019531 -29.351562 24 -28.625 C 24.976562 -27.90625 25.726562 -27.128906 26.25 -26.296875 C 26.769531 -25.460938 27.03125 -24.695312 27.03125 -24 C 27.03125 -23.132812 26.734375 -22.410156 26.140625 -21.828125 C 25.554688 -21.253906 24.769531 -20.96875 23.78125 -20.96875 C 22.976562 -20.96875 22.332031 -21.1875 21.84375 -21.625 C 21.351562 -22.0625 20.851562 -22.53125 20.34375 -23.03125 C 19.84375 -23.53125 19.253906 -23.992188 18.578125 -24.421875 C 17.898438 -24.859375 16.96875 -25.078125 15.78125 -25.078125 C 13.9375 -25.078125 12.46875 -24.515625 11.375 -23.390625 C 10.28125 -22.273438 9.734375 -20.675781 9.734375 -18.59375 L 9.734375 -11.671875 C 9.734375 -9.597656 10.28125 -8 11.375 -6.875 C 12.46875 -5.75 13.9375 -5.1875 15.78125 -5.1875 C 17.082031 -5.1875 18.097656 -5.410156 18.828125 -5.859375 C 19.566406 -6.304688 20.203125 -6.800781 20.734375 -7.34375 C 21.265625 -7.894531 21.773438 -8.394531 22.265625 -8.84375 C 22.765625 -9.289062 23.414062 -9.515625 24.21875 -9.515625 C 25.195312 -9.515625 25.984375 -9.222656 26.578125 -8.640625 C 27.171875 -8.066406 27.46875 -7.347656 27.46875 -6.484375 C 27.46875 -5.796875 27.191406 -5.019531 26.640625 -4.15625 C 26.085938 -3.289062 25.304688 -2.488281 24.296875 -1.75 C 23.296875 -1.019531 22.070312 -0.40625 20.625 0.09375 C 19.1875 0.601562 17.570312 0.859375 15.78125 0.859375 Z M 15.78125 0.859375 "/></g></g></g><g fill="#0071af" fill-opacity="1"><g transform="translate(157.163963, 222.027055)"><g><path d="M 6.484375 0 C 5.503906 0 4.679688 -0.320312 4.015625 -0.96875 C 3.359375 -1.625 3.03125 -2.382812 3.03125 -3.25 L 3.03125 -27.46875 C 3.03125 -28.332031 3.359375 -29.085938 4.015625 -29.734375 C 4.679688 -30.378906 5.503906 -30.703125 6.484375 -30.703125 C 7.460938 -30.703125 8.285156 -30.378906 8.953125 -29.734375 C 9.617188 -29.085938 9.953125 -28.332031 9.953125 -27.46875 L 9.953125 -6.0625 L 20.96875 -6.0625 C 22.070312 -6.0625 22.925781 -5.769531 23.53125 -5.1875 C 24.132812 -4.613281 24.4375 -3.894531 24.4375 -3.03125 C 24.4375 -2.164062 24.132812 -1.441406 23.53125 -0.859375 C 22.925781 -0.285156 22.070312 0 20.96875 0 Z M 6.484375 0 "/></g></g></g><g fill="#0071af" fill-opacity="1"><g transform="translate(181.595816, 222.027055)"><g><path d="M 6.484375 0 C 5.503906 0 4.679688 -0.320312 4.015625 -0.96875 C 3.359375 -1.625 3.03125 -2.382812 3.03125 -3.25 L 3.03125 -27.03125 C 3.03125 -27.894531 3.359375 -28.648438 4.015625 -29.296875 C 4.679688 -29.953125 5.503906 -30.28125 6.484375 -30.28125 L 23.140625 -30.28125 C 24.234375 -30.28125 25.082031 -29.988281 25.6875 -29.40625 C 26.289062 -28.832031 26.59375 -28.113281 26.59375 -27.25 C 26.59375 -26.382812 26.289062 -25.660156 25.6875 -25.078125 C 25.082031 -24.503906 24.234375 -24.21875 23.140625 -24.21875 L 9.953125 -24.21875 L 9.953125 -18.171875 L 19.25 -18.171875 C 20.34375 -18.171875 21.191406 -17.878906 21.796875 -17.296875 C 22.398438 -16.722656 22.703125 -16.003906 22.703125 -15.140625 C 22.703125 -14.273438 22.398438 -13.550781 21.796875 -12.96875 C 21.191406 -12.394531 20.34375 -12.109375 19.25 -12.109375 L 9.953125 -12.109375 L 9.953125 -6.0625 L 23.578125 -6.0625 C 24.671875 -6.0625 25.519531 -5.769531 26.125 -5.1875 C 26.726562 -4.613281 27.03125 -3.894531 27.03125 -3.03125 C 27.03125 -2.164062 26.726562 -1.441406 26.125 -0.859375 C 25.519531 -0.285156 24.671875 0 23.578125 0 Z M 6.484375 0 "/></g></g></g><g fill="#0071af" fill-opacity="1"><g transform="translate(209.487046, 222.027055)"><g><path d="M 4.109375 0.4375 C 3.128906 0.4375 2.304688 0.113281 1.640625 -0.53125 C 0.984375 -1.1875 0.65625 -1.945312 0.65625 -2.8125 C 0.65625 -3.070312 0.695312 -3.390625 0.78125 -3.765625 C 0.863281 -4.140625 0.960938 -4.5 1.078125 -4.84375 C 1.191406 -5.25 1.335938 -5.65625 1.515625 -6.0625 L 9.734375 -27.25 C 10.191406 -28.457031 10.816406 -29.40625 11.609375 -30.09375 C 12.398438 -30.789062 13.503906 -31.140625 14.921875 -31.140625 C 16.335938 -31.140625 17.441406 -30.789062 18.234375 -30.09375 C 19.023438 -29.40625 19.648438 -28.457031 20.109375 -27.25 L 28.328125 -6.0625 C 28.503906 -5.65625 28.648438 -5.25 28.765625 -4.84375 C 28.878906 -4.5 28.976562 -4.140625 29.0625 -3.765625 C 29.144531 -3.390625 29.1875 -3.070312 29.1875 -2.8125 C 29.1875 -1.945312 28.851562 -1.1875 28.1875 -0.53125 C 27.53125 0.113281 26.710938 0.4375 25.734375 0.4375 C 24.753906 0.4375 23.984375 0.171875 23.421875 -0.359375 C 22.859375 -0.898438 22.40625 -1.644531 22.0625 -2.59375 L 20.546875 -6.703125 L 9.296875 -6.703125 L 7.78125 -2.59375 C 7.4375 -1.644531 6.984375 -0.898438 6.421875 -0.359375 C 5.859375 0.171875 5.085938 0.4375 4.109375 0.4375 Z M 18.59375 -12.765625 L 15.140625 -22.921875 L 14.703125 -22.921875 L 11.25 -12.765625 Z M 18.59375 -12.765625 "/></g></g></g><g fill="#0071af" fill-opacity="1"><g transform="translate(239.324172, 222.027055)"><g><path d="M 6.484375 0.4375 C 5.503906 0.4375 4.679688 0.113281 4.015625 -0.53125 C 3.359375 -1.1875 3.03125 -1.945312 3.03125 -2.8125 L 3.03125 -27.46875 C 3.03125 -28.332031 3.367188 -29.085938 4.046875 -29.734375 C 4.722656 -30.378906 5.609375 -30.703125 6.703125 -30.703125 C 7.679688 -30.703125 8.5 -30.414062 9.15625 -29.84375 C 9.820312 -29.269531 10.445312 -28.550781 11.03125 -27.6875 L 21.1875 -12.328125 L 21.625 -12.328125 L 21.625 -27.46875 C 21.625 -28.332031 21.953125 -29.085938 22.609375 -29.734375 C 23.273438 -30.378906 24.097656 -30.703125 25.078125 -30.703125 C 26.066406 -30.703125 26.890625 -30.378906 27.546875 -29.734375 C 28.210938 -29.085938 28.546875 -28.332031 28.546875 -27.46875 L 28.546875 -2.8125 C 28.546875 -1.914062 28.207031 -1.148438 27.53125 -0.515625 C 26.851562 0.117188 25.96875 0.4375 24.875 0.4375 C 23.882812 0.4375 23.054688 0.148438 22.390625 -0.421875 C 21.734375 -1.003906 21.117188 -1.726562 20.546875 -2.59375 L 10.375 -17.953125 L 9.953125 -17.953125 L 9.953125 -2.8125 C 9.953125 -1.945312 9.617188 -1.1875 8.953125 -0.53125 C 8.285156 0.113281 7.460938 0.4375 6.484375 0.4375 Z M 6.484375 0.4375 "/></g></g></g><g fill="#0071af" fill-opacity="1"><g transform="translate(270.890992, 222.027055)"><g><path d="M 6.703125 0.4375 C 5.722656 0.4375 4.898438 0.113281 4.234375 -0.53125 C 3.578125 -1.1875 3.25 -1.945312 3.25 -2.8125 L 3.25 -27.46875 C 3.25 -28.332031 3.578125 -29.085938 4.234375 -29.734375 C 4.898438 -30.378906 5.722656 -30.703125 6.703125 -30.703125 C 7.679688 -30.703125 8.5 -30.378906 9.15625 -29.734375 C 9.820312 -29.085938 10.15625 -28.332031 10.15625 -27.46875 L 10.15625 -2.8125 C 10.15625 -1.945312 9.820312 -1.1875 9.15625 -0.53125 C 8.5 0.113281 7.679688 0.4375 6.703125 0.4375 Z M 6.703125 0.4375 "/></g></g></g><g fill="#0071af" fill-opacity="1"><g transform="translate(284.296074, 222.027055)"><g><path d="M 6.484375 0.4375 C 5.503906 0.4375 4.679688 0.113281 4.015625 -0.53125 C 3.359375 -1.1875 3.03125 -1.945312 3.03125 -2.8125 L 3.03125 -27.46875 C 3.03125 -28.332031 3.367188 -29.085938 4.046875 -29.734375 C 4.722656 -30.378906 5.609375 -30.703125 6.703125 -30.703125 C 7.679688 -30.703125 8.5 -30.414062 9.15625 -29.84375 C 9.820312 -29.269531 10.445312 -28.550781 11.03125 -27.6875 L 21.1875 -12.328125 L 21.625 -12.328125 L 21.625 -27.46875 C 21.625 -28.332031 21.953125 -29.085938 22.609375 -29.734375 C 23.273438 -30.378906 24.097656 -30.703125 25.078125 -30.703125 C 26.066406 -30.703125 26.890625 -30.378906 27.546875 -29.734375 C 28.210938 -29.085938 28.546875 -28.332031 28.546875 -27.46875 L 28.546875 -2.8125 C 28.546875 -1.914062 28.207031 -1.148438 27.53125 -0.515625 C 26.851562 0.117188 25.96875 0.4375 24.875 0.4375 C 23.882812 0.4375 23.054688 0.148438 22.390625 -0.421875 C 21.734375 -1.003906 21.117188 -1.726562 20.546875 -2.59375 L 10.375 -17.953125 L 9.953125 -17.953125 L 9.953125 -2.8125 C 9.953125 -1.945312 9.617188 -1.1875 8.953125 -0.53125 C 8.285156 0.113281 7.460938 0.4375 6.484375 0.4375 Z M 6.484375 0.4375 "/></g></g></g><g fill="#0071af" fill-opacity="1"><g transform="translate(315.862894, 222.027055)"><g><path d="M 15.78125 0.859375 C 13.820312 0.859375 12.035156 0.546875 10.421875 -0.078125 C 8.804688 -0.710938 7.421875 -1.59375 6.265625 -2.71875 C 5.117188 -3.84375 4.21875 -5.171875 3.5625 -6.703125 C 2.914062 -8.234375 2.59375 -9.890625 2.59375 -11.671875 L 2.59375 -18.59375 C 2.59375 -20.382812 2.914062 -22.039062 3.5625 -23.5625 C 4.21875 -25.09375 5.117188 -26.421875 6.265625 -27.546875 C 7.421875 -28.671875 8.804688 -29.550781 10.421875 -30.1875 C 12.035156 -30.820312 13.820312 -31.140625 15.78125 -31.140625 C 17.507812 -31.140625 19.066406 -30.898438 20.453125 -30.421875 C 21.835938 -29.953125 23.019531 -29.351562 24 -28.625 C 24.976562 -27.90625 25.726562 -27.128906 26.25 -26.296875 C 26.769531 -25.460938 27.03125 -24.695312 27.03125 -24 C 27.03125 -23.132812 26.734375 -22.410156 26.140625 -21.828125 C 25.554688 -21.253906 24.769531 -20.96875 23.78125 -20.96875 C 22.976562 -20.96875 22.332031 -21.1875 21.84375 -21.625 C 21.351562 -22.0625 20.851562 -22.53125 20.34375 -23.03125 C 19.84375 -23.53125 19.253906 -23.992188 18.578125 -24.421875 C 17.898438 -24.859375 16.96875 -25.078125 15.78125 -25.078125 C 13.9375 -25.078125 12.46875 -24.515625 11.375 -23.390625 C 10.28125 -22.273438 9.734375 -20.675781 9.734375 -18.59375 L 9.734375 -11.671875 C 9.734375 -9.597656 10.28125 -8 11.375 -6.875 C 12.46875 -5.75 13.9375 -5.1875 15.78125 -5.1875 C 16.707031 -5.1875 17.476562 -5.269531 18.09375 -5.4375 C 18.71875 -5.613281 19.234375 -5.820312 19.640625 -6.0625 C 20.097656 -6.3125 20.472656 -6.597656 20.765625 -6.921875 L 20.765625 -11.46875 L 18.171875 -11.46875 C 17.066406 -11.46875 16.210938 -11.753906 15.609375 -12.328125 C 15.003906 -12.898438 14.703125 -13.617188 14.703125 -14.484375 C 14.703125 -15.347656 15.003906 -16.066406 15.609375 -16.640625 C 16.210938 -17.222656 17.066406 -17.515625 18.171875 -17.515625 L 24.21875 -17.515625 C 25.195312 -17.515625 26.019531 -17.1875 26.6875 -16.53125 C 27.351562 -15.882812 27.6875 -15.128906 27.6875 -14.265625 L 27.6875 -6.0625 C 27.6875 -5.445312 27.410156 -4.742188 26.859375 -3.953125 C 26.304688 -3.160156 25.519531 -2.410156 24.5 -1.703125 C 23.476562 -1.003906 22.226562 -0.40625 20.75 0.09375 C 19.28125 0.601562 17.625 0.859375 15.78125 0.859375 Z M 15.78125 0.859375 "/></g></g></g></svg>