<svg xmlns="http://www.w3.org/2000/svg" xmlns:xlink="http://www.w3.org/1999/xlink" width="1024" zoomAndPan="magnify" viewBox="0 0 768 767.999994" height="1024" preserveAspectRatio="xMidYMid meet" version="1.0"><path fill="#100f0d" d="M 583.507812 276.617188 C 581.035156 274.148438 577.820312 272.910156 574.554688 272.910156 C 571.339844 272.910156 568.125 274.148438 565.652344 276.617188 L 538.789062 303.417969 L 449.257812 213.921875 L 471.171875 192.019531 C 485.714844 177.480469 492.191406 157.457031 488.878906 137.136719 C 485.613281 116.8125 473.148438 99.855469 454.699219 90.65625 L 354.179688 40.421875 L 354.875 39.730469 L 534.488281 75.625 C 556.597656 80.078125 576.78125 90.855469 592.710938 106.824219 L 664.140625 178.175781 L 637.230469 205.023438 C 634.855469 207.394531 633.570312 210.609375 633.570312 213.972656 C 633.570312 217.285156 634.855469 220.546875 637.230469 222.921875 L 664.089844 249.769531 C 667.105469 252.738281 671.410156 254.074219 675.566406 253.230469 L 707.027344 246.953125 C 711.230469 246.0625 715.484375 247.398438 718.503906 250.363281 L 735.765625 267.667969 L 628.324219 375.0625 L 611.011719 357.808594 C 607.996094 354.792969 606.707031 350.539062 607.550781 346.386719 L 613.882812 314.890625 C 614.671875 310.734375 613.386719 306.433594 610.367188 303.46875 Z M 113.527344 692.695312 C 98.785156 707.480469 74.644531 707.480469 59.804688 692.746094 C 45.015625 677.863281 45.015625 653.734375 59.804688 639 L 449.207031 249.722656 L 502.976562 303.46875 Z M 597.707031 526.808594 C 628.820312 523.152344 659.339844 533.683594 681.503906 555.683594 C 707.375 581.59375 716.96875 619.074219 707.667969 653.488281 L 651.820312 597.664062 C 649.449219 595.289062 646.230469 593.957031 642.820312 593.957031 L 589.148438 593.957031 C 582.171875 593.957031 576.484375 599.640625 576.484375 606.613281 L 576.484375 660.261719 C 576.484375 663.621094 577.820312 666.886719 580.195312 669.257812 L 636.042969 725.082031 C 601.613281 734.328125 564.117188 724.785156 538.199219 698.925781 C 516.183594 676.824219 505.648438 646.269531 509.308594 615.214844 C 511.683594 595.4375 505.105469 576.203125 491.351562 562.605469 L 385.445312 456.746094 L 439.214844 403 L 545.074219 508.8125 C 558.726562 522.65625 578.019531 529.183594 597.707031 526.808594 Z M 158.046875 255.605469 C 155.375 255.605469 152.703125 255.753906 150.03125 256.050781 C 118.867188 259.707031 88.347656 249.175781 66.238281 227.175781 C 40.367188 201.265625 30.769531 163.785156 40.070312 129.371094 L 95.917969 185.195312 C 98.289062 187.570312 101.554688 188.902344 104.917969 188.902344 L 158.589844 188.902344 C 165.566406 188.902344 171.253906 183.21875 171.253906 176.246094 L 171.253906 122.597656 C 171.253906 119.238281 169.917969 115.972656 167.542969 113.601562 L 111.695312 57.777344 C 146.125 48.480469 183.621094 58.023438 209.492188 83.933594 C 231.554688 106.035156 242.089844 136.589844 238.480469 167.644531 C 236.054688 187.421875 242.585938 206.65625 256.386719 220.253906 L 349.628906 313.457031 L 295.859375 367.203125 L 202.664062 274.046875 C 190.84375 262.082031 174.914062 255.605469 158.046875 255.605469 Z M 593.105469 375.707031 L 619.371094 401.910156 C 621.84375 404.382812 625.0625 405.621094 628.324219 405.621094 C 631.539062 405.621094 634.757812 404.382812 637.230469 401.910156 L 762.628906 276.617188 C 767.574219 271.675781 767.574219 263.664062 762.628906 258.71875 L 736.410156 232.515625 C 727.40625 223.464844 714.59375 219.609375 702.082031 222.082031 L 677.246094 227.074219 L 664.089844 213.972656 L 691 187.125 C 693.375 184.75 694.710938 181.488281 694.710938 178.175781 C 694.710938 174.8125 693.375 171.597656 691 169.226562 L 610.664062 88.878906 C 591.125 69.394531 566.492188 56.242188 539.484375 50.804688 L 353.191406 13.574219 C 349.035156 12.734375 344.734375 14.066406 341.765625 17.035156 L 323.859375 34.933594 C 320.988281 37.800781 319.652344 41.90625 320.296875 45.910156 C 320.941406 49.964844 323.511719 53.375 327.125 55.207031 L 443.371094 113.304688 C 454.402344 118.839844 461.917969 129.027344 463.898438 141.191406 C 465.878906 153.402344 462.019531 165.417969 453.261719 174.121094 L 422.347656 205.023438 C 419.972656 207.394531 418.636719 210.609375 418.636719 213.972656 C 418.636719 217.285156 419.972656 220.546875 422.347656 222.921875 L 431.300781 231.820312 L 367.539062 295.554688 L 274.242188 202.304688 C 266.03125 194.195312 262.125 182.675781 263.609375 170.609375 C 268.160156 131.796875 254.953125 93.671875 227.449219 66.035156 C 189.507812 28.109375 131.582031 18.222656 83.351562 41.410156 C 79.640625 43.191406 77.019531 46.652344 76.328125 50.707031 C 75.636719 54.761719 76.972656 58.863281 79.839844 61.78125 L 145.925781 127.789062 L 145.925781 163.589844 L 110.113281 163.589844 L 44.074219 97.53125 C 41.15625 94.664062 37.050781 93.375 32.996094 94.019531 C 28.9375 94.710938 25.476562 97.332031 23.695312 101.039062 C 0.496094 149.25 10.390625 207.148438 48.328125 245.074219 C 76.03125 272.566406 114.121094 285.765625 153.050781 281.21875 C 165.019531 279.734375 176.546875 283.640625 184.707031 291.898438 L 277.953125 385.101562 L 41.847656 621.101562 C 17.265625 645.675781 17.214844 685.875 41.898438 710.644531 C 54.265625 722.957031 70.492188 729.085938 86.714844 729.085938 C 102.941406 729.085938 119.164062 722.90625 131.433594 710.644531 L 367.539062 474.644531 L 473.496094 580.554688 C 481.707031 588.664062 485.613281 600.183594 484.128906 612.25 C 479.578125 651.0625 492.738281 689.136719 520.289062 716.824219 C 544.527344 741.054688 576.980469 753.859375 609.824219 753.859375 C 628.324219 753.859375 647.023438 749.804688 664.4375 741.449219 C 668.097656 739.667969 670.71875 736.207031 671.410156 732.152344 C 672.101562 728.097656 670.769531 723.996094 667.898438 721.078125 L 601.8125 655.070312 L 601.8125 619.269531 L 637.625 619.269531 L 703.664062 685.328125 C 706.582031 688.195312 710.738281 689.484375 714.742188 688.839844 C 718.800781 688.148438 722.261719 685.527344 724.042969 681.820312 C 747.242188 633.609375 737.351562 575.710938 699.410156 537.785156 C 671.757812 510.292969 633.617188 497.09375 594.6875 501.640625 C 582.71875 503.125 571.242188 499.21875 563.03125 490.960938 L 457.121094 385.101562 L 520.882812 321.367188 L 529.789062 330.316406 C 534.734375 335.261719 542.75 335.261719 547.695312 330.316406 L 574.554688 303.46875 L 587.714844 316.570312 L 582.71875 341.390625 C 580.195312 353.851562 584.101562 366.707031 593.105469 375.707031 " fill-opacity="1" fill-rule="nonzero"/></svg>