<svg xmlns="http://www.w3.org/2000/svg" xmlns:xlink="http://www.w3.org/1999/xlink" width="700" zoomAndPan="magnify" viewBox="0 0 525 149.999998" height="200" preserveAspectRatio="xMidYMid meet" version="1.0"><defs><g/><clipPath id="e356d73c22"><path d="M 66 53 L 117.75 53 L 117.75 126.371094 L 66 126.371094 Z M 66 53 " clip-rule="nonzero"/></clipPath><clipPath id="c4ddcfff89"><path d="M 15 74 L 97 74 L 97 126.371094 L 15 126.371094 Z M 15 74 " clip-rule="nonzero"/></clipPath><clipPath id="9a5db2dd81"><path d="M 69 23.621094 L 97 23.621094 L 97 52 L 69 52 Z M 69 23.621094 " clip-rule="nonzero"/></clipPath></defs><path fill="#817bb8" d="M 15 105.140625 L 66.378906 74.992188 L 44.09375 37.019531 C 36.308594 23.757812 15.714844 28.511719 15.019531 43.875 C 15.007812 44.199219 15 44.523438 15 44.847656 L 15 105.140625 " fill-opacity="1" fill-rule="nonzero"/><g clip-path="url(#e356d73c22)"><path fill="#e62b4a" d="M 96.523438 126.371094 C 108.246094 126.371094 117.753906 116.867188 117.753906 105.140625 L 117.75 64.96875 C 117.75 56.0625 108.078125 50.523438 100.394531 55.03125 L 66.378906 74.996094 L 96.523438 126.371094 " fill-opacity="1" fill-rule="nonzero"/></g><g clip-path="url(#c4ddcfff89)"><path fill="#985288" d="M 36.226562 126.371094 L 96.523438 126.371094 L 66.378906 74.996094 L 15 105.140625 C 15 105.644531 15.015625 106.144531 15.054688 106.640625 C 15.820312 117.664062 25.007812 126.371094 36.226562 126.371094 " fill-opacity="1" fill-rule="nonzero"/></g><g clip-path="url(#9a5db2dd81)"><path fill="#c6488c" d="M 96.523438 37.351562 C 96.523438 44.933594 90.378906 51.082031 82.792969 51.082031 C 75.210938 51.082031 69.0625 44.933594 69.0625 37.351562 C 69.066406 29.769531 75.210938 23.621094 82.792969 23.621094 C 90.378906 23.621094 96.523438 29.765625 96.523438 37.351562 Z M 96.523438 37.351562 " fill-opacity="1" fill-rule="nonzero"/></g><g fill="#ffffff" fill-opacity="1"><g transform="translate(130.2221, 95.337176)"><g><path d="M 27.546875 -9.984375 C 29.859375 -9.984375 32.125 -10.507812 34.34375 -11.5625 C 36.5625 -12.625 38.800781 -14.410156 41.0625 -16.921875 L 48.15625 -10.1875 C 45.3125 -6.53125 42.066406 -3.757812 38.421875 -1.875 C 34.785156 0 31.039062 0.9375 27.1875 0.9375 C 23.71875 0.9375 20.460938 0.226562 17.421875 -1.1875 C 14.390625 -2.613281 11.75 -4.53125 9.5 -6.9375 C 7.257812 -9.351562 5.5 -12.160156 4.21875 -15.359375 C 2.945312 -18.566406 2.3125 -21.976562 2.3125 -25.59375 C 2.3125 -29.207031 2.972656 -32.601562 4.296875 -35.78125 C 5.628906 -38.96875 7.425781 -41.765625 9.6875 -44.171875 C 11.945312 -46.578125 14.617188 -48.476562 17.703125 -49.875 C 20.796875 -51.28125 24.078125 -51.984375 27.546875 -51.984375 C 30.773438 -51.984375 33.847656 -51.378906 36.765625 -50.171875 C 39.679688 -48.960938 42.535156 -46.960938 45.328125 -44.171875 L 38.96875 -36.4375 C 36.945312 -38.3125 35.03125 -39.570312 33.21875 -40.21875 C 31.414062 -40.875 29.523438 -41.203125 27.546875 -41.203125 C 25.566406 -41.203125 23.695312 -40.789062 21.9375 -39.96875 C 20.175781 -39.15625 18.644531 -38.050781 17.34375 -36.65625 C 16.050781 -35.257812 15.03125 -33.609375 14.28125 -31.703125 C 13.53125 -29.796875 13.15625 -27.757812 13.15625 -25.59375 C 13.15625 -23.425781 13.53125 -21.398438 14.28125 -19.515625 C 15.03125 -17.640625 16.050781 -15.988281 17.34375 -14.5625 C 18.644531 -13.144531 20.175781 -12.023438 21.9375 -11.203125 C 23.695312 -10.390625 25.566406 -9.984375 27.546875 -9.984375 Z M 27.546875 -9.984375 "/></g></g></g><g fill="#ffffff" fill-opacity="1"><g transform="translate(179.024483, 95.337176)"><g><path d="M 13.078125 -30.875 C 13.566406 -31.644531 14.125 -32.378906 14.75 -33.078125 C 15.375 -33.773438 16.117188 -34.398438 16.984375 -34.953125 C 17.859375 -35.503906 18.847656 -35.945312 19.953125 -36.28125 C 21.054688 -36.625 22.3125 -36.796875 23.71875 -36.796875 C 25.351562 -36.796875 27.253906 -36.507812 29.421875 -35.9375 L 28.484375 -27.03125 C 27.953125 -27.132812 27.421875 -27.257812 26.890625 -27.40625 C 26.460938 -27.5 25.984375 -27.582031 25.453125 -27.65625 C 24.921875 -27.726562 24.4375 -27.765625 24 -27.765625 C 22.457031 -27.765625 21.023438 -27.546875 19.703125 -27.109375 C 18.378906 -26.671875 17.234375 -26.066406 16.265625 -25.296875 C 15.304688 -24.523438 14.535156 -23.597656 13.953125 -22.515625 C 13.367188 -21.429688 13.078125 -20.265625 13.078125 -19.015625 L 13.078125 0 L 3.109375 0 L 3.109375 -35.859375 L 12.140625 -35.859375 Z M 13.078125 -30.875 "/></g></g></g><g fill="#ffffff" fill-opacity="1"><g transform="translate(207.365942, 95.337176)"><g><path d="M 20.890625 -36.875 C 23.441406 -36.875 25.847656 -36.378906 28.109375 -35.390625 C 30.378906 -34.398438 32.359375 -33.050781 34.046875 -31.34375 C 35.734375 -29.632812 37.070312 -27.632812 38.0625 -25.34375 C 39.050781 -23.050781 39.546875 -20.601562 39.546875 -18 C 39.546875 -15.394531 39.050781 -12.945312 38.0625 -10.65625 C 37.070312 -8.375 35.734375 -6.375 34.046875 -4.65625 C 32.359375 -2.945312 30.378906 -1.597656 28.109375 -0.609375 C 25.847656 0.378906 23.441406 0.875 20.890625 0.875 C 18.285156 0.875 15.847656 0.378906 13.578125 -0.609375 C 11.316406 -1.597656 9.34375 -2.945312 7.65625 -4.65625 C 5.976562 -6.375 4.644531 -8.375 3.65625 -10.65625 C 2.664062 -12.945312 2.171875 -15.394531 2.171875 -18 C 2.171875 -20.601562 2.664062 -23.050781 3.65625 -25.34375 C 4.644531 -27.632812 5.976562 -29.632812 7.65625 -31.34375 C 9.34375 -33.050781 11.316406 -34.398438 13.578125 -35.390625 C 15.847656 -36.378906 18.285156 -36.875 20.890625 -36.875 Z M 20.890625 -7.875 C 22.097656 -7.875 23.21875 -8.113281 24.25 -8.59375 C 25.289062 -9.082031 26.207031 -9.75 27 -10.59375 C 27.800781 -11.4375 28.425781 -12.445312 28.875 -13.625 C 29.332031 -14.8125 29.5625 -16.125 29.5625 -17.5625 C 29.5625 -19.007812 29.332031 -20.359375 28.875 -21.609375 C 28.425781 -22.867188 27.800781 -23.96875 27 -24.90625 C 26.207031 -25.84375 25.289062 -26.585938 24.25 -27.140625 C 23.21875 -27.703125 22.097656 -27.984375 20.890625 -27.984375 C 19.691406 -27.984375 18.5625 -27.703125 17.5 -27.140625 C 16.4375 -26.585938 15.503906 -25.84375 14.703125 -24.90625 C 13.910156 -23.96875 13.285156 -22.867188 12.828125 -21.609375 C 12.367188 -20.359375 12.140625 -19.007812 12.140625 -17.5625 C 12.140625 -16.125 12.367188 -14.8125 12.828125 -13.625 C 13.285156 -12.445312 13.910156 -11.4375 14.703125 -10.59375 C 15.503906 -9.75 16.4375 -9.082031 17.5 -8.59375 C 18.5625 -8.113281 19.691406 -7.875 20.890625 -7.875 Z M 20.890625 -7.875 "/></g></g></g><g fill="#ffffff" fill-opacity="1"><g transform="translate(247.419999, 95.337176)"><g><path d="M 14.453125 0 L 4.484375 0 L 4.484375 -35.859375 L 14.453125 -35.859375 Z M 17.78125 -51.328125 L 13.234375 -38.390625 L 5.859375 -38.390625 L 6.859375 -51.328125 Z M 17.78125 -51.328125 "/></g></g></g><g fill="#ffffff" fill-opacity="1"><g transform="translate(264.916428, 95.337176)"><g/></g></g><g fill="#ffffff" fill-opacity="1"><g transform="translate(283.352774, 95.337176)"><g><path d="M 24.140625 -51.265625 C 27.859375 -51.265625 31.140625 -50.585938 33.984375 -49.234375 C 36.828125 -47.878906 39.195312 -46.046875 41.09375 -43.734375 C 43 -41.421875 44.445312 -38.695312 45.4375 -35.5625 C 46.425781 -32.4375 46.921875 -29.113281 46.921875 -25.59375 C 46.921875 -22.03125 46.398438 -18.691406 45.359375 -15.578125 C 44.328125 -12.472656 42.894531 -9.757812 41.0625 -7.4375 C 39.226562 -5.125 37.054688 -3.304688 34.546875 -1.984375 C 32.046875 -0.660156 29.328125 0 26.390625 0 L 3.46875 0 L 3.46875 -51.265625 Z M 24.21875 -9.90625 C 26.289062 -9.90625 28.0625 -10.328125 29.53125 -11.171875 C 31 -12.015625 32.210938 -13.15625 33.171875 -14.59375 C 34.140625 -16.039062 34.851562 -17.703125 35.3125 -19.578125 C 35.769531 -21.460938 36 -23.441406 36 -25.515625 C 36 -27.585938 35.78125 -29.578125 35.34375 -31.484375 C 34.914062 -33.390625 34.21875 -35.0625 33.25 -36.5 C 32.289062 -37.945312 31.0625 -39.101562 29.5625 -39.96875 C 28.070312 -40.84375 26.289062 -41.28125 24.21875 -41.28125 L 14.453125 -41.28125 L 14.453125 -9.90625 Z M 24.21875 -9.90625 "/></g></g></g><g fill="#ffffff" fill-opacity="1"><g transform="translate(331.287559, 95.337176)"><g><path d="M 20.96875 -36.875 C 23.664062 -36.875 26.125 -36.332031 28.34375 -35.25 C 30.5625 -34.164062 32.460938 -32.742188 34.046875 -30.984375 C 35.640625 -29.222656 36.867188 -27.195312 37.734375 -24.90625 C 38.609375 -22.613281 39.046875 -20.265625 39.046875 -17.859375 C 39.046875 -16.410156 38.851562 -14.867188 38.46875 -13.234375 L 12.875 -13.234375 C 13.832031 -11.585938 15.203125 -10.195312 16.984375 -9.0625 C 18.773438 -7.9375 20.707031 -7.375 22.78125 -7.375 C 24.84375 -7.375 26.65625 -7.539062 28.21875 -7.875 C 29.789062 -8.21875 31.273438 -8.65625 32.671875 -9.1875 L 36 -3.03125 C 34.21875 -1.78125 32.179688 -0.816406 29.890625 -0.140625 C 27.597656 0.535156 25.15625 0.875 22.5625 0.875 C 19.71875 0.875 17.066406 0.378906 14.609375 -0.609375 C 12.148438 -1.597656 10.003906 -2.9375 8.171875 -4.625 C 6.335938 -6.3125 4.890625 -8.3125 3.828125 -10.625 C 2.765625 -12.9375 2.234375 -15.394531 2.234375 -18 C 2.234375 -20.550781 2.71875 -22.972656 3.6875 -25.265625 C 4.65625 -27.554688 5.992188 -29.554688 7.703125 -31.265625 C 9.410156 -32.972656 11.394531 -34.332031 13.65625 -35.34375 C 15.925781 -36.363281 18.363281 -36.875 20.96875 -36.875 Z M 29.140625 -20.96875 C 28.554688 -23.039062 27.515625 -24.726562 26.015625 -26.03125 C 24.523438 -27.332031 22.84375 -27.984375 20.96875 -27.984375 C 19.039062 -27.984375 17.289062 -27.332031 15.71875 -26.03125 C 14.15625 -24.726562 13.082031 -23.039062 12.5 -20.96875 Z M 29.140625 -20.96875 "/></g></g></g><g fill="#ffffff" fill-opacity="1"><g transform="translate(372.859941, 95.337176)"><g><path d="M 26.03125 -18.796875 C 28.675781 -16.921875 30 -14.242188 30 -10.765625 C 30 -9.179688 29.625 -7.6875 28.875 -6.28125 C 28.132812 -4.882812 27.113281 -3.65625 25.8125 -2.59375 C 24.507812 -1.539062 22.988281 -0.710938 21.25 -0.109375 C 19.519531 0.492188 17.664062 0.796875 15.6875 0.796875 C 14.195312 0.796875 12.738281 0.601562 11.3125 0.21875 C 9.894531 -0.164062 8.582031 -0.695312 7.375 -1.375 C 6.164062 -2.050781 5.113281 -2.859375 4.21875 -3.796875 C 3.332031 -4.734375 2.671875 -5.78125 2.234375 -6.9375 C 3.347656 -7.46875 4.578125 -8.054688 5.921875 -8.703125 C 7.273438 -9.359375 8.457031 -9.953125 9.46875 -10.484375 C 9.90625 -9.765625 10.582031 -9.101562 11.5 -8.5 C 12.414062 -7.894531 13.664062 -7.59375 15.25 -7.59375 C 16.894531 -7.59375 18.101562 -7.976562 18.875 -8.75 C 19.644531 -9.519531 20.03125 -10.242188 20.03125 -10.921875 C 20.03125 -11.398438 19.765625 -11.84375 19.234375 -12.25 C 18.703125 -12.664062 18.097656 -12.992188 17.421875 -13.234375 C 16.460938 -13.617188 15.664062 -13.820312 15.03125 -13.84375 C 14.40625 -13.863281 13.6875 -14 12.875 -14.25 C 10.269531 -14.875 8.28125 -15.703125 6.90625 -16.734375 C 5.53125 -17.773438 4.53125 -18.820312 3.90625 -19.875 C 3.28125 -20.9375 2.929688 -21.945312 2.859375 -22.90625 C 2.785156 -23.875 2.75 -24.648438 2.75 -25.234375 C 2.75 -26.773438 3.082031 -28.242188 3.75 -29.640625 C 4.425781 -31.035156 5.351562 -32.25 6.53125 -33.28125 C 7.71875 -34.320312 9.09375 -35.15625 10.65625 -35.78125 C 12.226562 -36.414062 13.90625 -36.734375 15.6875 -36.734375 C 17.175781 -36.734375 18.597656 -36.515625 19.953125 -36.078125 C 21.304688 -35.640625 22.535156 -35.035156 23.640625 -34.265625 C 24.742188 -33.492188 25.691406 -32.578125 26.484375 -31.515625 C 27.285156 -30.460938 27.878906 -29.285156 28.265625 -27.984375 L 20.53125 -25.375 C 20.238281 -26.238281 19.644531 -26.9375 18.75 -27.46875 C 17.863281 -28 16.914062 -28.265625 15.90625 -28.265625 C 14.894531 -28.265625 14.070312 -27.925781 13.4375 -27.25 C 12.8125 -26.582031 12.5 -25.910156 12.5 -25.234375 C 12.5 -24.410156 12.800781 -23.769531 13.40625 -23.3125 C 14.007812 -22.851562 14.675781 -22.53125 15.40625 -22.34375 C 15.925781 -22.238281 16.441406 -22.148438 16.953125 -22.078125 C 17.460938 -22.015625 17.957031 -21.929688 18.4375 -21.828125 C 20.125 -21.441406 21.582031 -21.007812 22.8125 -20.53125 C 24.039062 -20.050781 25.113281 -19.472656 26.03125 -18.796875 Z M 26.03125 -18.796875 "/></g></g></g><g fill="#ffffff" fill-opacity="1"><g transform="translate(403.442684, 95.337176)"><g><path d="M 14.09375 0 L 4.125 0 L 4.125 -35.859375 L 14.09375 -35.859375 Z M 9.109375 -40.78125 C 7.566406 -40.78125 6.265625 -41.304688 5.203125 -42.359375 C 4.140625 -43.421875 3.609375 -44.722656 3.609375 -46.265625 C 3.609375 -47.804688 4.140625 -49.117188 5.203125 -50.203125 C 6.265625 -51.296875 7.566406 -51.84375 9.109375 -51.84375 C 10.648438 -51.84375 11.953125 -51.296875 13.015625 -50.203125 C 14.078125 -49.117188 14.609375 -47.804688 14.609375 -46.265625 C 14.609375 -44.722656 14.078125 -43.421875 13.015625 -42.359375 C 11.953125 -41.304688 10.648438 -40.78125 9.109375 -40.78125 Z M 9.109375 -40.78125 "/></g></g></g><g fill="#ffffff" fill-opacity="1"><g transform="translate(420.2884, 95.337176)"><g><path d="M 31.375 -35.859375 L 39.90625 -35.859375 L 39.90625 -12.140625 C 39.90625 -9.398438 39.867188 -6.957031 39.796875 -4.8125 C 39.722656 -2.664062 39.539062 -0.738281 39.25 0.96875 C 38.96875 2.6875 38.5 4.21875 37.84375 5.5625 C 37.195312 6.914062 36.296875 8.171875 35.140625 9.328125 C 33.015625 11.398438 30.640625 12.820312 28.015625 13.59375 C 25.390625 14.363281 22.628906 14.75 19.734375 14.75 C 17.273438 14.75 14.960938 14.457031 12.796875 13.875 C 10.628906 13.300781 8.675781 12.507812 6.9375 11.5 L 6.9375 2.171875 C 7.375 2.847656 7.988281 3.445312 8.78125 3.96875 C 9.582031 4.5 10.5 4.957031 11.53125 5.34375 C 12.5625 5.726562 13.664062 6.03125 14.84375 6.25 C 16.03125 6.46875 17.226562 6.578125 18.4375 6.578125 C 20.03125 6.578125 21.523438 6.367188 22.921875 5.953125 C 24.316406 5.546875 25.53125 4.882812 26.5625 3.96875 C 27.601562 3.0625 28.425781 1.921875 29.03125 0.546875 C 29.632812 -0.828125 29.9375 -2.503906 29.9375 -4.484375 L 29.9375 -5.203125 C 28.53125 -3.953125 26.910156 -2.953125 25.078125 -2.203125 C 23.253906 -1.453125 21.257812 -1.078125 19.09375 -1.078125 C 16.675781 -1.078125 14.441406 -1.546875 12.390625 -2.484375 C 10.347656 -3.429688 8.578125 -4.710938 7.078125 -6.328125 C 5.585938 -7.941406 4.421875 -9.84375 3.578125 -12.03125 C 2.734375 -14.226562 2.3125 -16.554688 2.3125 -19.015625 C 2.3125 -21.472656 2.734375 -23.785156 3.578125 -25.953125 C 4.421875 -28.117188 5.585938 -30.007812 7.078125 -31.625 C 8.578125 -33.238281 10.347656 -34.515625 12.390625 -35.453125 C 14.441406 -36.398438 16.675781 -36.875 19.09375 -36.875 C 21.351562 -36.875 23.398438 -36.570312 25.234375 -35.96875 C 27.066406 -35.363281 28.632812 -34.410156 29.9375 -33.109375 Z M 21.109375 -9.984375 C 22.648438 -9.984375 23.972656 -10.257812 25.078125 -10.8125 C 26.191406 -11.363281 27.109375 -12.070312 27.828125 -12.9375 C 28.554688 -13.8125 29.085938 -14.773438 29.421875 -15.828125 C 29.765625 -16.890625 29.9375 -17.925781 29.9375 -18.9375 C 29.9375 -20.050781 29.753906 -21.148438 29.390625 -22.234375 C 29.023438 -23.316406 28.476562 -24.28125 27.75 -25.125 C 27.03125 -25.96875 26.117188 -26.65625 25.015625 -27.1875 C 23.910156 -27.71875 22.609375 -27.984375 21.109375 -27.984375 C 19.859375 -27.984375 18.703125 -27.738281 17.640625 -27.25 C 16.578125 -26.769531 15.648438 -26.117188 14.859375 -25.296875 C 14.066406 -24.484375 13.441406 -23.535156 12.984375 -22.453125 C 12.523438 -21.367188 12.296875 -20.195312 12.296875 -18.9375 C 12.296875 -17.6875 12.523438 -16.519531 12.984375 -15.4375 C 13.441406 -14.351562 14.066406 -13.398438 14.859375 -12.578125 C 15.648438 -11.753906 16.578125 -11.113281 17.640625 -10.65625 C 18.703125 -10.207031 19.859375 -9.984375 21.109375 -9.984375 Z M 21.109375 -9.984375 "/></g></g></g><g fill="#ffffff" fill-opacity="1"><g transform="translate(461.716158, 95.337176)"><g><path d="M 21.90625 -35.859375 C 23.257812 -35.859375 24.753906 -35.664062 26.390625 -35.28125 C 28.023438 -34.894531 29.566406 -34.171875 31.015625 -33.109375 C 32.460938 -32.046875 33.675781 -30.570312 34.65625 -28.6875 C 35.644531 -26.8125 36.140625 -24.382812 36.140625 -21.40625 L 36.140625 0 L 26.09375 0 L 26.09375 -21.03125 C 26.09375 -22.144531 25.910156 -23.085938 25.546875 -23.859375 C 25.191406 -24.628906 24.710938 -25.242188 24.109375 -25.703125 C 23.503906 -26.160156 22.816406 -26.492188 22.046875 -26.703125 C 21.273438 -26.921875 20.503906 -27.03125 19.734375 -27.03125 C 19.109375 -27.03125 18.421875 -26.921875 17.671875 -26.703125 C 16.929688 -26.492188 16.234375 -26.144531 15.578125 -25.65625 C 14.929688 -25.175781 14.390625 -24.550781 13.953125 -23.78125 C 13.515625 -23.007812 13.296875 -22.09375 13.296875 -21.03125 L 13.296875 0 L 3.328125 0 L 3.328125 -35.859375 L 11.859375 -35.859375 L 13.296875 -33.109375 C 14.453125 -33.929688 15.753906 -34.59375 17.203125 -35.09375 C 18.648438 -35.601562 20.21875 -35.859375 21.90625 -35.859375 Z M 21.90625 -35.859375 "/></g></g></g></svg>