<svg xmlns="http://www.w3.org/2000/svg" xmlns:xlink="http://www.w3.org/1999/xlink" width="700" zoomAndPan="magnify" viewBox="0 0 525 149.999998" height="200" preserveAspectRatio="xMidYMid meet" version="1.0"><defs><g/><clipPath id="260faf37d3"><path d="M 121.230469 33 L 173 33 L 173 110 L 121.230469 110 Z M 121.230469 33 " clip-rule="nonzero"/></clipPath><clipPath id="bd26f69045"><path d="M 172 57 L 223.980469 57 L 223.980469 130.679688 L 172 130.679688 Z M 172 57 " clip-rule="nonzero"/></clipPath><clipPath id="9b5e1660ee"><path d="M 121.230469 79 L 203 79 L 203 130.679688 L 121.230469 130.679688 Z M 121.230469 79 " clip-rule="nonzero"/></clipPath><clipPath id="3ab6aa68bf"><path d="M 175 27.929688 L 203 27.929688 L 203 56 L 175 56 Z M 175 27.929688 " clip-rule="nonzero"/></clipPath></defs><g fill="#ffffff" fill-opacity="1"><g transform="translate(243.932189, 124.730658)"><g><path d="M 17.390625 -14.96875 L 19.859375 -14.96875 L 15.375 0 L 13.21875 0 L 10.421875 -9.3125 L 10.0625 -11 L 9.6875 -9.21875 L 6.921875 0 L 4.75 0 L 0.25 -14.96875 L 2.6875 -14.96875 L 5.765625 -3.5625 L 9.25 -14.96875 L 10.90625 -14.96875 L 14.359375 -3.671875 Z M 17.390625 -14.96875 "/></g></g></g><g fill="#ffffff" fill-opacity="1"><g transform="translate(265.811191, 124.730658)"><g><path d="M 10.328125 -14.96875 L 10.328125 -12.984375 L 3.375 -12.984375 L 3.375 -8.90625 L 9.5625 -8.90625 L 9.5625 -6.859375 L 3.375 -6.859375 L 3.375 -2.046875 L 10.328125 -2.046875 L 10.328125 0 L 1.1875 0 L 1.1875 -14.96875 Z M 10.328125 -14.96875 "/></g></g></g><g fill="#ffffff" fill-opacity="1"><g transform="translate(279.082217, 124.730658)"><g><path d="M 11.78125 -4.171875 C 11.78125 -3.597656 11.671875 -3.054688 11.453125 -2.546875 C 11.234375 -2.046875 10.929688 -1.601562 10.546875 -1.21875 C 10.171875 -0.84375 9.722656 -0.546875 9.203125 -0.328125 C 8.691406 -0.109375 8.148438 0 7.578125 0 L 1.1875 0 L 1.1875 -14.96875 L 7.03125 -14.96875 C 7.539062 -14.96875 8.019531 -14.867188 8.46875 -14.671875 C 8.914062 -14.472656 9.304688 -14.203125 9.640625 -13.859375 C 9.984375 -13.523438 10.253906 -13.128906 10.453125 -12.671875 C 10.648438 -12.210938 10.75 -11.722656 10.75 -11.203125 C 10.75 -10.554688 10.640625 -9.96875 10.421875 -9.4375 C 10.210938 -8.914062 9.867188 -8.472656 9.390625 -8.109375 C 10.191406 -7.804688 10.789062 -7.300781 11.1875 -6.59375 C 11.582031 -5.882812 11.78125 -5.078125 11.78125 -4.171875 Z M 3.375 -8.90625 C 3.9375 -8.894531 4.457031 -8.890625 4.9375 -8.890625 L 7.046875 -8.890625 C 7.585938 -8.890625 8.039062 -9.085938 8.40625 -9.484375 C 8.769531 -9.890625 8.953125 -10.375 8.953125 -10.9375 C 8.953125 -11.507812 8.769531 -11.992188 8.40625 -12.390625 C 8.039062 -12.785156 7.585938 -12.984375 7.046875 -12.984375 L 3.375 -12.984375 Z M 3.375 -2.046875 C 3.476562 -2.035156 3.695312 -2.03125 4.03125 -2.03125 L 7.578125 -2.03125 C 7.867188 -2.03125 8.144531 -2.09375 8.40625 -2.21875 C 8.664062 -2.34375 8.894531 -2.515625 9.09375 -2.734375 C 9.289062 -2.953125 9.445312 -3.207031 9.5625 -3.5 C 9.675781 -3.800781 9.734375 -4.117188 9.734375 -4.453125 C 9.734375 -4.785156 9.675781 -5.097656 9.5625 -5.390625 C 9.445312 -5.679688 9.289062 -5.9375 9.09375 -6.15625 C 8.894531 -6.375 8.664062 -6.546875 8.40625 -6.671875 C 8.144531 -6.796875 7.867188 -6.859375 7.578125 -6.859375 L 3.375 -6.859375 Z M 3.375 -2.046875 "/></g></g></g><g fill="#ffffff" fill-opacity="1"><g transform="translate(293.429244, 124.730658)"><g/></g></g><g fill="#ffffff" fill-opacity="1"><g transform="translate(300.624053, 124.730658)"><g><path d="M 1.265625 0 L 1.265625 -14.96875 L 6.59375 -14.96875 C 7.675781 -14.96875 8.628906 -14.769531 9.453125 -14.375 C 10.285156 -13.976562 10.976562 -13.441406 11.53125 -12.765625 C 12.09375 -12.097656 12.515625 -11.304688 12.796875 -10.390625 C 13.085938 -9.472656 13.234375 -8.5 13.234375 -7.46875 C 13.234375 -6.425781 13.082031 -5.453125 12.78125 -4.546875 C 12.476562 -3.640625 12.054688 -2.847656 11.515625 -2.171875 C 10.984375 -1.492188 10.351562 -0.960938 9.625 -0.578125 C 8.894531 -0.191406 8.109375 0 7.265625 0 Z M 6.5 -2.046875 C 7.300781 -2.046875 7.984375 -2.191406 8.546875 -2.484375 C 9.109375 -2.785156 9.570312 -3.179688 9.9375 -3.671875 C 10.300781 -4.160156 10.566406 -4.734375 10.734375 -5.390625 C 10.910156 -6.054688 11 -6.75 11 -7.46875 C 11 -8.1875 10.910156 -8.878906 10.734375 -9.546875 C 10.566406 -10.210938 10.304688 -10.800781 9.953125 -11.3125 C 9.597656 -11.820312 9.132812 -12.226562 8.5625 -12.53125 C 7.988281 -12.832031 7.300781 -12.984375 6.5 -12.984375 L 3.484375 -12.984375 L 3.484375 -2.046875 Z M 6.5 -2.046875 "/></g></g></g><g fill="#ffffff" fill-opacity="1"><g transform="translate(316.616721, 124.730658)"><g><path d="M 10.328125 -14.96875 L 10.328125 -12.984375 L 3.375 -12.984375 L 3.375 -8.90625 L 9.5625 -8.90625 L 9.5625 -6.859375 L 3.375 -6.859375 L 3.375 -2.046875 L 10.328125 -2.046875 L 10.328125 0 L 1.1875 0 L 1.1875 -14.96875 Z M 10.328125 -14.96875 "/></g></g></g><g fill="#ffffff" fill-opacity="1"><g transform="translate(329.887747, 124.730658)"><g><path d="M 11.171875 -4.203125 C 11.171875 -3.566406 11.039062 -2.976562 10.78125 -2.4375 C 10.53125 -1.894531 10.160156 -1.421875 9.671875 -1.015625 C 8.703125 -0.191406 7.457031 0.21875 5.9375 0.21875 C 4.75 0.21875 3.675781 -0.0234375 2.71875 -0.515625 C 1.757812 -1.003906 1.054688 -1.65625 0.609375 -2.46875 L 2.484375 -3.4375 C 2.765625 -2.9375 3.210938 -2.546875 3.828125 -2.265625 C 4.441406 -1.992188 5.144531 -1.859375 5.9375 -1.859375 C 7.976562 -1.859375 9 -2.640625 9 -4.203125 C 9 -4.492188 8.941406 -4.742188 8.828125 -4.953125 C 8.722656 -5.171875 8.566406 -5.367188 8.359375 -5.546875 C 7.847656 -5.972656 6.941406 -6.351562 5.640625 -6.6875 C 4.847656 -6.882812 4.175781 -7.101562 3.625 -7.34375 C 3.082031 -7.582031 2.628906 -7.863281 2.265625 -8.1875 C 1.367188 -8.90625 0.921875 -9.859375 0.921875 -11.046875 C 0.921875 -11.628906 1.035156 -12.175781 1.265625 -12.6875 C 1.503906 -13.207031 1.835938 -13.65625 2.265625 -14.03125 C 2.691406 -14.414062 3.195312 -14.703125 3.78125 -14.890625 C 4.375 -15.078125 5.019531 -15.171875 5.71875 -15.171875 C 6.75 -15.171875 7.695312 -14.972656 8.5625 -14.578125 C 9.425781 -14.191406 10.082031 -13.640625 10.53125 -12.921875 L 8.828125 -11.859375 C 8.421875 -12.359375 7.945312 -12.707031 7.40625 -12.90625 C 6.875 -13.113281 6.3125 -13.21875 5.71875 -13.21875 C 5.300781 -13.21875 4.914062 -13.144531 4.5625 -13 C 4.207031 -12.863281 3.910156 -12.695312 3.671875 -12.5 C 3.472656 -12.332031 3.328125 -12.125 3.234375 -11.875 C 3.148438 -11.625 3.109375 -11.359375 3.109375 -11.078125 C 3.109375 -10.898438 3.132812 -10.710938 3.1875 -10.515625 C 3.238281 -10.328125 3.367188 -10.128906 3.578125 -9.921875 C 3.796875 -9.722656 4.109375 -9.53125 4.515625 -9.34375 C 4.921875 -9.15625 5.476562 -8.96875 6.1875 -8.78125 C 7.03125 -8.570312 7.738281 -8.34375 8.3125 -8.09375 C 8.894531 -7.84375 9.382812 -7.550781 9.78125 -7.21875 C 10.707031 -6.457031 11.171875 -5.453125 11.171875 -4.203125 Z M 11.171875 -4.203125 "/></g></g></g><g fill="#ffffff" fill-opacity="1"><g transform="translate(343.812812, 124.730658)"><g><path d="M 5.234375 -13.15625 L 5.234375 -1.8125 L 6.328125 -1.8125 L 6.328125 0 L 1.921875 0 L 1.921875 -1.8125 L 3.046875 -1.8125 L 3.046875 -13.15625 L 1.921875 -13.15625 L 1.921875 -14.96875 L 6.328125 -14.96875 L 6.328125 -13.15625 Z M 5.234375 -13.15625 "/></g></g></g><g fill="#ffffff" fill-opacity="1"><g transform="translate(353.792556, 124.730658)"><g><path d="M 9.546875 -8 L 13.609375 -8 L 13.609375 -2.515625 C 12.941406 -1.710938 12.128906 -1.054688 11.171875 -0.546875 C 10.210938 -0.0351562 9.171875 0.21875 8.046875 0.21875 C 7.023438 0.21875 6.066406 0.015625 5.171875 -0.390625 C 4.273438 -0.804688 3.492188 -1.363281 2.828125 -2.0625 C 2.171875 -2.757812 1.644531 -3.570312 1.25 -4.5 C 0.863281 -5.425781 0.671875 -6.414062 0.671875 -7.46875 C 0.671875 -8.507812 0.863281 -9.5 1.25 -10.4375 C 1.644531 -11.375 2.171875 -12.191406 2.828125 -12.890625 C 3.492188 -13.585938 4.273438 -14.140625 5.171875 -14.546875 C 6.066406 -14.953125 7.023438 -15.15625 8.046875 -15.15625 C 8.972656 -15.15625 9.847656 -14.972656 10.671875 -14.609375 C 11.503906 -14.242188 12.253906 -13.765625 12.921875 -13.171875 L 11.609375 -11.5 C 11.140625 -12 10.597656 -12.398438 9.984375 -12.703125 C 9.378906 -13.003906 8.734375 -13.15625 8.046875 -13.15625 C 7.328125 -13.15625 6.65625 -13.003906 6.03125 -12.703125 C 5.40625 -12.398438 4.859375 -11.988281 4.390625 -11.46875 C 3.921875 -10.945312 3.550781 -10.34375 3.28125 -9.65625 C 3.019531 -8.976562 2.890625 -8.25 2.890625 -7.46875 C 2.890625 -6.695312 3.019531 -5.96875 3.28125 -5.28125 C 3.550781 -4.601562 3.921875 -4.003906 4.390625 -3.484375 C 4.859375 -2.972656 5.40625 -2.570312 6.03125 -2.28125 C 6.65625 -1.988281 7.328125 -1.84375 8.046875 -1.84375 C 8.703125 -1.84375 9.316406 -1.972656 9.890625 -2.234375 C 10.472656 -2.492188 10.988281 -2.835938 11.4375 -3.265625 L 11.4375 -5.953125 L 9.546875 -5.953125 Z M 9.546875 -8 "/></g></g></g><g fill="#ffffff" fill-opacity="1"><g transform="translate(370.460359, 124.730658)"><g><path d="M 14.078125 -14.96875 L 14.078125 0 L 11.84375 0 L 3.484375 -11.484375 L 3.484375 0 L 1.1875 0 L 1.1875 -14.96875 L 3.5 -14.96875 L 11.859375 -3.421875 L 11.859375 -14.96875 Z M 14.078125 -14.96875 "/></g></g></g><g clip-path="url(#260faf37d3)"><path fill="#817bb8" d="M 121.230469 109.453125 L 172.609375 79.304688 L 150.324219 41.332031 C 142.539062 28.066406 121.945312 32.820312 121.253906 48.1875 C 121.238281 48.507812 121.230469 48.832031 121.230469 49.160156 L 121.230469 109.453125 " fill-opacity="1" fill-rule="nonzero"/></g><g clip-path="url(#bd26f69045)"><path fill="#e62b4a" d="M 202.753906 130.679688 C 214.476562 130.679688 223.984375 121.175781 223.984375 109.453125 L 223.980469 69.277344 C 223.980469 60.375 214.308594 54.835938 206.625 59.34375 L 172.609375 79.304688 L 202.753906 130.679688 " fill-opacity="1" fill-rule="nonzero"/></g><g clip-path="url(#9b5e1660ee)"><path fill="#985288" d="M 142.460938 130.679688 L 202.753906 130.679688 L 172.609375 79.304688 L 121.230469 109.453125 C 121.230469 109.957031 121.25 110.457031 121.285156 110.949219 C 122.050781 121.972656 131.242188 130.679688 142.460938 130.679688 " fill-opacity="1" fill-rule="nonzero"/></g><g clip-path="url(#3ab6aa68bf)"><path fill="#c6488c" d="M 202.753906 41.660156 C 202.753906 49.242188 196.609375 55.390625 189.023438 55.390625 C 181.441406 55.390625 175.292969 49.242188 175.292969 41.660156 C 175.296875 34.078125 181.445312 27.929688 189.023438 27.929688 C 196.609375 27.929688 202.753906 34.074219 202.753906 41.660156 Z M 202.753906 41.660156 " fill-opacity="1" fill-rule="nonzero"/></g><g fill="#ffffff" fill-opacity="1"><g transform="translate(233.472353, 94.010682)"><g><path d="M 31.890625 -11.546875 C 34.566406 -11.546875 37.1875 -12.160156 39.75 -13.390625 C 42.3125 -14.617188 44.90625 -16.679688 47.53125 -19.578125 L 55.734375 -11.796875 C 52.441406 -7.554688 48.6875 -4.347656 44.46875 -2.171875 C 40.257812 0.00390625 35.925781 1.09375 31.46875 1.09375 C 27.445312 1.09375 23.675781 0.269531 20.15625 -1.375 C 16.644531 -3.019531 13.59375 -5.238281 11 -8.03125 C 8.40625 -10.820312 6.367188 -14.070312 4.890625 -17.78125 C 3.410156 -21.488281 2.671875 -25.4375 2.671875 -29.625 C 2.671875 -33.8125 3.4375 -37.742188 4.96875 -41.421875 C 6.507812 -45.109375 8.585938 -48.34375 11.203125 -51.125 C 13.828125 -53.914062 16.925781 -56.117188 20.5 -57.734375 C 24.070312 -59.359375 27.867188 -60.171875 31.890625 -60.171875 C 35.617188 -60.171875 39.171875 -59.472656 42.546875 -58.078125 C 45.929688 -56.679688 49.238281 -54.367188 52.46875 -51.140625 L 45.109375 -42.171875 C 42.765625 -44.347656 40.546875 -45.8125 38.453125 -46.5625 C 36.359375 -47.320312 34.171875 -47.703125 31.890625 -47.703125 C 29.597656 -47.703125 27.429688 -47.226562 25.390625 -46.28125 C 23.359375 -45.332031 21.585938 -44.046875 20.078125 -42.421875 C 18.578125 -40.804688 17.394531 -38.894531 16.53125 -36.6875 C 15.664062 -34.488281 15.234375 -32.132812 15.234375 -29.625 C 15.234375 -27.113281 15.664062 -24.769531 16.53125 -22.59375 C 17.394531 -20.414062 18.578125 -18.503906 20.078125 -16.859375 C 21.585938 -15.210938 23.359375 -13.914062 25.390625 -12.96875 C 27.429688 -12.019531 29.597656 -11.546875 31.890625 -11.546875 Z M 31.890625 -11.546875 "/></g></g></g><g fill="#ffffff" fill-opacity="1"><g transform="translate(289.962485, 94.010682)"><g><path d="M 15.140625 -35.734375 C 15.703125 -36.628906 16.34375 -37.476562 17.0625 -38.28125 C 17.789062 -39.09375 18.65625 -39.816406 19.65625 -40.453125 C 20.664062 -41.097656 21.8125 -41.613281 23.09375 -42 C 24.375 -42.394531 25.828125 -42.59375 27.453125 -42.59375 C 29.347656 -42.59375 31.550781 -42.257812 34.0625 -41.59375 L 32.96875 -31.296875 C 32.351562 -31.410156 31.738281 -31.550781 31.125 -31.71875 C 30.625 -31.832031 30.066406 -31.929688 29.453125 -32.015625 C 28.835938 -32.097656 28.28125 -32.140625 27.78125 -32.140625 C 26 -32.140625 24.335938 -31.882812 22.796875 -31.375 C 21.265625 -30.875 19.941406 -30.175781 18.828125 -29.28125 C 17.710938 -28.394531 16.816406 -27.320312 16.140625 -26.0625 C 15.472656 -24.8125 15.140625 -23.460938 15.140625 -22.015625 L 15.140625 0 L 3.59375 0 L 3.59375 -41.515625 L 14.0625 -41.515625 Z M 15.140625 -35.734375 "/></g></g></g><g fill="#ffffff" fill-opacity="1"><g transform="translate(322.768553, 94.010682)"><g><path d="M 24.1875 -42.6875 C 27.144531 -42.6875 29.929688 -42.113281 32.546875 -40.96875 C 35.171875 -39.820312 37.457031 -38.257812 39.40625 -36.28125 C 41.363281 -34.300781 42.914062 -31.984375 44.0625 -29.328125 C 45.207031 -26.679688 45.78125 -23.851562 45.78125 -20.84375 C 45.78125 -17.820312 45.207031 -14.988281 44.0625 -12.34375 C 42.914062 -9.695312 41.363281 -7.378906 39.40625 -5.390625 C 37.457031 -3.410156 35.171875 -1.847656 32.546875 -0.703125 C 29.929688 0.429688 27.144531 1 24.1875 1 C 21.175781 1 18.359375 0.429688 15.734375 -0.703125 C 13.109375 -1.847656 10.816406 -3.410156 8.859375 -5.390625 C 6.910156 -7.378906 5.363281 -9.695312 4.21875 -12.34375 C 3.082031 -14.988281 2.515625 -17.820312 2.515625 -20.84375 C 2.515625 -23.851562 3.082031 -26.679688 4.21875 -29.328125 C 5.363281 -31.984375 6.910156 -34.300781 8.859375 -36.28125 C 10.816406 -38.257812 13.109375 -39.820312 15.734375 -40.96875 C 18.359375 -42.113281 21.175781 -42.6875 24.1875 -42.6875 Z M 24.1875 -9.125 C 25.582031 -9.125 26.878906 -9.398438 28.078125 -9.953125 C 29.273438 -10.515625 30.332031 -11.28125 31.25 -12.25 C 32.175781 -13.226562 32.90625 -14.398438 33.4375 -15.765625 C 33.96875 -17.140625 34.234375 -18.664062 34.234375 -20.34375 C 34.234375 -22.007812 33.96875 -23.566406 33.4375 -25.015625 C 32.90625 -26.472656 32.175781 -27.742188 31.25 -28.828125 C 30.332031 -29.921875 29.273438 -30.785156 28.078125 -31.421875 C 26.878906 -32.066406 25.582031 -32.390625 24.1875 -32.390625 C 22.789062 -32.390625 21.476562 -32.066406 20.25 -31.421875 C 19.019531 -30.785156 17.945312 -29.921875 17.03125 -28.828125 C 16.113281 -27.742188 15.390625 -26.472656 14.859375 -25.015625 C 14.328125 -23.566406 14.0625 -22.007812 14.0625 -20.34375 C 14.0625 -18.664062 14.328125 -17.140625 14.859375 -15.765625 C 15.390625 -14.398438 16.113281 -13.226562 17.03125 -12.25 C 17.945312 -11.28125 19.019531 -10.515625 20.25 -9.953125 C 21.476562 -9.398438 22.789062 -9.125 24.1875 -9.125 Z M 24.1875 -9.125 "/></g></g></g><g fill="#ffffff" fill-opacity="1"><g transform="translate(369.132289, 94.010682)"><g><path d="M 16.734375 0 L 5.1875 0 L 5.1875 -41.515625 L 16.734375 -41.515625 Z M 20.578125 -59.421875 L 15.3125 -44.4375 L 6.765625 -44.4375 L 7.9375 -59.421875 Z M 20.578125 -59.421875 "/></g></g></g></svg>