<svg xmlns="http://www.w3.org/2000/svg" xmlns:xlink="http://www.w3.org/1999/xlink" zoomAndPan="magnify" preserveAspectRatio="xMidYMid meet" version="1.0" viewBox="83.8 16.06 376.39 102.75"><defs><g/><clipPath id="0921479722"><path d="M 83.800781 21 L 136 21 L 136 98 L 83.800781 98 Z M 83.800781 21 " clip-rule="nonzero"/></clipPath><clipPath id="1715c14020"><path d="M 135 45 L 186.550781 45 L 186.550781 118.808594 L 135 118.808594 Z M 135 45 " clip-rule="nonzero"/></clipPath><clipPath id="07604f605d"><path d="M 83.800781 67 L 166 67 L 166 118.808594 L 83.800781 118.808594 Z M 83.800781 67 " clip-rule="nonzero"/></clipPath><clipPath id="125232765f"><path d="M 137 16.058594 L 166 16.058594 L 166 44 L 137 44 Z M 137 16.058594 " clip-rule="nonzero"/></clipPath></defs><g clip-path="url(#0921479722)"><path fill="#817bb8" d="M 83.800781 97.582031 L 135.175781 67.429688 L 112.890625 29.460938 C 105.109375 16.195312 84.511719 20.949219 83.820312 36.316406 C 83.804688 36.636719 83.800781 36.960938 83.800781 37.285156 L 83.800781 97.582031 " fill-opacity="1" fill-rule="nonzero"/></g><g clip-path="url(#1715c14020)"><path fill="#e62b4a" d="M 165.324219 118.808594 C 177.046875 118.808594 186.550781 109.304688 186.550781 97.582031 L 186.550781 57.40625 C 186.550781 48.5 176.875 42.960938 169.191406 47.46875 L 135.175781 67.433594 L 165.324219 118.808594 " fill-opacity="1" fill-rule="nonzero"/></g><g clip-path="url(#07604f605d)"><path fill="#985288" d="M 105.027344 118.808594 L 165.324219 118.808594 L 135.175781 67.433594 L 83.800781 97.582031 C 83.800781 98.085938 83.816406 98.585938 83.851562 99.078125 C 84.621094 110.101562 93.808594 118.808594 105.027344 118.808594 " fill-opacity="1" fill-rule="nonzero"/></g><g clip-path="url(#125232765f)"><path fill="#2a1a3f" d="M 165.324219 29.789062 C 165.324219 37.371094 159.175781 43.519531 151.59375 43.519531 C 144.007812 43.519531 137.863281 37.371094 137.863281 29.789062 C 137.863281 22.207031 144.011719 16.058594 151.59375 16.058594 C 159.175781 16.058594 165.324219 22.203125 165.324219 29.789062 Z M 165.324219 29.789062 " fill-opacity="1" fill-rule="nonzero"/></g><g fill="#2a1a3f" fill-opacity="1"><g transform="translate(197.357142, 89.539078)"><g><path d="M 19.6875 -7.140625 C 21.34375 -7.140625 22.960938 -7.515625 24.546875 -8.265625 C 26.128906 -9.023438 27.734375 -10.300781 29.359375 -12.09375 L 34.421875 -7.28125 C 32.390625 -4.664062 30.070312 -2.6875 27.46875 -1.34375 C 24.863281 0 22.1875 0.671875 19.4375 0.671875 C 16.957031 0.671875 14.628906 0.164062 12.453125 -0.84375 C 10.285156 -1.863281 8.398438 -3.234375 6.796875 -4.953125 C 5.191406 -6.679688 3.929688 -8.691406 3.015625 -10.984375 C 2.109375 -13.273438 1.65625 -15.710938 1.65625 -18.296875 C 1.65625 -20.878906 2.128906 -23.304688 3.078125 -25.578125 C 4.023438 -27.859375 5.304688 -29.859375 6.921875 -31.578125 C 8.546875 -33.304688 10.457031 -34.664062 12.65625 -35.65625 C 14.863281 -36.65625 17.207031 -37.15625 19.6875 -37.15625 C 22 -37.15625 24.195312 -36.722656 26.28125 -35.859375 C 28.363281 -35.003906 30.40625 -33.578125 32.40625 -31.578125 L 27.859375 -26.046875 C 26.410156 -27.390625 25.039062 -28.296875 23.75 -28.765625 C 22.457031 -29.234375 21.101562 -29.46875 19.6875 -29.46875 C 18.28125 -29.46875 16.945312 -29.171875 15.6875 -28.578125 C 14.425781 -27.992188 13.332031 -27.203125 12.40625 -26.203125 C 11.476562 -25.203125 10.742188 -24.019531 10.203125 -22.65625 C 9.671875 -21.300781 9.40625 -19.847656 9.40625 -18.296875 C 9.40625 -16.742188 9.671875 -15.296875 10.203125 -13.953125 C 10.742188 -12.609375 11.476562 -11.425781 12.40625 -10.40625 C 13.332031 -9.394531 14.425781 -8.597656 15.6875 -8.015625 C 16.945312 -7.429688 18.28125 -7.140625 19.6875 -7.140625 Z M 19.6875 -7.140625 "/></g></g></g><g fill="#2a1a3f" fill-opacity="1"><g transform="translate(232.246041, 89.539078)"><g><path d="M 9.359375 -22.078125 C 9.703125 -22.617188 10.097656 -23.140625 10.546875 -23.640625 C 10.992188 -24.140625 11.523438 -24.585938 12.140625 -24.984375 C 12.765625 -25.378906 13.472656 -25.695312 14.265625 -25.9375 C 15.054688 -26.1875 15.953125 -26.3125 16.953125 -26.3125 C 18.117188 -26.3125 19.476562 -26.101562 21.03125 -25.6875 L 20.359375 -19.328125 C 19.984375 -19.398438 19.609375 -19.488281 19.234375 -19.59375 C 18.921875 -19.65625 18.570312 -19.710938 18.1875 -19.765625 C 17.8125 -19.816406 17.46875 -19.84375 17.15625 -19.84375 C 16.050781 -19.84375 15.023438 -19.6875 14.078125 -19.375 C 13.128906 -19.070312 12.3125 -18.644531 11.625 -18.09375 C 10.9375 -17.539062 10.382812 -16.875 9.96875 -16.09375 C 9.5625 -15.320312 9.359375 -14.488281 9.359375 -13.59375 L 9.359375 0 L 2.21875 0 L 2.21875 -25.640625 L 8.6875 -25.640625 Z M 9.359375 -22.078125 "/></g></g></g><g fill="#2a1a3f" fill-opacity="1"><g transform="translate(252.507394, 89.539078)"><g><path d="M 14.9375 -26.359375 C 16.757812 -26.359375 18.476562 -26.003906 20.09375 -25.296875 C 21.71875 -24.585938 23.132812 -23.625 24.34375 -22.40625 C 25.550781 -21.1875 26.503906 -19.753906 27.203125 -18.109375 C 27.910156 -16.472656 28.265625 -14.726562 28.265625 -12.875 C 28.265625 -11.007812 27.910156 -9.257812 27.203125 -7.625 C 26.503906 -5.988281 25.550781 -4.554688 24.34375 -3.328125 C 23.132812 -2.109375 21.71875 -1.144531 20.09375 -0.4375 C 18.476562 0.269531 16.757812 0.625 14.9375 0.625 C 13.070312 0.625 11.328125 0.269531 9.703125 -0.4375 C 8.085938 -1.144531 6.675781 -2.109375 5.46875 -3.328125 C 4.269531 -4.554688 3.316406 -5.988281 2.609375 -7.625 C 1.898438 -9.257812 1.546875 -11.007812 1.546875 -12.875 C 1.546875 -14.726562 1.898438 -16.472656 2.609375 -18.109375 C 3.316406 -19.753906 4.269531 -21.1875 5.46875 -22.40625 C 6.675781 -23.625 8.085938 -24.585938 9.703125 -25.296875 C 11.328125 -26.003906 13.070312 -26.359375 14.9375 -26.359375 Z M 14.9375 -5.640625 C 15.800781 -5.640625 16.601562 -5.8125 17.34375 -6.15625 C 18.082031 -6.5 18.734375 -6.972656 19.296875 -7.578125 C 19.867188 -8.179688 20.316406 -8.90625 20.640625 -9.75 C 20.972656 -10.59375 21.140625 -11.53125 21.140625 -12.5625 C 21.140625 -13.59375 20.972656 -14.554688 20.640625 -15.453125 C 20.316406 -16.347656 19.867188 -17.128906 19.296875 -17.796875 C 18.734375 -18.472656 18.082031 -19.007812 17.34375 -19.40625 C 16.601562 -19.800781 15.800781 -20 14.9375 -20 C 14.070312 -20 13.257812 -19.800781 12.5 -19.40625 C 11.75 -19.007812 11.085938 -18.472656 10.515625 -17.796875 C 9.953125 -17.128906 9.503906 -16.347656 9.171875 -15.453125 C 8.847656 -14.554688 8.6875 -13.59375 8.6875 -12.5625 C 8.6875 -11.53125 8.847656 -10.59375 9.171875 -9.75 C 9.503906 -8.90625 9.953125 -8.179688 10.515625 -7.578125 C 11.085938 -6.972656 11.75 -6.5 12.5 -6.15625 C 13.257812 -5.8125 14.070312 -5.640625 14.9375 -5.640625 Z M 14.9375 -5.640625 "/></g></g></g><g fill="#2a1a3f" fill-opacity="1"><g transform="translate(281.142102, 89.539078)"><g><path d="M 10.34375 0 L 3.203125 0 L 3.203125 -25.640625 L 10.34375 -25.640625 Z M 12.703125 -36.703125 L 9.453125 -27.453125 L 4.171875 -27.453125 L 4.90625 -36.703125 Z M 12.703125 -36.703125 "/></g></g></g><g fill="#2a1a3f" fill-opacity="1"><g transform="translate(293.650326, 89.539078)"><g/></g></g><g fill="#2a1a3f" fill-opacity="1"><g transform="translate(306.830499, 89.539078)"><g><path d="M 17.265625 -36.640625 C 19.921875 -36.640625 22.265625 -36.15625 24.296875 -35.1875 C 26.328125 -34.226562 28.019531 -32.921875 29.375 -31.265625 C 30.738281 -29.617188 31.773438 -27.675781 32.484375 -25.4375 C 33.191406 -23.195312 33.546875 -20.816406 33.546875 -18.296875 C 33.546875 -15.742188 33.175781 -13.359375 32.4375 -11.140625 C 31.695312 -8.921875 30.671875 -6.984375 29.359375 -5.328125 C 28.046875 -3.671875 26.492188 -2.367188 24.703125 -1.421875 C 22.910156 -0.472656 20.960938 0 18.859375 0 L 2.484375 0 L 2.484375 -36.640625 Z M 17.3125 -7.078125 C 18.789062 -7.078125 20.054688 -7.378906 21.109375 -7.984375 C 22.160156 -8.585938 23.03125 -9.40625 23.71875 -10.4375 C 24.414062 -11.46875 24.925781 -12.65625 25.25 -14 C 25.570312 -15.34375 25.734375 -16.757812 25.734375 -18.25 C 25.734375 -19.726562 25.578125 -21.144531 25.265625 -22.5 C 24.960938 -23.863281 24.46875 -25.0625 23.78125 -26.09375 C 23.09375 -27.132812 22.210938 -27.960938 21.140625 -28.578125 C 20.066406 -29.203125 18.789062 -29.515625 17.3125 -29.515625 L 10.34375 -29.515625 L 10.34375 -7.078125 Z M 17.3125 -7.078125 "/></g></g></g><g fill="#2a1a3f" fill-opacity="1"><g transform="translate(341.099152, 89.539078)"><g><path d="M 14.984375 -26.359375 C 16.921875 -26.359375 18.679688 -25.96875 20.265625 -25.1875 C 21.847656 -24.414062 23.207031 -23.398438 24.34375 -22.140625 C 25.476562 -20.890625 26.351562 -19.441406 26.96875 -17.796875 C 27.59375 -16.160156 27.90625 -14.484375 27.90625 -12.765625 C 27.90625 -11.734375 27.769531 -10.628906 27.5 -9.453125 L 9.203125 -9.453125 C 9.890625 -8.285156 10.867188 -7.296875 12.140625 -6.484375 C 13.421875 -5.671875 14.800781 -5.265625 16.28125 -5.265625 C 17.757812 -5.265625 19.054688 -5.382812 20.171875 -5.625 C 21.296875 -5.875 22.359375 -6.1875 23.359375 -6.5625 L 25.734375 -2.171875 C 24.460938 -1.273438 23.007812 -0.582031 21.375 -0.09375 C 19.738281 0.382812 17.988281 0.625 16.125 0.625 C 14.09375 0.625 12.195312 0.269531 10.4375 -0.4375 C 8.6875 -1.144531 7.15625 -2.097656 5.84375 -3.296875 C 4.53125 -4.503906 3.492188 -5.9375 2.734375 -7.59375 C 1.984375 -9.25 1.609375 -11.007812 1.609375 -12.875 C 1.609375 -14.695312 1.953125 -16.425781 2.640625 -18.0625 C 3.328125 -19.695312 4.28125 -21.125 5.5 -22.34375 C 6.726562 -23.570312 8.148438 -24.546875 9.765625 -25.265625 C 11.390625 -25.992188 13.128906 -26.359375 14.984375 -26.359375 Z M 20.828125 -14.984375 C 20.410156 -16.472656 19.664062 -17.679688 18.59375 -18.609375 C 17.53125 -19.535156 16.328125 -20 14.984375 -20 C 13.609375 -20 12.359375 -19.535156 11.234375 -18.609375 C 10.117188 -17.679688 9.351562 -16.472656 8.9375 -14.984375 Z M 20.828125 -14.984375 "/></g></g></g><g fill="#2a1a3f" fill-opacity="1"><g transform="translate(370.819312, 89.539078)"><g><path d="M 18.609375 -13.4375 C 20.503906 -12.09375 21.453125 -10.179688 21.453125 -7.703125 C 21.453125 -6.566406 21.179688 -5.5 20.640625 -4.5 C 20.109375 -3.5 19.378906 -2.617188 18.453125 -1.859375 C 17.523438 -1.097656 16.4375 -0.503906 15.1875 -0.078125 C 13.945312 0.347656 12.625 0.5625 11.21875 0.5625 C 10.144531 0.5625 9.097656 0.421875 8.078125 0.140625 C 7.066406 -0.128906 6.128906 -0.503906 5.265625 -0.984375 C 4.410156 -1.460938 3.660156 -2.035156 3.015625 -2.703125 C 2.378906 -3.378906 1.910156 -4.132812 1.609375 -4.96875 C 2.398438 -5.34375 3.273438 -5.757812 4.234375 -6.21875 C 5.203125 -6.6875 6.046875 -7.113281 6.765625 -7.5 C 7.078125 -6.976562 7.5625 -6.5 8.21875 -6.0625 C 8.875 -5.632812 9.769531 -5.421875 10.90625 -5.421875 C 12.070312 -5.421875 12.929688 -5.695312 13.484375 -6.25 C 14.035156 -6.800781 14.3125 -7.320312 14.3125 -7.8125 C 14.3125 -8.15625 14.125 -8.472656 13.75 -8.765625 C 13.375 -9.054688 12.941406 -9.285156 12.453125 -9.453125 C 11.765625 -9.734375 11.195312 -9.878906 10.75 -9.890625 C 10.300781 -9.910156 9.785156 -10.007812 9.203125 -10.1875 C 7.335938 -10.632812 5.914062 -11.226562 4.9375 -11.96875 C 3.957031 -12.707031 3.242188 -13.453125 2.796875 -14.203125 C 2.347656 -14.960938 2.097656 -15.6875 2.046875 -16.375 C 1.992188 -17.070312 1.96875 -17.625 1.96875 -18.03125 C 1.96875 -19.132812 2.207031 -20.1875 2.6875 -21.1875 C 3.164062 -22.1875 3.828125 -23.054688 4.671875 -23.796875 C 5.515625 -24.535156 6.492188 -25.128906 7.609375 -25.578125 C 8.734375 -26.023438 9.9375 -26.25 11.21875 -26.25 C 12.28125 -26.25 13.296875 -26.09375 14.265625 -25.78125 C 15.234375 -25.476562 16.113281 -25.050781 16.90625 -24.5 C 17.695312 -23.945312 18.375 -23.289062 18.9375 -22.53125 C 19.507812 -21.78125 19.929688 -20.9375 20.203125 -20 L 14.671875 -18.140625 C 14.472656 -18.765625 14.050781 -19.265625 13.40625 -19.640625 C 12.769531 -20.015625 12.09375 -20.203125 11.375 -20.203125 C 10.644531 -20.203125 10.054688 -19.960938 9.609375 -19.484375 C 9.160156 -19.003906 8.9375 -18.519531 8.9375 -18.03125 C 8.9375 -17.445312 9.148438 -16.988281 9.578125 -16.65625 C 10.015625 -16.332031 10.492188 -16.101562 11.015625 -15.96875 C 11.390625 -15.90625 11.753906 -15.847656 12.109375 -15.796875 C 12.472656 -15.742188 12.832031 -15.679688 13.1875 -15.609375 C 14.382812 -15.335938 15.421875 -15.023438 16.296875 -14.671875 C 17.179688 -14.328125 17.953125 -13.914062 18.609375 -13.4375 Z M 18.609375 -13.4375 "/></g></g></g><g fill="#2a1a3f" fill-opacity="1"><g transform="translate(392.682963, 89.539078)"><g><path d="M 10.078125 0 L 2.953125 0 L 2.953125 -25.640625 L 10.078125 -25.640625 Z M 6.515625 -29.15625 C 5.410156 -29.15625 4.476562 -29.53125 3.71875 -30.28125 C 2.957031 -31.039062 2.578125 -31.972656 2.578125 -33.078125 C 2.578125 -34.179688 2.957031 -35.117188 3.71875 -35.890625 C 4.476562 -36.671875 5.410156 -37.0625 6.515625 -37.0625 C 7.617188 -37.0625 8.546875 -36.671875 9.296875 -35.890625 C 10.054688 -35.117188 10.4375 -34.179688 10.4375 -33.078125 C 10.4375 -31.972656 10.054688 -31.039062 9.296875 -30.28125 C 8.546875 -29.53125 7.617188 -29.15625 6.515625 -29.15625 Z M 6.515625 -29.15625 "/></g></g></g><g fill="#2a1a3f" fill-opacity="1"><g transform="translate(404.725991, 89.539078)"><g><path d="M 22.4375 -25.640625 L 28.53125 -25.640625 L 28.53125 -8.6875 C 28.53125 -6.71875 28.503906 -4.96875 28.453125 -3.4375 C 28.398438 -1.90625 28.269531 -0.53125 28.0625 0.6875 C 27.851562 1.914062 27.515625 3.007812 27.046875 3.96875 C 26.585938 4.9375 25.945312 5.835938 25.125 6.671875 C 23.601562 8.148438 21.90625 9.164062 20.03125 9.71875 C 18.15625 10.269531 16.179688 10.546875 14.109375 10.546875 C 12.347656 10.546875 10.691406 10.335938 9.140625 9.921875 C 7.597656 9.503906 6.207031 8.9375 4.96875 8.21875 L 4.96875 1.546875 C 5.269531 2.035156 5.707031 2.46875 6.28125 2.84375 C 6.851562 3.21875 7.507812 3.539062 8.25 3.8125 C 8.988281 4.09375 9.78125 4.3125 10.625 4.46875 C 11.46875 4.625 12.320312 4.703125 13.1875 4.703125 C 14.320312 4.703125 15.390625 4.554688 16.390625 4.265625 C 17.390625 3.972656 18.257812 3.5 19 2.84375 C 19.738281 2.1875 20.320312 1.367188 20.75 0.390625 C 21.1875 -0.585938 21.40625 -1.785156 21.40625 -3.203125 L 21.40625 -3.71875 C 20.40625 -2.820312 19.25 -2.109375 17.9375 -1.578125 C 16.625 -1.046875 15.191406 -0.78125 13.640625 -0.78125 C 11.921875 -0.78125 10.328125 -1.113281 8.859375 -1.78125 C 7.398438 -2.457031 6.132812 -3.367188 5.0625 -4.515625 C 4 -5.671875 3.164062 -7.03125 2.5625 -8.59375 C 1.957031 -10.164062 1.65625 -11.832031 1.65625 -13.59375 C 1.65625 -15.351562 1.957031 -17.003906 2.5625 -18.546875 C 3.164062 -20.097656 4 -21.453125 5.0625 -22.609375 C 6.132812 -23.765625 7.398438 -24.675781 8.859375 -25.34375 C 10.328125 -26.019531 11.921875 -26.359375 13.640625 -26.359375 C 15.265625 -26.359375 16.726562 -26.140625 18.03125 -25.703125 C 19.34375 -25.273438 20.46875 -24.597656 21.40625 -23.671875 Z M 15.09375 -7.140625 C 16.195312 -7.140625 17.144531 -7.335938 17.9375 -7.734375 C 18.726562 -8.128906 19.378906 -8.632812 19.890625 -9.25 C 20.410156 -9.875 20.789062 -10.5625 21.03125 -11.3125 C 21.28125 -12.070312 21.40625 -12.816406 21.40625 -13.546875 C 21.40625 -14.335938 21.273438 -15.117188 21.015625 -15.890625 C 20.753906 -16.671875 20.363281 -17.359375 19.84375 -17.953125 C 19.332031 -18.554688 18.675781 -19.046875 17.875 -19.421875 C 17.082031 -19.804688 16.15625 -20 15.09375 -20 C 14.195312 -20 13.367188 -19.828125 12.609375 -19.484375 C 11.847656 -19.140625 11.179688 -18.675781 10.609375 -18.09375 C 10.046875 -17.507812 9.597656 -16.828125 9.265625 -16.046875 C 8.941406 -15.273438 8.78125 -14.441406 8.78125 -13.546875 C 8.78125 -12.648438 8.941406 -11.8125 9.265625 -11.03125 C 9.597656 -10.257812 10.046875 -9.578125 10.609375 -8.984375 C 11.179688 -8.398438 11.847656 -7.945312 12.609375 -7.625 C 13.367188 -7.300781 14.195312 -7.140625 15.09375 -7.140625 Z M 15.09375 -7.140625 "/></g></g></g><g fill="#2a1a3f" fill-opacity="1"><g transform="translate(434.34276, 89.539078)"><g><path d="M 15.65625 -25.640625 C 16.625 -25.640625 17.691406 -25.5 18.859375 -25.21875 C 20.035156 -24.945312 21.140625 -24.429688 22.171875 -23.671875 C 23.203125 -22.910156 24.070312 -21.859375 24.78125 -20.515625 C 25.488281 -19.171875 25.84375 -17.429688 25.84375 -15.296875 L 25.84375 0 L 18.65625 0 L 18.65625 -15.046875 C 18.65625 -15.835938 18.523438 -16.507812 18.265625 -17.0625 C 18.015625 -17.613281 17.671875 -18.050781 17.234375 -18.375 C 16.804688 -18.695312 16.316406 -18.9375 15.765625 -19.09375 C 15.210938 -19.25 14.660156 -19.328125 14.109375 -19.328125 C 13.660156 -19.328125 13.171875 -19.25 12.640625 -19.09375 C 12.109375 -18.9375 11.609375 -18.6875 11.140625 -18.34375 C 10.671875 -18 10.28125 -17.550781 9.96875 -17 C 9.664062 -16.445312 9.515625 -15.796875 9.515625 -15.046875 L 9.515625 0 L 2.375 0 L 2.375 -25.640625 L 8.484375 -25.640625 L 9.515625 -23.671875 C 10.335938 -24.253906 11.265625 -24.726562 12.296875 -25.09375 C 13.335938 -25.457031 14.457031 -25.640625 15.65625 -25.640625 Z M 15.65625 -25.640625 "/></g></g></g></svg>