<svg xmlns="http://www.w3.org/2000/svg" xmlns:xlink="http://www.w3.org/1999/xlink" width="1024" zoomAndPan="magnify" viewBox="0 0 768 767.999994" height="1024" preserveAspectRatio="xMidYMid meet" version="1.0"><defs><clipPath id="ea7e800a9c"><path d="M 121.921875 747 L 646.171875 747 L 646.171875 768 L 121.921875 768 Z M 121.921875 747 " clip-rule="nonzero"/></clipPath></defs><path fill="#2e2d2c" d="M 157.929688 315.160156 L 163.558594 315.160156 L 163.558594 413.96875 C 163.558594 431.527344 166.960938 448.664062 173.667969 464.890625 C 180.375 481.121094 190.0625 495.65625 202.460938 508.09375 L 309.960938 615.921875 C 311.878906 617.847656 314.484375 618.929688 317.199219 618.933594 C 317.203125 618.933594 317.207031 618.933594 317.207031 618.933594 C 319.917969 618.933594 322.523438 617.855469 324.441406 615.933594 L 445.441406 494.957031 C 447.359375 493.039062 448.4375 490.4375 448.4375 487.722656 C 448.4375 485.011719 447.359375 482.40625 445.441406 480.488281 L 355.140625 390.203125 L 355.140625 315.164062 L 360.769531 315.164062 C 366.421875 315.164062 371.003906 310.582031 371.003906 304.929688 L 371.003906 215.71875 C 371.003906 210.066406 366.421875 205.488281 360.769531 205.488281 L 355.222656 205.488281 L 355.222656 10.519531 C 355.222656 4.867188 350.640625 0.285156 344.988281 0.285156 C 339.332031 0.285156 334.753906 4.871094 334.753906 10.519531 L 334.753906 205.316406 L 183.9375 205.316406 L 183.9375 10.511719 C 183.9375 4.859375 179.355469 0.28125 173.703125 0.28125 C 168.050781 0.28125 163.46875 4.863281 163.46875 10.511719 L 163.46875 205.480469 L 157.921875 205.480469 C 152.265625 205.480469 147.6875 210.0625 147.6875 215.710938 L 147.6875 304.929688 C 147.695312 310.578125 152.277344 315.160156 157.929688 315.160156 Z M 168.167969 225.953125 L 350.542969 225.953125 L 350.542969 294.695312 L 322.578125 294.695312 C 316.929688 294.695312 312.34375 299.277344 312.34375 304.929688 C 312.34375 310.578125 316.929688 315.160156 322.578125 315.160156 L 334.675781 315.160156 L 334.675781 387.355469 L 286.332031 406.269531 C 281.066406 408.332031 278.46875 414.265625 280.527344 419.53125 C 282.109375 423.570312 285.972656 426.035156 290.066406 426.035156 C 291.304688 426.035156 292.566406 425.808594 293.792969 425.332031 L 342.335938 406.339844 L 423.730469 487.71875 L 317.21875 594.210938 L 216.957031 493.644531 C 195.722656 472.34375 184.023438 444.046875 184.023438 413.96875 L 184.023438 315.160156 L 268.746094 315.160156 C 274.398438 315.160156 278.980469 310.578125 278.980469 304.929688 C 278.980469 299.273438 274.398438 294.695312 268.746094 294.695312 L 168.15625 294.695312 L 168.15625 225.953125 Z M 168.167969 225.953125 " fill-opacity="1" fill-rule="nonzero"/><g clip-path="url(#ea7e800a9c)"><path fill="#2e2d2c" d="M 635.933594 747.222656 L 132.148438 747.222656 C 126.496094 747.222656 121.914062 751.804688 121.914062 757.457031 C 121.914062 763.109375 126.496094 767.691406 132.148438 767.691406 L 635.933594 767.691406 C 641.585938 767.691406 646.171875 763.109375 646.171875 757.457031 C 646.171875 751.804688 641.585938 747.222656 635.933594 747.222656 Z M 635.933594 747.222656 " fill-opacity="1" fill-rule="nonzero"/></g><path fill="#2e2d2c" d="M 359.398438 618.410156 C 355.046875 614.808594 348.601562 615.414062 344.992188 619.757812 C 341.386719 624.105469 341.988281 630.558594 346.332031 634.167969 C 346.828125 634.582031 396.082031 675.90625 408.90625 722.914062 C 410.148438 727.464844 414.273438 730.457031 418.777344 730.457031 C 419.667969 730.457031 420.574219 730.335938 421.476562 730.09375 C 426.929688 728.605469 430.144531 722.980469 428.660156 717.527344 C 422.507812 694.972656 408.957031 671.421875 388.390625 647.523438 C 373.25 629.941406 359.957031 618.871094 359.398438 618.410156 Z M 359.398438 618.410156 " fill-opacity="1" fill-rule="nonzero"/><path fill="#2e2d2c" d="M 486.695312 720.800781 C 488.398438 724.597656 492.132812 726.847656 496.039062 726.847656 C 497.4375 726.847656 498.863281 726.558594 500.222656 725.945312 C 505.378906 723.632812 507.683594 717.578125 505.371094 712.417969 C 497.863281 695.683594 486.929688 678.699219 472.871094 661.933594 C 461.765625 648.679688 448.671875 635.507812 433.960938 622.785156 C 408.976562 601.183594 388.113281 588.429688 387.234375 587.894531 C 382.402344 584.960938 376.105469 586.492188 373.171875 591.324219 C 370.234375 596.152344 371.773438 602.449219 376.597656 605.382812 C 377.402344 605.875 457.113281 654.875 486.695312 720.800781 Z M 486.695312 720.800781 " fill-opacity="1" fill-rule="nonzero"/><path fill="#2e2d2c" d="M 583.085938 705.214844 C 585.070312 708.089844 588.269531 709.636719 591.519531 709.636719 C 593.527344 709.636719 595.550781 709.046875 597.324219 707.828125 C 601.976562 704.617188 603.148438 698.242188 599.9375 693.589844 C 586.433594 674.019531 568.289062 654.828125 546.003906 636.554688 C 528.347656 622.082031 508.046875 608.128906 485.660156 595.078125 C 447.632812 572.910156 417.050781 561.140625 415.769531 560.652344 C 410.488281 558.632812 404.570312 561.28125 402.550781 566.554688 C 400.535156 571.835938 403.179688 577.753906 408.460938 579.769531 C 408.757812 579.886719 438.746094 591.425781 475.347656 612.761719 C 508.890625 632.3125 554.808594 664.222656 583.085938 705.214844 Z M 583.085938 705.214844 " fill-opacity="1" fill-rule="nonzero"/><path fill="#2e2d2c" d="M 478.605469 374.597656 C 484.257812 374.597656 488.84375 370.015625 488.84375 364.363281 C 488.84375 358.714844 484.257812 354.132812 478.605469 354.132812 C 458.796875 354.132812 442.675781 338.015625 442.675781 318.207031 C 442.675781 296.863281 464.046875 262.167969 478.46875 241.859375 C 486.910156 254.027344 500.074219 274.339844 508.015625 293.226562 C 510.207031 298.4375 516.207031 300.886719 521.417969 298.691406 C 526.632812 296.5 529.078125 290.5 526.886719 285.289062 C 513.511719 253.488281 487.824219 219.746094 486.738281 218.324219 C 484.816406 215.816406 481.851562 214.332031 478.691406 214.308594 C 475.53125 214.285156 472.539062 215.710938 470.578125 218.191406 C 470.09375 218.804688 458.507812 233.496094 446.773438 252.8125 C 430.46875 279.65625 422.203125 301.65625 422.203125 318.203125 C 422.203125 349.300781 447.503906 374.597656 478.605469 374.597656 Z M 478.605469 374.597656 " fill-opacity="1" fill-rule="nonzero"/><path fill="#2e2d2c" d="M 473.03125 318.203125 C 473.03125 312.554688 468.449219 307.972656 462.796875 307.972656 C 457.144531 307.972656 452.5625 312.554688 452.5625 318.203125 C 452.5625 332.566406 464.25 344.25 478.609375 344.25 C 484.261719 344.25 488.84375 339.667969 488.84375 334.015625 C 488.84375 328.363281 484.261719 323.78125 478.609375 323.78125 C 475.53125 323.78125 473.03125 321.277344 473.03125 318.203125 Z M 473.03125 318.203125 " fill-opacity="1" fill-rule="nonzero"/><path fill="#2e2d2c" d="M 497.917969 401.21875 C 497.917969 435.097656 525.488281 462.664062 559.378906 462.664062 C 593.265625 462.664062 620.835938 435.097656 620.835938 401.21875 C 620.835938 384.011719 611.730469 360.09375 593.769531 330.136719 C 580.8125 308.527344 568.042969 291.78125 567.507812 291.078125 C 565.589844 288.570312 562.621094 287.089844 559.460938 287.0625 C 556.304688 287.046875 553.308594 288.46875 551.347656 290.945312 C 550.808594 291.628906 538 307.871094 525.015625 329.246094 C 507.039062 358.847656 497.917969 383.058594 497.917969 401.21875 Z M 559.261719 314.59375 C 563.957031 321.316406 570.160156 330.558594 576.308594 340.828125 C 591.820312 366.730469 600.363281 388.179688 600.363281 401.21875 C 600.363281 423.8125 581.976562 442.195312 559.378906 442.195312 C 536.777344 442.195312 518.390625 423.8125 518.390625 401.21875 C 518.390625 387.101562 526.695312 365.957031 542.402344 340.0625 C 548.472656 330.050781 554.597656 321.113281 559.261719 314.59375 Z M 559.261719 314.59375 " fill-opacity="1" fill-rule="nonzero"/><path fill="#2e2d2c" d="M 559.378906 428.992188 C 565.027344 428.992188 569.613281 424.410156 569.613281 418.757812 C 569.613281 413.109375 565.027344 408.527344 559.378906 408.527344 C 555.347656 408.527344 552.070312 405.246094 552.070312 401.21875 C 552.070312 395.566406 547.488281 390.984375 541.835938 390.984375 C 536.183594 390.984375 531.601562 395.566406 531.601562 401.21875 C 531.597656 416.53125 544.058594 428.992188 559.378906 428.992188 Z M 559.378906 428.992188 " fill-opacity="1" fill-rule="nonzero"/></svg>