<svg xmlns="http://www.w3.org/2000/svg" xmlns:xlink="http://www.w3.org/1999/xlink" width="1024" zoomAndPan="magnify" viewBox="0 0 768 767.999994" height="1024" preserveAspectRatio="xMidYMid meet" version="1.0"><path fill="#000000" d="M 765.9375 433.109375 L 750.65625 350.84375 C 749.761719 346.011719 746.597656 341.90625 742.148438 339.808594 L 616.996094 280.628906 C 609.371094 277.023438 600.269531 280.300781 596.65625 287.921875 C 593.058594 295.5625 596.3125 304.671875 603.953125 308.285156 L 722.035156 364.117188 L 733.6875 426.878906 L 674.96875 453.304688 C 671.953125 454.664062 669.460938 456.960938 667.851562 459.867188 C 667.851562 459.867188 557.308594 660.347656 557.066406 660.789062 C 553.054688 668.066406 555.847656 677.597656 563.097656 681.574219 L 603.28125 703.691406 L 588.464844 730.441406 L 401.21875 626.988281 L 410.171875 610.644531 L 520.523438 639.980469 C 527.34375 641.785156 534.429688 638.734375 537.832031 632.585938 L 633.796875 458.425781 C 635.753906 454.871094 636.214844 450.691406 635.097656 446.792969 C 633.960938 442.894531 631.335938 439.601562 627.785156 437.648438 L 427.09375 326.972656 L 471.773438 245.769531 L 548.636719 282.136719 C 556.335938 285.75 565.378906 282.464844 568.992188 274.84375 C 572.585938 267.210938 569.332031 258.09375 561.707031 254.480469 L 471.847656 211.976562 C 464.519531 208.523438 455.820312 211.355469 451.925781 218.425781 L 444.5625 231.8125 C 444.5625 231.8125 310.773438 157.949219 310.773438 157.949219 C 312.738281 154.402344 313.199219 150.210938 312.082031 146.324219 C 310.953125 142.425781 308.328125 139.132812 304.777344 137.175781 L 170.980469 63.3125 C 163.609375 59.234375 154.292969 61.921875 150.226562 69.3125 C 150.226562 69.3125 106.015625 149.5 105.933594 149.644531 C 101.929688 156.910156 104.707031 166.433594 111.933594 170.417969 C 111.933594 170.417969 245.726562 244.28125 245.726562 244.28125 C 253.023438 248.316406 262.460938 245.585938 266.484375 238.277344 L 400.339844 312.1875 C 400.339844 312.1875 393.710938 324.234375 393.699219 324.246094 C 338.296875 404.609375 335.128906 509.503906 384.9375 593.082031 L 367.105469 625.660156 C 363.0625 633.050781 365.75 642.316406 373.121094 646.394531 C 373.121094 646.394531 586.953125 764.542969 587.046875 764.59375 C 594.109375 768.496094 603.695312 766.042969 607.804688 758.621094 C 607.804688 758.621094 637.402344 705.191406 637.453125 705.101562 C 641.488281 697.824219 638.679688 688.269531 631.441406 684.285156 L 591.226562 662.15625 L 692.160156 479.109375 L 757.175781 449.847656 C 763.609375 446.949219 767.21875 440.035156 765.9375 433.109375 Z M 169.601562 97.46875 L 276.632812 156.566406 L 247.109375 210.125 L 140.078125 151.027344 Z M 296.015625 184.730469 L 429.808594 258.59375 L 415.035156 285.371094 L 281.25 211.503906 Z M 411.441406 353.265625 L 525.464844 416.140625 C 528.453125 455.011719 511.976562 493.296875 481.023438 517.425781 L 449.492188 542.003906 C 442.835938 547.195312 441.644531 556.804688 446.820312 563.472656 C 451.753906 569.824219 461.519531 571.390625 468.265625 566.136719 L 499.796875 541.558594 C 533.722656 515.117188 553.777344 475.183594 556.085938 433.027344 L 599.65625 457.050781 L 516.835938 607.359375 L 412.429688 579.605469 C 369.789062 509.898438 369.71875 422.761719 411.441406 353.265625 Z M 411.441406 353.265625 " fill-opacity="1" fill-rule="nonzero"/><path fill="#000000" d="M 95.257812 73.867188 L 24.816406 35.027344 C 17.445312 30.960938 8.125 33.632812 4.058594 41.046875 C -0.0117188 48.4375 2.679688 57.742188 10.074219 61.816406 C 10.074219 61.816406 80.515625 100.65625 80.515625 100.65625 C 87.824219 104.679688 97.253906 101.949219 101.273438 94.640625 C 105.347656 87.25 102.652344 77.945312 95.257812 73.867188 Z M 95.257812 73.867188 " fill-opacity="1" fill-rule="nonzero"/><path fill="#000000" d="M 98.796875 57.539062 C 104.28125 63.515625 114.144531 64.207031 120.378906 58.457031 C 126.59375 52.746094 127.003906 43.078125 121.296875 36.859375 L 93.789062 6.886719 C 88.082031 0.667969 78.417969 0.242188 72.203125 5.96875 C 65.988281 11.679688 65.578125 21.351562 71.285156 27.570312 C 71.285156 27.570312 98.792969 57.539062 98.796875 57.539062 Z M 98.796875 57.539062 " fill-opacity="1" fill-rule="nonzero"/><path fill="#000000" d="M 68.496094 112.441406 L 20.207031 103.570312 C 11.863281 102.039062 3.941406 107.558594 2.417969 115.84375 C 0.890625 124.15625 6.386719 132.121094 14.683594 133.644531 C 14.683594 133.644531 62.972656 142.515625 62.972656 142.515625 C 71.164062 144.023438 79.246094 138.460938 80.761719 130.238281 C 82.289062 121.929688 76.792969 113.964844 68.496094 112.441406 Z M 68.496094 112.441406 " fill-opacity="1" fill-rule="nonzero"/></svg>