<svg xmlns="http://www.w3.org/2000/svg" xmlns:xlink="http://www.w3.org/1999/xlink" width="1024" zoomAndPan="magnify" viewBox="0 0 768 767.999994" height="1024" preserveAspectRatio="xMidYMid meet" version="1.0"><defs><clipPath id="da76df0fff"><path d="M 96 13.53125 L 720.632812 13.53125 L 720.632812 86 L 96 86 Z M 96 13.53125 " clip-rule="nonzero"/></clipPath><clipPath id="46c9c1898a"><path d="M 96 685 L 720.632812 685 L 720.632812 757.53125 L 96 757.53125 Z M 96 685 " clip-rule="nonzero"/></clipPath><clipPath id="dd2126257e"><path d="M 44.882812 438 L 248 438 L 248 641 L 44.882812 641 Z M 44.882812 438 " clip-rule="nonzero"/></clipPath></defs><path fill="#000000" d="M 670.882812 702.699219 L 146.003906 702.699219 C 141.335938 702.699219 137.554688 698.917969 137.554688 694.246094 L 137.554688 626.777344 C 137.554688 622.105469 141.335938 618.320312 146.003906 618.320312 C 150.667969 618.320312 154.453125 622.105469 154.453125 626.777344 L 154.453125 685.792969 L 662.433594 685.792969 L 662.433594 85.265625 L 154.453125 85.265625 L 154.453125 452.203125 C 154.453125 456.875 150.667969 460.660156 146.003906 460.660156 C 141.335938 460.660156 137.554688 456.875 137.554688 452.203125 L 137.554688 76.8125 C 137.554688 72.144531 141.335938 68.359375 146.003906 68.359375 L 670.882812 68.359375 C 675.550781 68.359375 679.332031 72.144531 679.332031 76.8125 L 679.332031 694.246094 C 679.332031 698.917969 675.550781 702.699219 670.882812 702.699219 Z M 670.882812 702.699219 " fill-opacity="1" fill-rule="nonzero"/><path fill="#000000" d="M 630.636719 662.433594 L 186.246094 662.433594 C 181.582031 662.433594 177.796875 658.652344 177.796875 653.980469 L 177.796875 558.757812 C 177.796875 554.089844 181.582031 550.304688 186.246094 550.304688 C 190.914062 550.304688 194.699219 554.089844 194.699219 558.757812 L 194.699219 645.527344 L 622.183594 645.527344 L 622.183594 125.535156 L 194.699219 125.535156 L 194.699219 520.222656 C 194.699219 524.894531 190.914062 528.675781 186.246094 528.675781 C 181.582031 528.675781 177.796875 524.894531 177.796875 520.222656 L 177.796875 117.082031 C 177.796875 112.414062 181.582031 108.625 186.246094 108.625 L 630.636719 108.625 C 635.300781 108.625 639.085938 112.414062 639.085938 117.082031 L 639.085938 653.980469 C 639.085938 658.652344 635.304688 662.433594 630.636719 662.433594 Z M 630.636719 662.433594 " fill-opacity="1" fill-rule="nonzero"/><path fill="#000000" d="M 408.441406 662.433594 C 403.773438 662.433594 399.992188 658.652344 399.992188 653.980469 L 399.992188 117.082031 C 399.992188 112.414062 403.773438 108.625 408.441406 108.625 C 413.109375 108.625 416.890625 112.414062 416.890625 117.082031 L 416.890625 653.980469 C 416.890625 658.652344 413.109375 662.433594 408.441406 662.433594 Z M 408.441406 662.433594 " fill-opacity="1" fill-rule="nonzero"/><path fill="#000000" d="M 630.636719 393.984375 L 373.707031 393.984375 C 369.042969 393.984375 365.257812 390.199219 365.257812 385.53125 C 365.257812 380.863281 369.042969 377.074219 373.707031 377.074219 L 630.636719 377.074219 C 635.300781 377.074219 639.085938 380.863281 639.085938 385.53125 C 639.085938 390.199219 635.304688 393.984375 630.636719 393.984375 Z M 261.542969 393.984375 L 186.246094 393.984375 C 181.582031 393.984375 177.796875 390.199219 177.796875 385.53125 C 177.796875 380.863281 181.582031 377.074219 186.246094 377.074219 L 261.542969 377.074219 C 266.210938 377.074219 269.992188 380.863281 269.992188 385.53125 C 269.992188 390.199219 266.210938 393.984375 261.542969 393.984375 Z M 261.542969 393.984375 " fill-opacity="1" fill-rule="nonzero"/><g clip-path="url(#da76df0fff)"><path fill="#000000" d="M 712.179688 85.269531 L 104.707031 85.269531 C 100.039062 85.269531 96.253906 81.484375 96.253906 76.8125 L 96.253906 21.984375 C 96.253906 17.316406 100.039062 13.53125 104.707031 13.53125 L 712.179688 13.53125 C 716.847656 13.53125 720.628906 17.316406 720.628906 21.984375 L 720.628906 76.8125 C 720.628906 81.484375 716.84375 85.269531 712.179688 85.269531 Z M 113.15625 68.359375 L 703.726562 68.359375 L 703.726562 30.4375 L 113.15625 30.4375 Z M 113.15625 68.359375 " fill-opacity="1" fill-rule="nonzero"/></g><g clip-path="url(#46c9c1898a)"><path fill="#000000" d="M 712.179688 757.53125 L 104.707031 757.53125 C 100.039062 757.53125 96.253906 753.746094 96.253906 749.074219 L 96.253906 694.246094 C 96.253906 689.574219 100.039062 685.792969 104.707031 685.792969 L 712.179688 685.792969 C 716.847656 685.792969 720.628906 689.574219 720.628906 694.246094 L 720.628906 749.074219 C 720.628906 753.746094 716.84375 757.53125 712.179688 757.53125 Z M 113.15625 740.621094 L 703.726562 740.621094 L 703.726562 702.699219 L 113.15625 702.699219 Z M 113.15625 740.621094 " fill-opacity="1" fill-rule="nonzero"/></g><g clip-path="url(#dd2126257e)"><path fill="#000000" d="M 146.003906 640.605469 C 142.339844 640.605469 139.097656 638.246094 137.96875 634.761719 L 116.59375 568.90625 L 50.730469 547.53125 C 47.246094 546.402344 44.886719 543.15625 44.886719 539.492188 C 44.886719 535.828125 47.246094 532.578125 50.730469 531.449219 L 116.59375 510.074219 L 137.96875 444.21875 C 139.097656 440.734375 142.34375 438.375 146.003906 438.375 C 149.664062 438.375 152.910156 440.734375 154.039062 444.21875 L 175.410156 510.074219 L 241.273438 531.449219 C 244.761719 532.578125 247.121094 535.828125 247.121094 539.492188 C 247.121094 543.15625 244.761719 546.402344 241.273438 547.53125 L 175.410156 568.90625 L 154.039062 634.761719 C 152.910156 638.246094 149.664062 640.605469 146.003906 640.605469 Z M 80.726562 539.492188 L 125.90625 554.152344 C 128.480469 554.984375 130.5 557.003906 131.335938 559.582031 L 146 604.777344 L 160.667969 559.582031 C 161.503906 557.007812 163.523438 554.984375 166.097656 554.152344 L 211.277344 539.492188 L 166.097656 524.832031 C 163.523438 523.996094 161.503906 521.976562 160.667969 519.398438 L 146 474.203125 L 131.335938 519.398438 C 130.5 521.972656 128.480469 523.996094 125.90625 524.832031 Z M 80.726562 539.492188 " fill-opacity="1" fill-rule="nonzero"/></g><path fill="#000000" d="M 520.21875 322.863281 C 516.558594 322.863281 513.3125 320.503906 512.183594 317.019531 L 495.871094 266.753906 L 445.597656 250.441406 C 442.113281 249.308594 439.753906 246.0625 439.753906 242.398438 C 439.753906 238.734375 442.113281 235.488281 445.597656 234.355469 L 495.871094 218.042969 L 512.183594 167.773438 C 513.3125 164.289062 516.558594 161.929688 520.21875 161.929688 C 523.882812 161.929688 527.128906 164.292969 528.257812 167.773438 L 544.570312 218.042969 L 594.84375 234.355469 C 598.328125 235.488281 600.6875 238.734375 600.6875 242.398438 C 600.6875 246.0625 598.328125 249.308594 594.84375 250.441406 L 544.570312 266.753906 L 528.257812 317.019531 C 527.128906 320.503906 523.882812 322.863281 520.21875 322.863281 Z M 475.59375 242.398438 L 505.179688 251.996094 C 507.757812 252.832031 509.777344 254.851562 510.613281 257.429688 L 520.21875 287.03125 L 529.828125 257.429688 C 530.664062 254.851562 532.679688 252.832031 535.257812 251.996094 L 564.84375 242.398438 L 535.257812 232.796875 C 532.683594 231.960938 530.664062 229.941406 529.828125 227.367188 L 520.21875 197.761719 L 510.613281 227.367188 C 509.777344 229.941406 507.757812 231.960938 505.183594 232.796875 Z M 475.59375 242.398438 " fill-opacity="1" fill-rule="nonzero"/><path fill="#000000" d="M 317.625 461.238281 C 313.964844 461.238281 310.71875 458.878906 309.585938 455.394531 L 294.441406 408.71875 L 247.761719 393.574219 C 244.277344 392.441406 241.917969 389.195312 241.917969 385.53125 C 241.917969 381.867188 244.277344 378.621094 247.761719 377.488281 L 294.441406 362.34375 L 309.585938 315.667969 C 310.71875 312.183594 313.964844 309.824219 317.625 309.824219 C 321.289062 309.824219 324.53125 312.183594 325.660156 315.667969 L 340.808594 362.34375 L 387.488281 377.488281 C 390.972656 378.621094 393.332031 381.867188 393.332031 385.53125 C 393.332031 389.195312 390.972656 392.441406 387.488281 393.574219 L 340.808594 408.71875 L 325.660156 455.394531 C 324.53125 458.878906 321.289062 461.238281 317.625 461.238281 Z M 277.761719 385.53125 L 303.753906 393.964844 C 306.332031 394.800781 308.347656 396.820312 309.183594 399.398438 L 317.625 425.40625 L 326.066406 399.398438 C 326.902344 396.820312 328.921875 394.800781 331.496094 393.964844 L 357.488281 385.53125 L 331.496094 377.097656 C 328.921875 376.261719 326.902344 374.242188 326.066406 371.667969 L 317.625 345.65625 L 309.183594 371.667969 C 308.347656 374.242188 306.332031 376.261719 303.753906 377.097656 Z M 277.761719 385.53125 " fill-opacity="1" fill-rule="nonzero"/></svg>