<svg xmlns="http://www.w3.org/2000/svg" xmlns:xlink="http://www.w3.org/1999/xlink" width="1024" zoomAndPan="magnify" viewBox="0 0 768 767.999994" height="1024" preserveAspectRatio="xMidYMid meet" version="1.0"><defs><clipPath id="4b50eddb31"><path d="M 173 238 L 702.417969 238 L 702.417969 768 L 173 768 Z M 173 238 " clip-rule="nonzero"/></clipPath><clipPath id="1e935c0fa4"><path d="M 133.167969 0 L 411 0 L 411 278 L 133.167969 278 Z M 133.167969 0 " clip-rule="nonzero"/></clipPath><clipPath id="939c75d068"><path d="M 531 127 L 702.417969 127 L 702.417969 300 L 531 300 Z M 531 127 " clip-rule="nonzero"/></clipPath></defs><g clip-path="url(#4b50eddb31)"><path fill="#203E78" d="M 702.183594 503.390625 C 470.328125 521.445312 455.6875 536.085938 437.632812 767.949219 C 419.570312 536.085938 404.929688 521.445312 173.082031 503.390625 C 404.929688 485.332031 419.570312 470.691406 437.632812 238.828125 C 455.6875 470.691406 470.328125 485.332031 702.183594 503.390625 " fill-opacity="1" fill-rule="nonzero"/></g><g clip-path="url(#1e935c0fa4)"><path fill="#203E78" d="M 410.417969 138.625 C 288.972656 148.082031 281.300781 155.753906 271.839844 277.207031 C 262.382812 155.753906 254.71875 148.082031 133.273438 138.625 C 254.71875 129.164062 262.382812 121.5 271.839844 0.0507812 C 281.300781 121.5 288.972656 129.164062 410.417969 138.625 " fill-opacity="1" fill-rule="nonzero"/></g><g clip-path="url(#939c75d068)"><path fill="#203E78" d="M 702.511719 213.632812 C 627.421875 219.476562 622.679688 224.21875 616.835938 299.304688 C 610.988281 224.21875 606.246094 219.476562 531.164062 213.632812 C 606.246094 207.777344 610.988281 203.042969 616.835938 127.949219 C 622.679688 203.042969 627.421875 207.777344 702.511719 213.632812 " fill-opacity="1" fill-rule="nonzero"/></g></svg>