<svg xmlns="http://www.w3.org/2000/svg" xmlns:xlink="http://www.w3.org/1999/xlink" width="1024" zoomAndPan="magnify" viewBox="0 0 768 767.999994" height="1024" preserveAspectRatio="xMidYMid meet" version="1.0"><defs><clipPath id="684830dd6f"><path d="M 366 7.503906 L 400 7.503906 L 400 759.003906 L 366 759.003906 Z M 366 7.503906 " clip-rule="nonzero"/></clipPath><clipPath id="175ae438f0"><path d="M 7.503906 366 L 759.003906 366 L 759.003906 400 L 7.503906 400 Z M 7.503906 366 " clip-rule="nonzero"/></clipPath></defs><g clip-path="url(#684830dd6f)"><path fill="#203E78" d="M 383.253906 759.003906 C 374.234375 759.003906 366.917969 751.683594 366.917969 742.667969 L 366.917969 23.839844 C 366.917969 14.824219 374.234375 7.503906 383.253906 7.503906 C 392.269531 7.503906 399.589844 14.824219 399.589844 23.839844 L 399.589844 742.667969 C 399.589844 751.683594 392.269531 759.003906 383.253906 759.003906 Z M 383.253906 759.003906 " fill-opacity="1" fill-rule="nonzero"/></g><g clip-path="url(#175ae438f0)"><path fill="#203E78" d="M 742.667969 399.589844 L 23.839844 399.589844 C 14.824219 399.589844 7.503906 392.269531 7.503906 383.253906 C 7.503906 374.234375 14.824219 366.917969 23.839844 366.917969 L 742.667969 366.917969 C 751.683594 366.917969 759.003906 374.234375 759.003906 383.253906 C 759.003906 392.269531 751.683594 399.589844 742.667969 399.589844 Z M 742.667969 399.589844 " fill-opacity="1" fill-rule="nonzero"/></g><path fill="#203E78" d="M 383.253906 693.65625 C 212.109375 693.65625 72.851562 554.398438 72.851562 383.253906 C 72.851562 212.109375 212.109375 72.851562 383.253906 72.851562 C 554.398438 72.851562 693.65625 212.109375 693.65625 383.253906 C 693.65625 554.398438 554.398438 693.65625 383.253906 693.65625 Z M 383.253906 105.523438 C 230.109375 105.523438 105.523438 230.109375 105.523438 383.253906 C 105.523438 536.394531 230.109375 660.980469 383.253906 660.980469 C 536.394531 660.980469 660.980469 536.394531 660.980469 383.253906 C 660.980469 230.109375 536.394531 105.523438 383.253906 105.523438 Z M 383.253906 105.523438 " fill-opacity="1" fill-rule="nonzero"/><path fill="#203E78" d="M 383.253906 530.285156 C 302.1875 530.285156 236.222656 464.316406 236.222656 383.253906 C 236.222656 302.191406 302.1875 236.222656 383.253906 236.222656 C 464.316406 236.222656 530.285156 302.191406 530.285156 383.253906 C 530.285156 464.316406 464.316406 530.285156 383.253906 530.285156 Z M 383.253906 268.894531 C 320.191406 268.894531 268.894531 320.191406 268.894531 383.253906 C 268.894531 446.3125 320.191406 497.613281 383.253906 497.613281 C 446.3125 497.613281 497.613281 446.3125 497.613281 383.253906 C 497.613281 320.191406 446.3125 268.894531 383.253906 268.894531 Z M 383.253906 268.894531 " fill-opacity="1" fill-rule="nonzero"/></svg>