<svg xmlns="http://www.w3.org/2000/svg" xmlns:xlink="http://www.w3.org/1999/xlink" width="1024" zoomAndPan="magnify" viewBox="0 0 768 767.999994" height="1024" preserveAspectRatio="xMidYMid meet" version="1.0"><defs><clipPath id="3516f95072"><path d="M 252 51.15625 L 516 51.15625 L 516 304 L 252 304 Z M 252 51.15625 " clip-rule="nonzero"/></clipPath><clipPath id="0af531a0a5"><path d="M 8 166 L 760 166 L 760 716.40625 L 8 716.40625 Z M 8 166 " clip-rule="nonzero"/></clipPath><clipPath id="8898cbb046"><path d="M 655 493 L 676 493 L 676 716.40625 L 655 716.40625 Z M 655 493 " clip-rule="nonzero"/></clipPath></defs><g clip-path="url(#3516f95072)"><path fill="#203E78" d="M 347.816406 147.710938 C 351.15625 147.226562 354.03125 145.128906 355.53125 142.117188 L 383.953125 84.535156 L 412.367188 142.109375 C 413.863281 145.128906 416.742188 147.226562 420.085938 147.710938 L 483.640625 156.949219 L 437.652344 201.75 C 435.238281 204.101562 434.132812 207.492188 434.703125 210.8125 L 445.5625 274.09375 L 388.71875 244.222656 C 385.730469 242.660156 382.175781 242.660156 379.1875 244.222656 L 322.339844 274.09375 L 333.199219 210.8125 C 333.765625 207.492188 332.664062 204.101562 330.25 201.75 L 284.261719 156.949219 Z M 312.109375 212.660156 L 298.652344 291.078125 C 297.996094 294.914062 299.566406 298.789062 302.722656 301.082031 C 305.886719 303.378906 310.0625 303.667969 313.507812 301.863281 L 383.953125 264.84375 L 454.394531 301.863281 C 455.894531 302.644531 457.527344 303.035156 459.160156 303.035156 C 461.277344 303.035156 463.386719 302.382812 465.171875 301.082031 C 468.328125 298.789062 469.90625 294.914062 469.25 291.078125 L 455.792969 212.660156 L 512.785156 157.132812 C 515.574219 154.410156 516.582031 150.339844 515.378906 146.640625 C 514.171875 142.929688 510.972656 140.230469 507.113281 139.671875 L 428.347656 128.226562 L 393.132812 56.886719 C 391.40625 53.394531 387.847656 51.175781 383.953125 51.175781 C 380.058594 51.175781 376.503906 53.394531 374.769531 56.878906 L 339.546875 128.226562 L 260.789062 139.671875 C 256.929688 140.230469 253.726562 142.929688 252.523438 146.640625 C 251.320312 150.339844 252.324219 154.410156 255.113281 157.132812 L 312.109375 212.660156 " fill-opacity="1" fill-rule="nonzero"/></g><g clip-path="url(#0af531a0a5)"><path fill="#203E78" d="M 555.1875 273.6875 C 555.1875 226.074219 593.941406 187.347656 641.5625 187.347656 C 689.191406 187.347656 727.9375 226.074219 727.9375 273.6875 C 727.9375 321.296875 689.191406 360.027344 641.5625 360.027344 C 593.941406 360.027344 555.1875 321.296875 555.1875 273.6875 Z M 483.445312 621.804688 C 478.167969 626.941406 471.664062 630.835938 464.636719 633.066406 L 405.222656 651.878906 C 409.230469 640.933594 409.398438 629.074219 405.566406 617.847656 C 403.007812 610.335938 398.875 603.695312 393.472656 598.261719 L 439.515625 582.328125 C 452.21875 577.929688 462.941406 569.757812 470.535156 558.703125 L 527.769531 475.402344 L 527.769531 578.628906 Z M 39.964844 273.6875 C 39.964844 226.074219 78.707031 187.347656 126.332031 187.347656 C 173.960938 187.347656 212.710938 226.074219 212.710938 273.6875 C 212.710938 321.296875 173.960938 360.027344 126.332031 360.027344 C 78.707031 360.027344 39.964844 321.296875 39.964844 273.6875 Z M 689.472656 369.113281 C 724.386719 351.523438 748.410156 315.367188 748.410156 273.6875 C 748.410156 214.792969 700.480469 166.875 641.5625 166.875 C 582.644531 166.875 534.714844 214.792969 534.714844 273.6875 C 534.714844 316.15625 559.644531 352.90625 595.636719 370.109375 C 575.875 379 559.066406 393.296875 547.121094 411.136719 C 547.011719 411.28125 546.894531 411.414062 546.792969 411.5625 L 453.660156 547.109375 C 448.5625 554.539062 441.34375 560.035156 432.8125 562.980469 L 371.011719 584.363281 L 269.417969 537.324219 C 265.785156 535.636719 263.175781 532.445312 262.25 528.558594 L 243.839844 451.023438 C 234.832031 413.09375 208.453125 383.285156 174.28125 369.09375 C 209.183594 351.492188 233.1875 315.351562 233.1875 273.6875 C 233.1875 214.792969 185.253906 166.875 126.332031 166.875 C 67.421875 166.875 19.492188 214.792969 19.492188 273.6875 C 19.492188 315.886719 44.105469 352.4375 79.734375 369.78125 C 37.785156 387.996094 8.375 429.792969 8.375 478.351562 L 8.375 706.152344 C 8.375 711.804688 12.957031 716.386719 18.609375 716.386719 C 24.265625 716.386719 28.847656 711.804688 28.847656 706.152344 L 28.847656 478.351562 C 28.847656 424.394531 72.753906 380.5 126.730469 380.5 L 128.683594 380.5 C 174.230469 380.5 213.398438 411.445312 223.925781 455.753906 L 242.332031 533.285156 C 244.714844 543.308594 251.441406 551.546875 260.800781 555.886719 L 369.980469 606.4375 C 377.6875 610.007812 383.449219 616.402344 386.183594 624.4375 C 388.925781 632.484375 388.273438 641.0625 383.980469 649.296875 C 380.425781 656.121094 374.550781 661.117188 367.753906 663.738281 L 364.40625 664.796875 C 358.621094 666.308594 352.367188 666.191406 346.40625 664.078125 L 220.984375 619.710938 C 204.210938 613.769531 191.148438 600.050781 186.054688 583.007812 L 157.535156 487.605469 C 155.925781 482.1875 150.242188 479.117188 144.796875 480.738281 C 139.378906 482.351562 136.296875 488.054688 137.925781 493.480469 L 166.441406 588.867188 C 172.6875 609.78125 187.726562 627.007812 207.328125 636.183594 L 207.328125 706.152344 C 207.328125 711.804688 211.914062 716.386719 217.566406 716.386719 C 223.21875 716.386719 227.804688 711.804688 227.804688 706.152344 L 227.804688 643.847656 L 339.574219 683.378906 C 348.957031 686.699219 358.796875 687.078125 368.027344 684.925781 C 368.636719 684.847656 369.242188 684.734375 369.847656 684.539062 L 470.8125 652.574219 C 480.878906 649.390625 490.1875 643.816406 497.742188 636.453125 L 527.769531 607.203125 L 527.769531 706.152344 C 527.769531 711.804688 532.359375 716.386719 538.011719 716.386719 C 543.667969 716.386719 548.242188 711.804688 548.242188 706.152344 L 548.242188 474.816406 C 548.242188 422.804688 590.570312 380.5 642.597656 380.5 L 644.707031 380.5 C 696.734375 380.5 739.0625 422.804688 739.0625 474.816406 L 739.0625 706.152344 C 739.0625 711.804688 743.644531 716.386719 749.296875 716.386719 C 754.953125 716.386719 759.535156 711.804688 759.535156 706.152344 L 759.535156 474.816406 C 759.535156 427.390625 730.609375 386.589844 689.472656 369.113281 " fill-opacity="1" fill-rule="nonzero"/></g><g clip-path="url(#8898cbb046)"><path fill="#203E78" d="M 665.660156 493.511719 C 660.007812 493.511719 655.421875 498.09375 655.421875 503.746094 L 655.421875 706.152344 C 655.421875 711.804688 660.007812 716.386719 665.660156 716.386719 C 671.320312 716.386719 675.902344 711.804688 675.902344 706.152344 L 675.902344 503.746094 C 675.902344 498.09375 671.320312 493.511719 665.660156 493.511719 " fill-opacity="1" fill-rule="nonzero"/></g></svg>